<svg width="13" height="16" viewBox="0 0 13 16" fill="none" xmlns="http://www.w3.org/2000/svg">
<path d="M6.6036 1.3916C6.44277 1.3916 6.31348 1.52112 6.31348 1.68172C6.31348 1.8312 6.42592 1.95558 6.57456 1.97033C6.74662 1.98741 6.89372 1.85338 6.89372 1.68172C6.89372 1.52089 6.76419 1.3916 6.6036 1.3916Z" fill="#F24E4E"/>
<path d="M12.4117 1.97196C11.6111 1.97196 10.9597 1.32057 10.9597 0.519903C10.9597 0.359538 10.8296 0.229492 10.6693 0.229492H2.53776C2.37739 0.229492 2.24735 0.359538 2.24735 0.519903C2.24735 1.32057 1.59596 1.97196 0.795294 1.97196C0.634929 1.97196 0.504883 2.102 0.504883 2.26237V7.00158C0.504883 10.6949 2.91224 14.0044 6.52011 15.0863C6.54732 15.0944 6.5754 15.0985 6.60351 15.0985C6.63162 15.0985 6.65976 15.0944 6.68695 15.0863C10.2167 14.0275 12.7021 10.7757 12.7021 7.00158V2.26237C12.7021 2.102 12.5721 1.97196 12.4117 1.97196ZM12.1213 7.00158C12.1213 10.4705 9.90778 13.4746 6.60351 14.5044C3.32559 13.4828 1.0857 10.4515 1.0857 7.00158V2.5321C1.97468 2.40438 2.67977 1.69929 2.80749 0.810314H10.3995C10.5273 1.69929 11.2323 2.40438 12.1213 2.5321V7.00158Z" fill="#F24E4E"/>
<path d="M11.3671 2.91548C10.7614 2.65025 10.2818 2.17063 10.0166 1.56501C9.9703 1.45936 9.86593 1.39111 9.75058 1.39111H7.76504C7.60468 1.39111 7.47463 1.52116 7.47463 1.68152C7.47463 1.84189 7.60468 1.97194 7.76504 1.97194H9.56695C9.87377 2.57253 10.3595 3.05827 10.9601 3.36512V7.00156C10.9601 9.84361 9.25401 12.2958 6.60398 13.2775C3.95395 12.2958 2.24781 9.84361 2.24781 7.00156V3.36512C2.84841 3.05827 3.33415 2.57253 3.641 1.97194H5.44291C5.60328 1.97194 5.73333 1.84189 5.73333 1.68152C5.73333 1.52116 5.60328 1.39111 5.44291 1.39111H3.45738C3.34202 1.39111 3.23765 1.45939 3.19136 1.56501C2.92613 2.17063 2.44651 2.65025 1.84089 2.91548C1.73527 2.96177 1.66699 3.06617 1.66699 3.1815V7.00156C1.66699 10.1151 3.59274 12.8287 6.5071 13.8601C6.53843 13.8712 6.57119 13.8767 6.60398 13.8767C6.63676 13.8767 6.66952 13.8712 6.70086 13.8601C9.61278 12.8296 11.541 10.1177 11.541 7.00156V3.1815C11.541 3.06615 11.4727 2.96177 11.3671 2.91548Z" fill="#F24E4E"/>
<path d="M6.60393 4.46973C5.16274 4.46973 3.99023 5.64223 3.99023 7.08342C3.99023 8.52462 5.16274 9.69712 6.60393 9.69712C8.04513 9.69712 9.21763 8.52462 9.21763 7.08342C9.21763 5.64223 8.04513 4.46973 6.60393 4.46973ZM6.60393 9.1163C5.483 9.1163 4.57106 8.20435 4.57106 7.08342C4.57106 5.9625 5.483 5.05055 6.60393 5.05055C7.72486 5.05055 8.63681 5.9625 8.63681 7.08342C8.63681 8.20435 7.72486 9.1163 6.60393 9.1163Z" fill="#F24E4E"/>
<path d="M7.97007 6.29695C7.85663 6.18357 7.6728 6.18357 7.55934 6.29695L6.31266 7.54365L5.93719 7.16821C5.82375 7.05483 5.63992 7.05483 5.52646 7.16821C5.41305 7.28161 5.41305 7.4655 5.52646 7.57894L6.10728 8.15976C6.16403 8.21642 6.23832 8.24479 6.31266 8.24479C6.38701 8.24479 6.46129 8.21642 6.51801 8.15973L7.97007 6.70767C8.08347 6.59427 8.08347 6.41038 7.97007 6.29695Z" fill="#F24E4E"/>
</svg>
