<svg width="43" height="43" viewBox="0 0 43 43" fill="none" xmlns="http://www.w3.org/2000/svg">
<circle cx="21.078" cy="21.579" r="20.9218" fill="#F24E4E"/>
<mask id="mask0" mask-type="alpha" maskUnits="userSpaceOnUse" x="0" y="0" width="42" height="43">
<circle cx="21.078" cy="21.5787" r="20.9218" fill="#EC4654"/>
</mask>
<g mask="url(#mask0)">
<path d="M28.4427 16.0219C28.3124 15.5694 27.938 15.2146 27.4041 15.1364C27.479 14.1695 27.4855 13.0952 27.3781 11.8906C27.313 11.1613 27.1404 10.4419 26.8344 9.77773C25.9066 7.76578 23.8295 6.42773 21.5213 6.42773C18.5652 6.42773 16.5402 8.17924 15.5115 11.5976C15.2315 12.5287 15.1143 13.5672 15.1273 14.622C15.1306 14.8922 14.958 15.1234 14.7074 15.2308C14.486 15.3285 14.3069 15.4848 14.18 15.6736C13.6656 16.4452 14.2744 17.4869 15.2022 17.5553C15.2901 17.5618 15.3878 17.5683 15.4854 17.5748C15.8598 19.1961 16.4947 20.6253 17.2597 21.4555L17.0514 31.538C19.3856 34.1978 23.3379 34.3802 25.6428 31.6259L25.3303 21.4555C25.3368 21.4425 26.4828 19.8212 27.0265 17.5748L27.3162 17.5521C28.1171 17.4967 28.6673 16.7968 28.4427 16.0219Z" fill="#FFBE9D" stroke="#211915" stroke-width="0.4611" stroke-miterlimit="10" stroke-linecap="round"/>
<path d="M25.2379 21.4426C22.9981 23.6011 20.615 23.0053 19.3844 22.6341C18.0496 22.2305 17.1836 21.2603 17.1836 21.2603V23.6466L17.2389 23.6597C18.0626 23.8745 18.8309 23.9689 19.5439 23.9689C22.6888 23.9689 24.6682 22.1881 25.303 21.537L25.5569 21.1724C25.5569 21.1724 25.5342 21.0129 25.4658 21.1138C25.3063 21.3384 25.2672 21.4133 25.2379 21.4426Z" fill="#211915"/>
<path d="M15.324 16.8425C15.2621 16.6992 15.2035 16.5527 15.1254 16.429C15.0505 16.3053 14.9561 16.2044 14.8487 16.1816C14.7478 16.1588 14.5752 16.1979 14.5427 16.2695C14.5003 16.3574 14.5687 16.5267 14.6436 16.6569C14.6534 16.6699 14.6501 16.6895 14.6338 16.696C14.6241 16.7025 14.6078 16.7025 14.6013 16.6927C14.5361 16.6374 14.4808 16.5755 14.4352 16.5006C14.3896 16.4258 14.3538 16.3281 14.3799 16.2141C14.4124 16.0969 14.5166 16.0253 14.6045 15.9928C14.6892 15.9569 14.7933 15.9374 14.8975 15.9569C15.1124 15.9993 15.2426 16.1783 15.311 16.3313C15.3793 16.4941 15.4119 16.6569 15.4054 16.8294C15.4054 16.8522 15.3859 16.8685 15.3631 16.8685C15.3435 16.8685 15.3305 16.8587 15.324 16.8425Z" fill="#1D1D1B"/>
<path d="M27.0633 16.8295C27.0567 16.6602 27.0926 16.4942 27.1577 16.3314C27.226 16.1784 27.353 15.9993 27.5711 15.957C27.6753 15.9375 27.7795 15.9538 27.8641 15.9928C27.952 16.0254 28.053 16.097 28.0888 16.2142C28.1148 16.3281 28.079 16.4258 28.0334 16.5007C27.9878 16.5756 27.9325 16.6407 27.8674 16.6928C27.8544 16.7025 27.8381 16.7025 27.8251 16.6895C27.8186 16.6797 27.8186 16.6667 27.8218 16.657C27.8967 16.5267 27.9651 16.3574 27.9227 16.2695C27.8902 16.1979 27.7176 16.1556 27.6167 16.1816C27.5093 16.2044 27.4149 16.3054 27.34 16.4291C27.2618 16.5528 27.2032 16.6993 27.1414 16.8425V16.8458C27.1316 16.8653 27.1088 16.8783 27.086 16.8686C27.073 16.8588 27.0665 16.8458 27.0633 16.8295Z" fill="#1D1D1B"/>
<path d="M24.8398 21.7939C24.8398 21.7939 25.2403 21.5009 25.5007 21.0452L25.2989 21.5368L24.8398 21.7939Z" fill="#211915"/>
<path d="M18.9233 14.251C18.9233 14.5179 18.7637 14.736 18.5651 14.736C18.3666 14.736 18.207 14.5179 18.207 14.251C18.207 13.984 18.3666 13.7659 18.5651 13.7659C18.7637 13.7659 18.9233 13.984 18.9233 14.251Z" fill="#211915"/>
<path d="M24.099 14.2544C24.099 14.5213 23.9395 14.7395 23.7409 14.7395C23.5423 14.7395 23.3828 14.5213 23.3828 14.2544C23.3828 13.9874 23.5423 13.7693 23.7409 13.7693C23.9395 13.7693 24.099 13.9842 24.099 14.2544Z" fill="#211915"/>
<path d="M16.8828 12.0074C17.3646 11.4832 18.1102 11.2261 18.8329 11.2586C19.1943 11.2716 19.5589 11.3465 19.891 11.5093C20.2198 11.6688 20.5258 11.9227 20.6918 12.2678C20.783 12.4339 20.8156 12.6357 20.8351 12.8148C20.8514 12.9938 20.8546 13.1729 20.8611 13.3487C20.8709 13.7035 20.8709 14.0584 20.8709 14.41C20.8709 15.1165 20.8318 15.8229 20.796 16.5294L20.7472 16.4773C21.1053 16.4936 21.4634 16.5033 21.8215 16.5261C21.4634 16.5489 21.1053 16.5587 20.7472 16.575L20.6984 16.5782V16.5229L20.6756 14.4068C20.6723 14.0552 20.6658 13.7035 20.6495 13.3519C20.6267 13.0003 20.6365 12.6422 20.4998 12.3557C20.363 12.0627 20.1026 11.8316 19.8031 11.6818C19.5036 11.5321 19.1682 11.4442 18.8264 11.4116C18.1395 11.3595 17.4232 11.5451 16.8828 12.0074Z" fill="#211915"/>
<path d="M26.1567 12.0078C25.8832 11.7995 25.5739 11.666 25.2581 11.5716C24.9391 11.4837 24.6103 11.4348 24.2815 11.4381C23.6238 11.4348 22.9597 11.5944 22.4062 12.0078C22.6179 11.7344 22.9174 11.526 23.2462 11.399C23.575 11.2688 23.9299 11.2102 24.2815 11.2102C24.6331 11.2135 24.9879 11.2753 25.3135 11.4055C25.639 11.5325 25.9418 11.7376 26.1567 12.0078Z" fill="#211915"/>
<path d="M19.5234 18.2454C19.7774 18.4602 20.0574 18.636 20.3438 18.7793C20.6336 18.9193 20.9396 19.0137 21.2489 19.0234C21.5582 19.0365 21.8707 18.9681 22.1474 18.8151C22.2972 18.7565 22.4176 18.6458 22.5576 18.5612C22.6879 18.4635 22.8051 18.3463 22.9385 18.2454C22.8441 18.3788 22.7432 18.5156 22.6293 18.6425C22.5023 18.75 22.3884 18.8867 22.2353 18.9681C21.9521 19.1667 21.5907 19.2611 21.2424 19.2481C20.8908 19.2351 20.5522 19.1146 20.2625 18.9323C19.9662 18.7532 19.7155 18.5188 19.5234 18.2454Z" fill="#211915"/>
<path d="M18.5628 16.673C18.5628 17.1678 18.0289 17.5715 17.3712 17.5715C16.7136 17.5715 16.1797 17.1678 16.1797 16.673C16.1797 16.1749 16.7136 15.7744 17.3712 15.7744C18.0289 15.7744 18.5628 16.1749 18.5628 16.673Z" fill="#F24E4E"/>
<path d="M26.1214 16.673C26.1214 17.1678 25.5875 17.5715 24.9298 17.5715C24.2722 17.5715 23.7383 17.1678 23.7383 16.673C23.7383 16.1749 24.2722 15.7744 24.9298 15.7744C25.5875 15.7744 26.1214 16.1749 26.1214 16.673Z" fill="#F24E4E"/>
<path d="M14.614 11.194C14.5033 12.4409 14.5098 13.665 15.0991 14.7947C15.0991 14.7947 15.1772 14.2998 15.5288 12.2846C15.913 10.0806 16.499 9.3253 18.41 9.67691C20.321 10.0285 22.5544 9.3546 24.2798 8.48211C27.2685 6.97152 26.8094 13.4371 27.4052 15.1365C27.4052 15.1365 29.2478 9.46204 26.3601 6.71107C24.9765 5.39256 22.5479 4.86841 20.6792 5.05072C17.0492 5.40233 14.9233 7.71705 14.614 11.194Z" fill="#211915"/>
<path d="M25.4298 27.8137C21.6566 29.5457 17.1118 27.8333 17.0629 27.8137C12.3293 28.8034 8.05474 31.5186 7.56966 36.2099L7.56641 43.3721H34.8124L34.9784 36.4508C34.5812 31.6488 30.2513 28.8295 25.4298 27.8137Z" fill="#211915"/>
<path d="M13.9688 37.665V43.3721" stroke="white" stroke-width="0.5681" stroke-miterlimit="10" stroke-linecap="round"/>
<path d="M28.4336 37.665V43.3721" stroke="white" stroke-width="0.5681" stroke-miterlimit="10" stroke-linecap="round"/>
</g>
</svg>
