<svg width="1440" height="284" viewBox="0 0 1440 284" fill="none" xmlns="http://www.w3.org/2000/svg">
<rect x="1440" y="284" width="1440" height="284" transform="rotate(-180 1440 284)" fill="url(#paint0_linear)"/>
<mask id="mask0" mask-type="alpha" maskUnits="userSpaceOnUse" x="0" y="0" width="1440" height="285">
<rect x="1440" y="284" width="1440" height="284" transform="rotate(-180 1440 284)" fill="url(#paint1_linear)"/>
</mask>
<g mask="url(#mask0)">
<g clip-path="url(#clip0)">
<g opacity="0.7">
<g style="mix-blend-mode:overlay" opacity="0.7">
<g style="mix-blend-mode:overlay" opacity="0.7">
<g style="mix-blend-mode:overlay" opacity="0.7">
<path d="M-1915.39 681.327C-1915.39 681.327 -995.744 -619.452 15.5699 1205.51" stroke="#780B0F" stroke-opacity="0.6" stroke-width="0.75" stroke-miterlimit="10"/>
</g>
<g style="mix-blend-mode:overlay" opacity="0.7">
<path d="M-1954.59 681.327C-1954.59 681.327 -1007.33 -628.96 45.2609 1196.09" stroke="#780B0F" stroke-opacity="0.6" stroke-width="0.75" stroke-miterlimit="10"/>
</g>
</g>
</g>
<g style="mix-blend-mode:overlay" opacity="0.7">
<g style="mix-blend-mode:overlay" opacity="0.7">
<g style="mix-blend-mode:overlay" opacity="0.7">
<path d="M-1915.39 681.327C-1915.39 681.327 -995.744 -619.452 15.5699 1205.51" stroke="#780B0F" stroke-opacity="0.6" stroke-width="0.75" stroke-miterlimit="10"/>
</g>
<g style="mix-blend-mode:overlay" opacity="0.7">
<path d="M-1954.59 681.327C-1954.59 681.327 -1007.33 -628.96 45.2609 1196.09" stroke="#780B0F" stroke-opacity="0.6" stroke-width="0.75" stroke-miterlimit="10"/>
</g>
</g>
</g>
</g>
<g style="mix-blend-mode:overlay">
<g style="mix-blend-mode:overlay">
<g style="mix-blend-mode:overlay">
<path d="M1062.13 518.081C1062.13 518.081 908.783 -411.409 310.311 1413.79" stroke="#780B0F" stroke-opacity="0.6" stroke-width="0.75" stroke-miterlimit="10"/>
</g>
<g style="mix-blend-mode:overlay">
<path d="M1022.9 518.081C1022.9 518.081 897.105 -420.917 339.881 1404.13" stroke="#780B0F" stroke-opacity="0.6" stroke-width="0.75" stroke-miterlimit="10"/>
</g>
<g style="mix-blend-mode:overlay">
<path d="M983.675 518.081C983.675 518.081 885.398 -430.577 369.481 1394.6" stroke="#780B0F" stroke-opacity="0.6" stroke-width="0.75" stroke-miterlimit="10"/>
</g>
<g style="mix-blend-mode:overlay">
<path d="M944.449 518.081C944.449 518.081 873.691 -439.965 399.053 1385.09" stroke="#780B0F" stroke-opacity="0.6" stroke-width="0.75" stroke-miterlimit="10"/>
</g>
<g style="mix-blend-mode:overlay">
<path d="M905.223 518.081C905.223 518.081 861.893 -449.504 428.472 1375.58" stroke="#780B0F" stroke-opacity="0.6" stroke-width="0.75" stroke-miterlimit="10"/>
</g>
<g style="mix-blend-mode:overlay">
<path d="M866.146 518.081C866.146 518.081 850.305 -459.012 458.193 1366.04" stroke="#780B0F" stroke-opacity="0.6" stroke-width="0.75" stroke-miterlimit="10"/>
</g>
<g style="mix-blend-mode:overlay">
<path d="M826.92 518.081C826.92 518.081 838.628 -468.521 487.794 1356.44" stroke="#780B0F" stroke-opacity="0.6" stroke-width="0.75" stroke-miterlimit="10"/>
</g>
<g style="mix-blend-mode:overlay">
<path d="M787.724 518.08C787.724 518.08 826.951 -478.061 517.365 1347.02" stroke="#780B0F" stroke-opacity="0.6" stroke-width="0.75" stroke-miterlimit="10"/>
</g>
<g style="mix-blend-mode:overlay">
<path d="M748.498 518.081C748.498 518.081 815.243 -487.568 546.935 1337.48" stroke="#780B0F" stroke-opacity="0.6" stroke-width="0.75" stroke-miterlimit="10"/>
</g>
<g style="mix-blend-mode:overlay">
<path d="M709.302 518.081C709.302 518.081 803.536 -497.077 576.536 1327.97" stroke="#780B0F" stroke-opacity="0.6" stroke-width="0.75" stroke-miterlimit="10"/>
</g>
<g style="mix-blend-mode:overlay">
<path d="M670.076 518.081C670.076 518.081 791.858 -506.616 606.106 1318.47" stroke="#780B0F" stroke-opacity="0.6" stroke-width="0.75" stroke-miterlimit="10"/>
</g>
<g style="mix-blend-mode:overlay">
<path d="M630.879 518.081C630.879 518.081 780.15 -516.125 635.677 1308.96" stroke="#780B0F" stroke-opacity="0.6" stroke-width="0.75" stroke-miterlimit="10"/>
</g>
<g style="mix-blend-mode:overlay">
<path d="M591.653 518.08C591.653 518.08 768.443 -525.664 665.278 1299.42" stroke="#780B0F" stroke-opacity="0.6" stroke-width="0.75" stroke-miterlimit="10"/>
</g>
<g style="mix-blend-mode:overlay">
<path d="M552.457 518.081C552.457 518.081 756.766 -535.172 694.848 1290.03" stroke="#780B0F" stroke-opacity="0.6" stroke-width="0.75" stroke-miterlimit="10"/>
</g>
<g style="mix-blend-mode:overlay">
<path d="M513.23 518.081C513.23 518.081 745.058 -544.681 724.449 1280.37" stroke="#780B0F" stroke-opacity="0.6" stroke-width="0.75" stroke-miterlimit="10"/>
</g>
<g style="mix-blend-mode:overlay">
<path d="M474.035 518.081C474.035 518.081 733.532 -554.219 754.02 1270.86" stroke="#780B0F" stroke-opacity="0.6" stroke-width="0.75" stroke-miterlimit="10"/>
</g>
<g style="mix-blend-mode:overlay">
<path d="M434.808 518.081C434.808 518.081 721.673 -563.728 783.59 1261.32" stroke="#780B0F" stroke-opacity="0.6" stroke-width="0.75" stroke-miterlimit="10"/>
</g>
<g style="mix-blend-mode:overlay">
<path d="M395.612 518.081C395.612 518.081 709.996 -573.237 813.161 1251.81" stroke="#780B0F" stroke-opacity="0.6" stroke-width="0.75" stroke-miterlimit="10"/>
</g>
<g style="mix-blend-mode:overlay">
<path d="M356.386 518.081C356.386 518.081 698.288 -582.776 842.762 1242.31" stroke="#780B0F" stroke-opacity="0.6" stroke-width="0.75" stroke-miterlimit="10"/>
</g>
<g style="mix-blend-mode:overlay">
<path d="M317.189 518.081C317.189 518.081 686.58 -592.285 872.332 1232.68" stroke="#780B0F" stroke-opacity="0.6" stroke-width="0.75" stroke-miterlimit="10"/>
</g>
<g style="mix-blend-mode:overlay">
<path d="M277.964 518.081C277.964 518.081 674.904 -601.823 901.903 1223.26" stroke="#780B0F" stroke-opacity="0.6" stroke-width="0.75" stroke-miterlimit="10"/>
</g>
<g style="mix-blend-mode:overlay">
<path d="M238.768 518.081C238.768 518.081 663.196 -611.331 931.504 1213.72" stroke="#780B0F" stroke-opacity="0.6" stroke-width="0.75" stroke-miterlimit="10"/>
</g>
<g style="mix-blend-mode:overlay">
<path d="M199.541 518.081C199.541 518.081 651.518 -620.75 961.074 1204.21" stroke="#780B0F" stroke-opacity="0.6" stroke-width="0.75" stroke-miterlimit="10"/>
</g>
<g style="mix-blend-mode:overlay">
<path d="M160.346 518.081C160.346 518.081 639.691 -630.379 990.646 1194.7" stroke="#780B0F" stroke-opacity="0.6" stroke-width="0.75" stroke-miterlimit="10"/>
</g>
<g style="mix-blend-mode:overlay">
<path d="M121.118 518.081C121.118 518.081 628.043 -639.888 1020.31 1185.19" stroke="#780B0F" stroke-opacity="0.6" stroke-width="0.75" stroke-miterlimit="10"/>
</g>
<g style="mix-blend-mode:overlay">
<path d="M81.9229 518.081C81.9229 518.081 616.426 -649.397 1049.82 1175.65" stroke="#780B0F" stroke-opacity="0.6" stroke-width="0.75" stroke-miterlimit="10"/>
</g>
<g style="mix-blend-mode:overlay">
<path d="M42.6963 518.081C42.6963 518.081 604.718 -658.935 1079.39 1166.27" stroke="#780B0F" stroke-opacity="0.6" stroke-width="0.75" stroke-miterlimit="10"/>
</g>
<g style="mix-blend-mode:overlay">
<path d="M3.5 518.081C3.5 518.081 593.041 -668.444 1108.96 1156.61" stroke="#780B0F" stroke-opacity="0.6" stroke-width="0.75" stroke-miterlimit="10"/>
</g>
<g style="mix-blend-mode:overlay">
<path d="M-35.6963 518.081C-35.6963 518.081 581.333 -677.952 1138.56 1147.1" stroke="#780B0F" stroke-opacity="0.6" stroke-width="0.75" stroke-miterlimit="10"/>
</g>
<g style="mix-blend-mode:overlay">
<path d="M-74.9229 518.081C-74.9229 518.081 569.656 -687.491 1168.25 1137.56" stroke="#780B0F" stroke-opacity="0.6" stroke-width="0.75" stroke-miterlimit="10"/>
</g>
<g style="mix-blend-mode:overlay">
<path d="M-114.118 518.081C-114.118 518.081 557.949 -697 1197.7 1128.05" stroke="#780B0F" stroke-opacity="0.6" stroke-width="0.75" stroke-miterlimit="10"/>
</g>
<g style="mix-blend-mode:overlay">
<path d="M-153.345 518.08C-153.345 518.08 546.15 -706.539 1227.3 1118.54" stroke="#780B0F" stroke-opacity="0.6" stroke-width="0.75" stroke-miterlimit="10"/>
</g>
<g style="mix-blend-mode:overlay">
<path d="M-192.541 518.081C-192.541 518.081 534.564 -716.047 1256.87 1108.91" stroke="#780B0F" stroke-opacity="0.6" stroke-width="0.75" stroke-miterlimit="10"/>
</g>
<g style="mix-blend-mode:overlay">
<path d="M-231.767 518.081C-231.767 518.081 522.857 -725.586 1286.44 1099.5" stroke="#780B0F" stroke-opacity="0.6" stroke-width="0.75" stroke-miterlimit="10"/>
</g>
<g style="mix-blend-mode:overlay">
<path d="M-270.963 518.081C-270.963 518.081 511.179 -735.095 1316.04 1089.99" stroke="#780B0F" stroke-opacity="0.6" stroke-width="0.75" stroke-miterlimit="10"/>
</g>
<g style="mix-blend-mode:overlay">
<path d="M-310.189 518.081C-310.189 518.081 499.471 -744.513 1345.76 1080.45" stroke="#780B0F" stroke-opacity="0.6" stroke-width="0.75" stroke-miterlimit="10"/>
</g>
<g style="mix-blend-mode:overlay">
<path d="M-349.386 518.081C-349.386 518.081 487.794 -754.112 1375.18 1070.94" stroke="#780B0F" stroke-opacity="0.6" stroke-width="0.75" stroke-miterlimit="10"/>
</g>
<g style="mix-blend-mode:overlay">
<path d="M-388.612 518.081C-388.612 518.081 476.086 -763.651 1404.78 1061.43" stroke="#780B0F" stroke-opacity="0.6" stroke-width="0.75" stroke-miterlimit="10"/>
</g>
<g style="mix-blend-mode:overlay">
<path d="M-427.808 518.081C-427.808 518.081 464.409 -773.159 1434.35 1051.89" stroke="#780B0F" stroke-opacity="0.6" stroke-width="0.75" stroke-miterlimit="10"/>
</g>
<g style="mix-blend-mode:overlay">
<path d="M-467.034 518.081C-467.034 518.081 452.611 -782.698 1463.93 1042.5" stroke="#780B0F" stroke-opacity="0.6" stroke-width="0.75" stroke-miterlimit="10"/>
</g>
<g style="mix-blend-mode:overlay">
<path d="M-506.23 518.081C-506.23 518.081 441.024 -792.207 1493.62 1032.84" stroke="#780B0F" stroke-opacity="0.6" stroke-width="0.75" stroke-miterlimit="10"/>
</g>
</g>
</g>
</g>
</g>
<defs>
<linearGradient id="paint0_linear" x1="1543.68" y1="605.358" x2="2056.37" y2="-525.055" gradientUnits="userSpaceOnUse">
<stop stop-color="#460C0F"/>
<stop offset="1" stop-color="#140000"/>
</linearGradient>
<linearGradient id="paint1_linear" x1="1543.68" y1="605.358" x2="2056.37" y2="-525.055" gradientUnits="userSpaceOnUse">
<stop stop-color="#460C0F"/>
<stop offset="1" stop-color="#140000"/>
</linearGradient>
<clipPath id="clip0">
<rect width="1255" height="837" fill="white" transform="translate(0 -337)"/>
</clipPath>
</defs>
</svg>
