<svg width="1197" height="767" viewBox="0 0 1197 767" fill="none" xmlns="http://www.w3.org/2000/svg">
<g opacity="0.6">
<path d="M1196.86 5.44443V700.152C1097.96 768.57 958.399 774.922 839.892 760.948C827.914 759.496 816.118 757.863 804.503 756.048C777.463 751.874 749.696 743.889 723.744 732.092C692.53 717.574 664.037 697.248 643.349 670.208C642.986 669.663 642.441 669.119 642.078 668.574C622.115 641.715 613.949 612.315 613.767 579.104C613.586 545.168 618.667 509.053 599.067 479.109C583.641 455.516 555.33 444.446 533.19 426.842C510.686 408.876 494.172 383.287 487.275 355.339C480.379 327.209 482.738 297.81 481.831 268.954C480.923 240.099 475.66 209.429 456.605 187.832C432.831 160.973 393.45 154.258 357.698 156.618C309.243 159.703 262.602 176.218 214.873 185.11C121.048 202.351 35.9331 169.503 9.07403 71.8663C3.26665 50.0886 0.544442 27.948 0 5.44443H1196.86Z" fill="#F9FBFC"/>
<mask id="mask0" mask-type="alpha" maskUnits="userSpaceOnUse" x="0" y="5" width="1197" height="762">
<path d="M1196.86 5.44443V700.152C1097.96 768.57 958.399 774.922 839.892 760.948C827.914 759.496 816.118 757.863 804.503 756.048C777.463 751.874 749.696 743.889 723.744 732.092C692.53 717.574 664.037 697.248 643.349 670.208C642.986 669.663 642.441 669.119 642.078 668.574C622.115 641.715 613.949 612.315 613.767 579.104C613.586 545.168 618.667 509.053 599.067 479.109C583.641 455.516 555.33 444.446 533.19 426.842C510.686 408.876 494.172 383.287 487.275 355.339C480.379 327.209 482.738 297.81 481.831 268.954C480.923 240.099 475.66 209.429 456.605 187.832C432.831 160.973 393.45 154.258 357.698 156.618C309.243 159.703 262.602 176.218 214.873 185.11C121.048 202.351 35.9331 169.503 9.07403 71.8663C3.26665 50.0886 0.544442 27.948 0 5.44443H1196.86Z" fill="url(#paint0_linear)"/>
</mask>
<g mask="url(#mask0)">
<path opacity="0.5" d="M1196.86 5.44446V700.152C1097.96 768.57 958.399 774.922 839.892 760.948C827.914 759.496 816.118 757.863 804.503 756.048C777.463 751.874 749.696 743.889 723.744 732.093C692.53 717.574 664.037 697.248 643.349 670.208C642.986 669.663 642.441 669.119 642.078 668.574C622.115 641.715 613.949 612.315 613.767 579.104C613.586 545.168 618.667 509.053 599.067 479.109C583.641 455.516 555.33 444.446 533.19 426.842C510.686 408.876 494.172 383.287 487.275 355.339C480.379 327.209 482.738 297.81 481.831 268.954C480.923 240.099 475.66 209.429 456.605 187.832C432.831 160.973 393.45 154.258 357.698 156.618C309.243 159.703 262.602 176.218 214.873 185.11C121.048 202.351 35.9331 169.503 9.07403 71.8663C3.26665 50.0887 0.544442 27.948 0 5.44446H1196.86Z" fill="url(#paint1_linear)"/>
</g>
<mask id="mask1" mask-type="alpha" maskUnits="userSpaceOnUse" x="653" y="0" width="544" height="746">
<path d="M1196.86 0V678.374C1099.95 746.611 962.392 752.963 845.7 739.17C833.903 737.718 822.289 736.267 811.037 734.452C784.541 730.278 757.319 722.656 732.093 710.859C701.423 696.704 673.656 676.741 653.512 650.245C697.611 635.182 741.53 622.297 782 597.797C831.907 567.49 875.281 521.757 889.799 465.135C911.214 381.835 868.929 286.558 909.581 211.062C922.284 187.469 942.066 168.414 959.125 147.907C988.162 112.881 1010.3 72.2293 1023.91 29.0369C1027 19.4184 1029.54 9.79995 1032.26 0.181481H1196.86V0Z" fill="url(#paint2_linear)"/>
</mask>
<g mask="url(#mask1)">
<path opacity="0.2" d="M1197 5V678.717C1100.15 746.485 962.679 752.793 846.063 739.096C834.275 737.654 822.667 736.212 811.423 734.41C784.944 730.264 757.739 722.694 732.53 710.979C701.88 696.921 674.131 677.095 654 650.781C698.071 635.821 741.961 623.025 782.405 598.693C832.28 568.594 875.625 523.175 890.134 466.941C911.535 384.214 869.278 289.59 909.903 214.613C922.598 191.182 942.367 172.258 959.415 151.891C988.433 117.106 1010.56 76.7334 1024.16 33.8375C1027.24 24.2851 1029.78 14.7327 1032.5 5.18023H1197V5Z" fill="url(#paint3_linear)"/>
<path opacity="0.4" d="M732.093 710.859C700.878 696.522 672.567 676.015 652.241 648.611C632.641 622.297 624.838 593.623 624.475 561.138C624.293 546.801 625.201 532.101 624.656 517.764C623.93 498.708 621.026 480.016 609.956 463.32C604.512 454.972 597.434 448.257 589.449 442.268C575.475 431.742 559.323 423.213 545.531 412.324C537.182 405.609 529.56 397.987 523.208 389.457C512.683 375.483 504.879 359.331 500.705 342.454C493.99 315.05 496.349 286.195 495.442 257.884C494.535 229.573 489.453 199.81 470.579 178.577C447.35 152.262 408.876 145.729 373.85 147.907C326.484 150.992 280.932 167.144 234.11 175.855C142.281 192.732 59.1627 160.429 32.6666 64.97C26.8592 43.7368 24.137 21.9592 23.5925 0.181488H379.113C378.75 4.89998 377.661 9.61848 376.935 14.1555C370.402 58.2553 394.72 76.4033 426.479 86.7477C451.161 94.9143 480.561 98.3625 502.883 105.803C544.986 119.959 584.549 150.81 603.786 191.462C626.108 238.647 610.501 290.732 616.852 340.457C624.656 402.161 680.915 440.816 689.263 504.516C697.248 564.949 681.278 621.026 710.496 677.648C716.667 689.445 723.926 700.515 732.093 710.859Z" fill="url(#paint4_linear)"/>
<path opacity="0.4" d="M596.527 542.99C608.867 538.09 622.115 534.097 631.734 525.023C635.726 521.212 639.719 516.131 645.345 516.312C649.156 516.312 652.423 519.034 654.963 521.757C664.219 531.919 667.848 546.619 664.763 559.867C661.497 573.116 651.515 584.549 638.63 589.267C623.93 594.712 610.864 595.801 597.071 604.149C587.09 610.138 581.645 617.397 571.119 607.234C547.527 584.004 574.386 551.701 596.527 542.99Z" fill="url(#paint5_linear)"/>
<path opacity="0.4" d="M1196.86 497.257V678.374C1099.95 746.611 962.391 752.963 845.699 739.17C854.955 731.548 863.666 723.2 873.829 716.848C909.58 694.526 955.313 701.785 997.235 698.7C1042.24 695.252 1086.16 678.919 1122.28 651.878C1132.8 644.074 1142.6 635.363 1149.86 624.475C1158.03 612.497 1162.75 598.523 1167.28 584.912C1177.26 555.693 1187.06 526.475 1196.86 497.257Z" fill="url(#paint6_linear)"/>
<g opacity="0.8">
<path opacity="0.4" d="M774.377 386.191H576.564C567.671 386.191 560.593 379.113 560.593 370.22V257.521C560.593 248.628 567.671 241.551 576.564 241.551H774.377C783.27 241.551 790.348 248.628 790.348 257.521V370.22C790.348 378.931 783.27 386.191 774.377 386.191Z" fill="url(#paint7_linear)"/>
<g opacity="0.8">
<g opacity="0.8">
<g opacity="0.8">
<g opacity="0.8">
<g opacity="0.6">
<g opacity="0.6">
<g opacity="0.6">
<g opacity="0.6">
<path opacity="0.6" d="M778.37 279.117H778.007V365.32H778.37V279.117Z" fill="white"/>
</g>
</g>
<g opacity="0.6">
<g opacity="0.6">
<path opacity="0.6" d="M778.189 365.139H581.464V365.502H778.189V365.139Z" fill="white"/>
</g>
<g opacity="0.6">
<path opacity="0.6" d="M778.189 343.543H575.293V343.906H778.189V343.543Z" fill="white"/>
</g>
<g opacity="0.6">
<path opacity="0.6" d="M778.189 321.946H575.293V322.309H778.189V321.946Z" fill="white"/>
</g>
<g opacity="0.6">
<path opacity="0.6" d="M778.189 300.532H575.293V300.895H778.189V300.532Z" fill="white"/>
</g>
<g opacity="0.6">
<path opacity="0.6" d="M778.189 278.936H581.464V279.299H778.189V278.936Z" fill="white"/>
</g>
</g>
<g opacity="0.6">
<g opacity="0.6">
<path opacity="0.6" d="M669.119 273.491H668.756V370.946H669.119V273.491Z" fill="white"/>
</g>
</g>
<g opacity="0.6">
<g opacity="0.6">
<path opacity="0.6" d="M690.897 273.491H690.534V370.946H690.897V273.491Z" fill="white"/>
</g>
</g>
<g opacity="0.6">
<g opacity="0.6">
<path opacity="0.6" d="M712.856 273.491H712.493V370.946H712.856V273.491Z" fill="white"/>
</g>
</g>
<g opacity="0.6">
<g opacity="0.6">
<path opacity="0.6" d="M734.633 273.491H734.271V370.946H734.633V273.491Z" fill="white"/>
</g>
</g>
<g opacity="0.6">
<g opacity="0.6">
<path opacity="0.6" d="M756.592 273.491H756.229V370.946H756.592V273.491Z" fill="white"/>
</g>
</g>
</g>
</g>
</g>
<g opacity="0.8">
<g opacity="0.6">
<g opacity="0.6">
<g opacity="0.6">
<g opacity="0.6">
<path opacity="0.6" d="M778.37 256.613H778.007V279.117H778.37V256.613Z" fill="white"/>
</g>
</g>
<g opacity="0.6">
<g opacity="0.6">
<path opacity="0.6" d="M778.189 278.936H575.293V279.299H778.189V278.936Z" fill="white"/>
</g>
<g opacity="0.6">
<path opacity="0.6" d="M778.189 257.521H581.464V257.884H778.189V257.521Z" fill="white"/>
</g>
</g>
<g opacity="0.6">
<g opacity="0.6">
<path opacity="0.6" d="M669.119 256.613H668.756V279.117H669.119V256.613Z" fill="white"/>
</g>
</g>
<g opacity="0.6">
<g opacity="0.6">
<path opacity="0.6" d="M690.897 256.613H690.534V279.117H690.897V256.613Z" fill="white"/>
</g>
</g>
<g opacity="0.6">
<g opacity="0.6">
<path opacity="0.6" d="M712.856 256.613H712.493V279.117H712.856V256.613Z" fill="white"/>
</g>
</g>
<g opacity="0.6">
<g opacity="0.6">
<path opacity="0.6" d="M734.633 256.613H734.271V279.117H734.633V256.613Z" fill="white"/>
</g>
</g>
<g opacity="0.6">
<g opacity="0.6">
<path opacity="0.6" d="M756.592 256.613H756.229V279.117H756.592V256.613Z" fill="white"/>
</g>
</g>
</g>
</g>
</g>
</g>
<g opacity="0.8">
<g opacity="0.8">
<path opacity="0.8" d="M668.756 373.124C668.756 373.487 668.574 373.668 668.211 373.668C668.574 373.668 668.756 373.85 668.756 374.394C668.756 374.939 668.393 375.302 667.848 375.302C667.486 375.302 667.304 375.12 667.123 374.939L667.304 374.757C667.486 374.939 667.667 374.939 667.848 374.939C668.211 374.939 668.393 374.757 668.393 374.394C668.393 374.031 668.211 373.85 667.848 373.85H667.667V373.487H667.848C668.03 373.487 668.393 373.305 668.393 372.943C668.393 372.761 668.211 372.58 668.03 372.58C667.848 372.58 667.667 372.58 667.485 372.761L667.304 372.58C667.486 372.398 667.848 372.217 668.03 372.217C668.393 372.398 668.756 372.761 668.756 373.124Z" fill="white"/>
<path opacity="0.8" d="M671.115 373.85C671.115 374.757 670.752 375.302 670.208 375.302C669.663 375.302 669.3 374.757 669.3 373.85C669.3 372.943 669.663 372.398 670.208 372.398C670.752 372.398 671.115 372.943 671.115 373.85ZM669.663 373.85C669.663 374.576 669.845 374.939 670.208 374.939C670.571 374.939 670.752 374.576 670.752 373.85C670.752 373.124 670.571 372.761 670.208 372.761C669.845 372.761 669.663 372.943 669.663 373.85Z" fill="white"/>
</g>
<g opacity="0.8">
<path opacity="0.8" d="M690.352 374.394H689.989V375.12H689.626V374.394H688.537V374.213L689.263 372.398L689.626 372.58L688.9 374.213H689.626V373.487H689.989V374.213H690.352V374.394Z" fill="white"/>
<path opacity="0.8" d="M692.53 373.85C692.53 374.757 692.167 375.302 691.622 375.302C691.078 375.302 690.715 374.757 690.715 373.85C690.715 372.943 691.078 372.398 691.622 372.398C692.167 372.398 692.53 372.943 692.53 373.85ZM691.078 373.85C691.078 374.576 691.259 374.939 691.622 374.939C691.985 374.939 692.167 374.576 692.167 373.85C692.167 373.124 691.985 372.761 691.622 372.761C691.259 372.761 691.078 372.943 691.078 373.85Z" fill="white"/>
</g>
<g opacity="0.8">
<path opacity="0.8" d="M711.585 372.761H710.497V373.487C710.678 373.487 710.86 373.305 710.86 373.305C711.404 373.305 711.585 373.668 711.585 374.213C711.585 374.757 711.223 375.12 710.678 375.12C710.315 375.12 710.134 374.939 709.952 374.757L710.134 374.576C710.315 374.757 710.497 374.757 710.678 374.757C711.041 374.757 711.222 374.576 711.222 374.213C711.222 373.85 711.041 373.668 710.678 373.668C710.497 373.668 710.497 373.668 710.315 373.85H709.952V372.398H711.404L711.585 372.761Z" fill="white"/>
<path opacity="0.8" d="M713.945 373.85C713.945 374.757 713.582 375.302 713.037 375.302C712.493 375.302 712.13 374.757 712.13 373.85C712.13 372.943 712.493 372.398 713.037 372.398C713.582 372.398 713.945 372.943 713.945 373.85ZM712.493 373.85C712.493 374.576 712.674 374.939 713.037 374.939C713.4 374.939 713.582 374.576 713.582 373.85C713.582 373.124 713.4 372.761 713.037 372.761C712.674 372.761 712.493 372.943 712.493 373.85Z" fill="white"/>
</g>
<g opacity="0.8">
<path opacity="0.8" d="M734.27 374.213C734.27 374.757 733.907 375.12 733.363 375.12C732.637 375.12 732.456 374.576 732.456 373.85C732.456 372.943 732.819 372.398 733.544 372.398C733.726 372.398 733.907 372.398 734.089 372.58L733.907 372.761C733.726 372.761 733.726 372.58 733.544 372.58C733.181 372.58 733 372.942 732.818 373.668C733 373.487 733.181 373.305 733.544 373.305C733.907 373.305 734.27 373.668 734.27 374.213ZM733.907 374.213C733.907 373.85 733.726 373.668 733.544 373.668C733.363 373.668 733.181 373.85 733 374.031C733 374.576 733.181 374.939 733.544 374.939C733.726 374.939 733.907 374.576 733.907 374.213Z" fill="white"/>
<path opacity="0.8" d="M736.448 373.85C736.448 374.757 736.085 375.302 735.541 375.302C734.996 375.302 734.633 374.757 734.633 373.85C734.633 372.943 734.996 372.398 735.541 372.398C736.085 372.398 736.448 372.943 736.448 373.85ZM734.996 373.85C734.996 374.576 735.178 374.939 735.541 374.939C735.904 374.939 736.085 374.576 736.085 373.85C736.085 373.124 735.904 372.761 735.541 372.761C735.178 372.761 734.996 372.943 734.996 373.85Z" fill="white"/>
</g>
<g opacity="0.8">
<path opacity="0.8" d="M755.685 372.761L754.596 375.302L754.233 375.12L755.141 372.761H753.87V372.398H755.503V372.761H755.685Z" fill="white"/>
<path opacity="0.8" d="M757.863 373.85C757.863 374.757 757.5 375.302 756.955 375.302C756.411 375.302 756.048 374.757 756.048 373.85C756.048 372.943 756.411 372.398 756.955 372.398C757.5 372.398 757.863 372.943 757.863 373.85ZM756.411 373.85C756.411 374.576 756.592 374.939 756.955 374.939C757.318 374.939 757.5 374.576 757.5 373.85C757.5 373.124 757.318 372.761 756.955 372.761C756.592 372.761 756.411 372.943 756.411 373.85Z" fill="white"/>
</g>
</g>
</g>
<g opacity="0.8">
<g opacity="0.8">
<g opacity="0.8">
<g opacity="0.8">
<path opacity="0.8" d="M659.319 303.254H658.774V364.776H659.319V303.254Z" fill="#00698E"/>
</g>
<g opacity="0.8">
<path opacity="0.8" d="M681.641 333.198H681.097V364.776H681.641V333.198Z" fill="#00698E"/>
</g>
<g opacity="0.8">
<path opacity="0.8" d="M706.141 314.324H705.597V364.957H706.141V314.324Z" fill="#00698E"/>
</g>
<g opacity="0.8">
<path opacity="0.8" d="M750.604 322.491H750.06V364.231H750.604V322.491Z" fill="#00698E"/>
</g>
<g opacity="0.8">
<path opacity="0.8" d="M681.641 334.287C673.293 334.287 669.845 324.85 666.76 316.321C664.582 310.15 662.404 304.343 659.138 304.343C655.326 304.343 650.971 308.698 646.071 313.235C640.264 318.861 633.549 325.032 626.471 325.032C619.393 325.032 614.493 320.858 610.319 317.228C606.69 314.143 603.604 311.421 599.793 311.421C592.534 311.421 585.456 319.769 583.46 322.491C583.097 323.035 582.916 323.217 582.916 323.217L580.919 321.946C580.919 321.946 581.101 321.584 581.645 321.039C584.368 317.409 591.808 309.061 599.793 309.061C604.512 309.061 608.142 312.147 611.771 315.413C615.945 319.043 620.119 322.672 626.29 322.672C632.46 322.672 638.449 317.047 644.256 311.421C649.338 306.521 654.238 301.984 658.956 301.984C663.856 301.984 666.215 308.517 668.756 315.413C671.478 323.035 674.745 331.746 681.46 331.746C684.545 331.746 686.904 330.658 688.9 328.48C690.171 327.028 691.078 325.213 692.167 323.217C694.708 318.498 697.793 312.872 705.96 312.872C714.671 312.872 719.752 317.772 723.745 321.765C726.83 324.85 729.37 327.391 732.819 327.391C737.174 327.391 739.352 325.758 741.893 323.943C744.07 322.309 746.43 320.676 750.241 320.676C754.233 320.676 757.137 322.128 759.859 323.398C762.219 324.669 764.578 325.758 767.481 325.758C772.2 325.758 775.648 323.398 776.918 322.491C777.281 322.309 777.281 322.128 777.463 322.128L779.096 323.761C779.096 323.761 778.915 323.943 778.552 324.306C777.1 325.395 773.107 328.117 767.663 328.117C764.215 328.117 761.493 326.846 758.952 325.576C756.23 324.306 753.87 323.035 750.422 323.035C747.337 323.035 745.522 324.306 743.526 325.939C740.985 327.754 738.263 329.75 733.182 329.75C728.826 329.75 725.741 326.665 722.474 323.398C718.482 319.587 714.126 315.05 706.323 315.05C699.426 315.05 697.067 319.406 694.526 324.124C693.437 326.121 692.348 328.117 691.078 329.75C688.356 332.835 685.452 334.287 681.641 334.287Z" fill="#F9F8F7"/>
</g>
</g>
<g opacity="0.8">
<path opacity="0.8" d="M662.949 302.891C662.949 305.069 661.134 306.884 658.956 306.884C656.779 306.884 654.964 305.069 654.964 302.891C654.964 300.713 656.779 298.898 658.956 298.898C661.134 298.898 662.949 300.713 662.949 302.891Z" fill="url(#paint8_linear)"/>
<path opacity="0.6" d="M659.137 308.154C656.234 308.154 653.875 305.795 653.875 302.891C653.875 299.987 656.234 297.628 659.137 297.628C662.041 297.628 664.4 299.987 664.4 302.891C664.4 305.795 662.041 308.154 659.137 308.154ZM659.137 299.987C657.504 299.987 656.234 301.258 656.234 302.891C656.234 304.524 657.504 305.795 659.137 305.795C660.771 305.795 662.041 304.524 662.041 302.891C662.041 301.258 660.771 299.987 659.137 299.987Z" fill="url(#paint9_linear)"/>
</g>
</g>
</g>
</g>
</g>
<g opacity="0.4">
<g opacity="0.4">
<g opacity="0.4">
<g opacity="0.4">
<g opacity="0.4">
<path opacity="0.4" d="M887.622 232.84C869.837 232.84 855.137 218.321 855.137 200.355C855.137 182.388 869.655 167.87 887.622 167.87C905.407 167.87 920.107 182.388 920.107 200.355C920.107 218.321 905.588 232.84 887.622 232.84ZM887.622 178.395C875.462 178.395 865.481 188.377 865.481 200.536C865.481 212.695 875.462 222.677 887.622 222.677C899.781 222.677 909.762 212.695 909.762 200.536C909.762 188.377 899.781 178.395 887.622 178.395Z" fill="#F9FBFC"/>
</g>
</g>
<g opacity="0.4">
<g opacity="0.4">
<g opacity="0.4">
<path opacity="0.4" d="M887.621 232.84C869.836 232.84 855.136 218.322 855.136 200.355C855.136 197.452 857.495 195.274 860.218 195.274C863.121 195.274 865.299 197.633 865.299 200.355C865.299 212.515 875.281 222.496 887.44 222.496C899.599 222.496 909.58 212.515 909.58 200.355C909.58 188.196 899.599 178.215 887.44 178.215C884.536 178.215 882.358 175.856 882.358 173.133C882.358 170.23 884.718 168.052 887.44 168.052C905.225 168.052 919.925 182.57 919.925 200.537C919.925 218.504 905.588 232.84 887.621 232.84Z" fill="url(#paint10_linear)"/>
</g>
</g>
</g>
</g>
</g>
</g>
<g opacity="0.4">
<g opacity="0.4">
<g opacity="0.4">
<g opacity="0.4">
<g opacity="0.4">
<path opacity="0.4" d="M784.722 707.23C766.937 707.23 752.237 692.711 752.237 674.745C752.237 656.96 766.755 642.26 784.722 642.26C802.688 642.26 817.207 656.778 817.207 674.745C817.207 692.711 802.688 707.23 784.722 707.23ZM784.722 652.604C772.563 652.604 762.581 662.585 762.581 674.745C762.581 686.904 772.563 696.885 784.722 696.885C796.881 696.885 806.862 686.904 806.862 674.745C807.044 662.585 797.063 652.604 784.722 652.604Z" fill="#F9FBFC"/>
</g>
</g>
<g opacity="0.4">
<g opacity="0.4">
<g opacity="0.4">
<path opacity="0.4" d="M736.485 548.789C718.7 548.789 704 534.27 704 516.304C704 513.4 706.359 511.222 709.081 511.222C711.985 511.222 714.163 513.581 714.163 516.304C714.163 528.463 724.144 538.444 736.304 538.444C748.463 538.444 758.444 528.463 758.444 516.304C758.444 504.144 748.463 494.163 736.304 494.163C733.4 494.163 731.222 491.804 731.222 489.081C731.222 486.359 733.581 484 736.304 484C754.089 484 768.789 498.518 768.789 516.485C768.97 534.27 754.452 548.789 736.485 548.789Z" fill="url(#paint11_linear)"/>
</g>
</g>
</g>
</g>
</g>
</g>
<path d="M1076.18 211.425C1082.19 211.425 1087.07 206.55 1087.07 200.536C1087.07 194.522 1082.19 189.647 1076.18 189.647C1070.17 189.647 1065.29 194.522 1065.29 200.536C1065.29 206.55 1070.17 211.425 1076.18 211.425Z" fill="#ECF6FF"/>
<path d="M703.889 667.778C709.903 667.778 714.778 662.903 714.778 656.889C714.778 650.875 709.903 646 703.889 646C697.875 646 693 650.875 693 656.889C693 662.903 697.875 667.778 703.889 667.778Z" fill="#ECF6FF"/>
<path d="M804.866 166.055C807.873 166.055 810.311 163.617 810.311 160.61C810.311 157.603 807.873 155.166 804.866 155.166C801.859 155.166 799.422 157.603 799.422 160.61C799.422 163.617 801.859 166.055 804.866 166.055Z" fill="#ECF6FF"/>
<path d="M1169.1 470.579C1172.1 470.579 1174.54 468.141 1174.54 465.135C1174.54 462.128 1172.1 459.69 1169.1 459.69C1166.09 459.69 1163.65 462.128 1163.65 465.135C1163.65 468.141 1166.09 470.579 1169.1 470.579Z" fill="#ECF6FF"/>
<path d="M684.182 457.331C687.189 457.331 689.626 454.893 689.626 451.887C689.626 448.88 687.189 446.442 684.182 446.442C681.175 446.442 678.737 448.88 678.737 451.887C678.737 454.893 681.175 457.331 684.182 457.331Z" fill="#ECF6FF"/>
<path d="M726.467 209.61C727.97 209.61 729.189 208.391 729.189 206.888C729.189 205.384 727.97 204.166 726.467 204.166C724.963 204.166 723.745 205.384 723.745 206.888C723.745 208.391 724.963 209.61 726.467 209.61Z" fill="#ECF6FF"/>
<path d="M1084.35 289.461C1085.85 289.461 1087.07 288.243 1087.07 286.739C1087.07 285.236 1085.85 284.017 1084.35 284.017C1082.84 284.017 1081.62 285.236 1081.62 286.739C1081.62 288.243 1082.84 289.461 1084.35 289.461Z" fill="#ECF6FF"/>
<path d="M972.736 175.129C974.239 175.129 975.458 173.91 975.458 172.407C975.458 170.903 974.239 169.684 972.736 169.684C971.232 169.684 970.014 170.903 970.014 172.407C970.014 173.91 971.232 175.129 972.736 175.129Z" fill="#ECF6FF"/>
<path opacity="0.4" d="M1087.61 651.697C1097.23 654.963 1106.85 659.5 1117.01 658.956C1121.19 658.774 1126.09 657.867 1129.17 660.771C1131.35 662.767 1131.89 665.852 1131.89 668.756C1132.08 679.1 1126.99 689.626 1118.46 695.615C1109.93 701.604 1098.5 703.237 1088.7 699.608C1077.45 695.433 1069.46 689.445 1057.31 687.448C1048.59 685.996 1041.7 687.448 1040.79 676.197C1038.79 650.789 1070.37 645.708 1087.61 651.697Z" fill="url(#paint12_linear)"/>
<path opacity="0.4" d="M734.996 433.739C739.896 435.372 744.796 437.731 750.059 437.368C751.874 437.187 754.233 436.824 755.866 437.913C757.318 438.82 758.225 440.998 758.77 442.631C760.04 446.079 759.859 450.253 757.499 453.338C756.048 455.153 754.051 456.605 751.874 457.512C746.066 460.053 739.351 459.872 733 459.872C730.64 459.872 728.463 459.69 726.285 459.509C722.837 458.964 719.207 457.694 716.485 455.335C710.133 450.072 709.226 440.272 716.485 435.553C721.566 432.105 729.188 431.742 734.996 433.739Z" fill="url(#paint13_linear)"/>
</g>
</g>
<defs>
<linearGradient id="paint0_linear" x1="743.567" y1="335.638" x2="1229.3" y2="420.822" gradientUnits="userSpaceOnUse">
<stop/>
<stop offset="1" stop-color="white"/>
</linearGradient>
<linearGradient id="paint1_linear" x1="743.567" y1="335.638" x2="1229.3" y2="420.822" gradientUnits="userSpaceOnUse">
<stop stop-color="#5F4AE3"/>
<stop offset="1" stop-color="#15C1C3"/>
</linearGradient>
<linearGradient id="paint2_linear" x1="925.179" y1="749.515" x2="925.179" y2="-3.65031" gradientUnits="userSpaceOnUse">
<stop/>
<stop offset="1" stop-color="white"/>
</linearGradient>
<linearGradient id="paint3_linear" x1="925.491" y1="749.369" x2="925.491" y2="1.37475" gradientUnits="userSpaceOnUse">
<stop stop-color="#5F4AE3"/>
<stop offset="1" stop-color="#15C1C3"/>
</linearGradient>
<linearGradient id="paint4_linear" x1="23.7559" y1="355.448" x2="732.111" y2="355.448" gradientUnits="userSpaceOnUse">
<stop stop-color="#15C1C3"/>
<stop offset="1" stop-color="#5F4AE3"/>
</linearGradient>
<linearGradient id="paint5_linear" x1="570.585" y1="606.577" x2="660.778" y2="528.247" gradientUnits="userSpaceOnUse">
<stop stop-color="#15C1C3"/>
<stop offset="1" stop-color="#5F4AE3"/>
</linearGradient>
<linearGradient id="paint6_linear" x1="845.717" y1="621.233" x2="1196.86" y2="621.233" gradientUnits="userSpaceOnUse">
<stop stop-color="#15C1C3"/>
<stop offset="1" stop-color="#5F4AE3"/>
</linearGradient>
<linearGradient id="paint7_linear" x1="675.455" y1="386.146" x2="675.455" y2="241.545" gradientUnits="userSpaceOnUse">
<stop stop-color="#5F4AE3"/>
<stop offset="1" stop-color="#15C1C3"/>
</linearGradient>
<linearGradient id="paint8_linear" x1="655.071" y1="302.803" x2="662.954" y2="302.803" gradientUnits="userSpaceOnUse">
<stop stop-color="#5F4AE3"/>
<stop offset="1" stop-color="#15C1C3"/>
</linearGradient>
<linearGradient id="paint9_linear" x1="653.893" y1="302.868" x2="664.424" y2="302.868" gradientUnits="userSpaceOnUse">
<stop stop-color="#FCEE21"/>
<stop offset="1" stop-color="#F7931E"/>
</linearGradient>
<linearGradient id="paint10_linear" x1="855.237" y1="200.517" x2="920.034" y2="200.517" gradientUnits="userSpaceOnUse">
<stop stop-color="#D84774"/>
<stop offset="1" stop-color="#FC7EB2"/>
</linearGradient>
<linearGradient id="paint11_linear" x1="704.162" y1="516.344" x2="768.959" y2="516.344" gradientUnits="userSpaceOnUse">
<stop stop-color="#D84774"/>
<stop offset="1" stop-color="#FC7EB2"/>
</linearGradient>
<linearGradient id="paint12_linear" x1="1040.76" y1="675.423" x2="1132" y2="675.423" gradientUnits="userSpaceOnUse">
<stop stop-color="#15C1C3"/>
<stop offset="1" stop-color="#5F4AE3"/>
</linearGradient>
<linearGradient id="paint13_linear" x1="711.191" y1="446.115" x2="759.373" y2="446.115" gradientUnits="userSpaceOnUse">
<stop stop-color="#15C1C3"/>
<stop offset="1" stop-color="#5F4AE3"/>
</linearGradient>
</defs>
</svg>
