<svg width="22" height="22" viewBox="0 0 22 22" fill="none" xmlns="http://www.w3.org/2000/svg">
<g clip-path="url(#clip0)">
<path d="M21.8402 3.68511C21.7095 3.52836 21.5157 3.43761 21.3122 3.43761H5.15342L4.5553 1.19777C4.47555 0.896649 4.20331 0.687653 3.89119 0.687653H0.687489C0.307995 0.687653 0 0.995648 0 1.37514C0 1.75464 0.307995 2.06263 0.687489 2.06263H3.3632L3.95444 4.27772C3.95581 4.28597 3.95306 4.29422 3.95581 4.30385L6.15578 12.5262C6.15578 12.5276 6.15715 12.5276 6.15715 12.529L6.89827 15.3023C6.97802 15.6034 7.25026 15.8124 7.56238 15.8124H18.5622C18.9417 15.8124 19.2497 15.5044 19.2497 15.1249C19.2497 14.7454 18.9417 14.4374 18.5622 14.4374H8.09037L7.704 12.991L19.9716 12.3736C20.2892 12.3571 20.5559 12.1247 20.6137 11.8112L21.9887 4.24885C22.0258 4.04673 21.9708 3.84048 21.8402 3.68511ZM9.62485 9.62501C9.62485 10.0045 9.31685 10.3125 8.93736 10.3125C8.55787 10.3125 8.24987 10.0045 8.24987 9.62501V6.87506C8.24987 6.49556 8.55787 6.18757 8.93736 6.18757C9.31685 6.18757 9.62485 6.49556 9.62485 6.87506V9.62501ZM13.7498 9.62501C13.7498 10.0045 13.4418 10.3125 13.0623 10.3125C12.6828 10.3125 12.3748 10.0045 12.3748 9.62501V6.87506C12.3748 6.49556 12.6828 6.18757 13.0623 6.18757C13.4418 6.18757 13.7498 6.49556 13.7498 6.87506V9.62501ZM17.8747 9.62501C17.8747 10.0045 17.5667 10.3125 17.1872 10.3125C16.8077 10.3125 16.4997 10.0045 16.4997 9.62501V6.87506C16.4997 6.49556 16.8077 6.18757 17.1872 6.18757C17.5667 6.18757 17.8747 6.49556 17.8747 6.87506V9.62501Z" fill="#554BB9"/>
<path d="M8.93747 21.3123C10.0765 21.3123 10.9999 20.3889 10.9999 19.2499C10.9999 18.1108 10.0765 17.1874 8.93747 17.1874C7.7984 17.1874 6.875 18.1108 6.875 19.2499C6.875 20.3889 7.7984 21.3123 8.93747 21.3123Z" fill="#554BB9"/>
<path d="M17.1875 21.3123C18.3265 21.3123 19.2499 20.3889 19.2499 19.2499C19.2499 18.1108 18.3265 17.1874 17.1875 17.1874C16.0484 17.1874 15.125 18.1108 15.125 19.2499C15.125 20.3889 16.0484 21.3123 17.1875 21.3123Z" fill="#554BB9"/>
</g>
<defs>
<clipPath id="clip0">
<rect width="22" height="22" fill="white"/>
</clipPath>
</defs>
</svg>
