<svg width="12" height="13" viewBox="0 0 12 13" fill="none" xmlns="http://www.w3.org/2000/svg">
<path d="M6 0.120117C2.68612 0.120117 0 2.80624 0 6.12012C0 9.434 2.68612 12.1201 6 12.1201C9.31388 12.1201 12 9.43361 12 6.12012C12 2.80663 9.31388 0.120117 6 0.120117ZM6 11.3701C3.10049 11.3701 0.75 9.01963 0.75 6.12012C0.75 3.22061 3.10049 0.870117 6 0.870117C8.89951 0.870117 11.25 3.22061 11.25 6.12012C11.25 9.01963 8.89951 11.3701 6 11.3701ZM8.25 5.74512H6.375V3.87012C6.375 3.66312 6.207 3.49512 6 3.49512C5.793 3.49512 5.625 3.66312 5.625 3.87012V5.74512H3.75C3.543 5.74512 3.375 5.91312 3.375 6.12012C3.375 6.32712 3.543 6.49512 3.75 6.49512H5.625V8.37012C5.625 8.57712 5.793 8.74512 6 8.74512C6.207 8.74512 6.375 8.57712 6.375 8.37012V6.49512H8.25C8.457 6.49512 8.625 6.32712 8.625 6.12012C8.625 5.91312 8.457 5.74512 8.25 5.74512Z" fill="#F24E4E"/>
</svg>
