<svg width="14" height="14" viewBox="0 0 14 14" fill="none" xmlns="http://www.w3.org/2000/svg">
<path d="M11.1938 4.41205C11.3363 4.41205 11.452 4.29646 11.452 4.15386V1.34609C11.452 0.919 11.1045 0.571533 10.6774 0.571533H1.27944C0.852349 0.571533 0.504883 0.919 0.504883 1.34609V13.0161C0.504883 13.4432 0.852349 13.7906 1.27944 13.7906H10.6774C11.1045 13.7906 11.452 13.4432 11.452 13.0161V11.114C11.452 10.9714 11.3363 10.8558 11.1938 10.8558C11.0512 10.8558 10.9356 10.9714 10.9356 11.114V13.0161C10.9356 13.1585 10.8198 13.2743 10.6774 13.2743H1.27944C1.13708 13.2743 1.02125 13.1585 1.02125 13.0161V1.34609C1.02125 1.20373 1.13708 1.0879 1.27944 1.0879H10.6774C10.8198 1.0879 10.9356 1.20373 10.9356 1.34609V4.15386C10.9356 4.29646 11.0512 4.41205 11.1938 4.41205Z" fill="#F24E4E"/>
<path d="M5.97883 1.96558C4.66907 1.96558 3.60352 3.03114 3.60352 4.34089C3.60352 5.02035 3.89036 5.63401 4.34921 6.06735C4.35781 6.07654 4.36695 6.08524 4.37694 6.09317C4.79961 6.4799 5.36212 6.71617 5.9788 6.71617C6.59548 6.71617 7.15799 6.47988 7.58066 6.09317C7.59065 6.08524 7.59979 6.07652 7.60839 6.06735C8.06729 5.63401 8.35414 5.02035 8.35414 4.34089C8.35414 3.03114 7.28858 1.96558 5.97883 1.96558ZM5.97883 6.19982C5.55723 6.19982 5.16815 6.05855 4.85595 5.82112C5.08287 5.41873 5.50632 5.16708 5.97883 5.16708C6.45133 5.16708 6.87478 5.41873 7.1017 5.82112C6.78948 6.05855 6.40042 6.19982 5.97883 6.19982ZM5.56573 4.23761V4.06979C5.56573 3.84202 5.75105 3.65669 5.97883 3.65669C6.2066 3.65669 6.39192 3.84202 6.39192 4.06979V4.23761C6.39192 4.46538 6.2066 4.65071 5.97883 4.65071C5.75105 4.65071 5.56573 4.46538 5.56573 4.23761ZM7.47475 5.4429C7.28434 5.1605 7.02045 4.94086 6.71406 4.80526C6.83567 4.6481 6.90829 4.45124 6.90829 4.23761V4.06979C6.90829 3.55727 6.49135 3.14032 5.97883 3.14032C5.4663 3.14032 5.04936 3.55727 5.04936 4.06979V4.23761C5.04936 4.45124 5.12198 4.6481 5.24359 4.80526C4.9372 4.94086 4.67331 5.1605 4.4829 5.4429C4.25494 5.13429 4.11989 4.75313 4.11989 4.34089C4.11989 3.31586 4.9538 2.48195 5.97883 2.48195C7.00385 2.48195 7.83776 3.31586 7.83776 4.34089C7.83776 4.75313 7.70271 5.13429 7.47475 5.4429Z" fill="#F24E4E"/>
<path d="M7.37212 11.8794H5.97791C5.83534 11.8794 5.71973 11.995 5.71973 12.1376C5.71973 12.2802 5.83534 12.3958 5.97791 12.3958H7.37212C7.51469 12.3958 7.6303 12.2802 7.6303 12.1376C7.6303 11.995 7.51469 11.8794 7.37212 11.8794Z" fill="#F24E4E"/>
<path d="M7.37267 10.4338H3.70643C3.56386 10.4338 3.44824 10.5494 3.44824 10.692C3.44824 10.8346 3.56386 10.9502 3.70643 10.9502H7.37267C7.51524 10.9502 7.63085 10.8346 7.63085 10.692C7.63085 10.5494 7.51524 10.4338 7.37267 10.4338Z" fill="#F24E4E"/>
<path d="M7.37267 8.98804H3.70643C3.56386 8.98804 3.44824 9.10363 3.44824 9.24622C3.44824 9.38882 3.56386 9.50441 3.70643 9.50441H7.37267C7.51524 9.50441 7.63085 9.38882 7.63085 9.24622C7.63085 9.10363 7.51524 8.98804 7.37267 8.98804Z" fill="#F24E4E"/>
<path d="M2.78582 7.61774C2.73791 7.56981 2.67143 7.54224 2.6034 7.54224C2.5356 7.54224 2.46911 7.56981 2.42121 7.61774C2.37328 7.66567 2.3457 7.73216 2.3457 7.79993C2.3457 7.8677 2.37325 7.93419 2.42121 7.98212C2.4694 8.03005 2.5356 8.05762 2.6034 8.05762C2.67143 8.05762 2.73766 8.03005 2.78582 7.98212C2.83375 7.93419 2.86135 7.8677 2.86135 7.79993C2.86135 7.73216 2.83378 7.66567 2.78582 7.61774Z" fill="#F24E4E"/>
<path d="M2.78582 9.06354C2.73766 9.01561 2.67143 8.98804 2.6034 8.98804C2.5356 8.98804 2.4694 9.01561 2.42121 9.06354C2.37328 9.11147 2.3457 9.17796 2.3457 9.24573C2.3457 9.3135 2.37325 9.37999 2.42121 9.42792C2.4694 9.47585 2.5356 9.50343 2.6034 9.50343C2.67143 9.50343 2.73766 9.47585 2.78582 9.42792C2.83375 9.37999 2.86135 9.3135 2.86135 9.24573C2.86135 9.17796 2.83378 9.11147 2.78582 9.06354Z" fill="#F24E4E"/>
<path d="M2.78582 10.5093C2.73766 10.4614 2.67143 10.4338 2.6034 10.4338C2.5356 10.4338 2.4694 10.4614 2.42121 10.5093C2.37328 10.5573 2.3457 10.6238 2.3457 10.6915C2.3457 10.7593 2.37325 10.8258 2.42121 10.8737C2.46911 10.9217 2.5356 10.9492 2.6034 10.9492C2.67143 10.9492 2.73791 10.9217 2.78582 10.8737C2.83375 10.8258 2.86135 10.7593 2.86135 10.6915C2.86135 10.6238 2.83378 10.5573 2.78582 10.5093Z" fill="#F24E4E"/>
<path d="M7.37267 7.54224H3.70643C3.56386 7.54224 3.44824 7.65783 3.44824 7.80042C3.44824 7.94302 3.56386 8.05861 3.70643 8.05861H7.37267C7.51524 8.05861 7.63085 7.94302 7.63085 7.80042C7.63085 7.65783 7.51524 7.54224 7.37267 7.54224Z" fill="#F24E4E"/>
<path d="M13.1821 3.93627C12.9313 3.79145 12.6391 3.75298 12.3593 3.82793C12.0795 3.90291 11.8456 4.08235 11.7008 4.33318L8.45177 9.96067C8.43398 9.99153 8.42272 10.0257 8.41877 10.0611L8.19007 12.1097C8.17871 12.2116 8.22875 12.3106 8.31756 12.3619C8.35766 12.3851 8.4022 12.3965 8.44663 12.3965C8.50064 12.3965 8.55445 12.3796 8.59976 12.3462L10.2595 11.1239C10.2882 11.1028 10.3122 11.0759 10.33 11.0451L13.579 5.41758C13.878 4.89977 13.6999 4.23525 13.1821 3.93627ZM8.76872 11.5805L8.88815 10.5108L9.6354 10.9422L8.76872 11.5805ZM10.0119 10.5633L9.02807 9.99527L11.6354 5.47934L12.6192 6.04735L10.0119 10.5633ZM13.1318 5.15937L12.8773 5.60017L11.8935 5.03216L12.148 4.59136C12.2239 4.45997 12.3463 4.36599 12.4929 4.32672C12.6395 4.28743 12.7925 4.30762 12.9239 4.38347C13.0553 4.45933 13.1493 4.58181 13.1886 4.72836C13.2278 4.8749 13.2077 5.02798 13.1318 5.15937Z" fill="#F24E4E"/>
</svg>
