<svg width="16" height="16" viewBox="0 0 16 16" fill="none" xmlns="http://www.w3.org/2000/svg">
<path d="M7.39456 11.0355C7.50911 10.921 7.50911 10.7356 7.39456 10.6211C7.2799 10.5068 7.09415 10.5068 6.97938 10.6211C6.86495 10.7356 6.86495 10.921 6.97938 11.0355C7.09415 11.1498 7.2799 11.1498 7.39456 11.0355Z" fill="#F24E4E"/>
<path d="M6.00488 4.08367C6.00488 5.86007 7.45293 7.3054 9.2328 7.3054C11.0127 7.3054 12.4607 5.86007 12.4607 4.08367C12.4607 2.30728 11.0127 0.862061 9.2328 0.862061C7.45293 0.862061 6.00488 2.30728 6.00488 4.08367ZM11.8739 4.08367C11.8739 5.53713 10.6891 6.7196 9.2328 6.7196C7.7765 6.7196 6.59171 5.53713 6.59171 4.08367C6.59171 2.63033 7.7765 1.44786 9.2328 1.44786C10.6891 1.44786 11.8739 2.63033 11.8739 4.08367Z" fill="#F24E4E"/>
<path d="M3.86832 15.7748C3.98207 15.8892 4.16724 15.8905 4.28248 15.7772L5.70518 14.3783C5.94689 14.1371 6.02038 13.7799 5.91409 13.4694L6.22012 13.1749C6.38489 13.016 6.60183 12.9285 6.83115 12.9285H10.7322C11.4243 12.9285 12.0785 12.6632 12.5744 12.1816C12.5948 12.1618 12.4195 12.3679 15.2357 9.00848C15.6535 8.51526 15.591 7.77463 15.0963 7.35728C14.6048 6.94382 13.8684 7.00322 13.4496 7.48797L11.718 9.26425C11.4993 8.99567 11.1659 8.82825 10.8056 8.82825H7.53333C7.06769 8.63382 6.57362 8.5354 6.06384 8.5354C4.65077 8.5354 3.41691 9.18678 2.75474 10.408C2.47577 10.3553 2.18156 10.4395 1.96989 10.6508L0.573904 12.0481C0.459932 12.1622 0.459702 12.3468 0.573445 12.4613L3.86832 15.7748ZM6.06372 9.12109C6.51319 9.12109 6.94776 9.21138 7.3556 9.38944C7.39275 9.40569 7.43277 9.41405 7.47324 9.41405H10.8056C11.1238 9.41405 11.3926 9.67302 11.3926 9.99973C11.3926 10.3228 11.1293 10.5855 10.8056 10.5855H8.4114C8.24938 10.5855 8.11798 10.7167 8.11798 10.8784C8.11798 11.0402 8.24938 11.1712 8.4114 11.1712H10.8056C11.4529 11.1712 11.9794 10.6457 11.9794 9.99973C11.9794 9.94824 11.9757 9.8972 11.9691 9.84662C13.6441 8.12813 13.8803 7.88666 13.8904 7.87465C14.0996 7.62827 14.4708 7.59703 14.7178 7.80484C14.965 8.01346 14.9963 8.38378 14.7866 8.63153L12.1546 11.7719C11.7703 12.1402 11.2656 12.3428 10.7322 12.3428H6.83115C6.44887 12.3428 6.087 12.4887 5.8125 12.7534L5.56312 12.9936L3.26418 10.6993C3.80148 9.69327 4.80969 9.12109 6.06372 9.12109ZM2.38519 11.0647C2.48197 10.9681 2.63057 10.9507 2.74855 11.0235C2.79935 11.0544 2.6535 10.9219 5.29023 13.5498C5.40752 13.6668 5.40122 13.8534 5.29183 13.9626L4.07896 15.1551L1.19559 12.2554L2.38519 11.0647Z" fill="#F24E4E"/>
<path d="M8.88109 2.32665V2.66984C8.53952 2.79069 8.29415 3.11626 8.29415 3.49813C8.29415 3.98254 8.68904 4.37678 9.17451 4.37678C9.3363 4.37678 9.46793 4.50815 9.46793 4.66962C9.46793 4.83109 9.3363 4.96246 9.17451 4.96246C9.04919 4.96246 8.91377 4.88384 8.79349 4.74091C8.68915 4.61709 8.50409 4.60119 8.38003 4.70521C8.25597 4.80935 8.23991 4.99405 8.34426 5.11787C8.50111 5.30406 8.6856 5.43383 8.88109 5.49928V5.84111C8.88109 6.00292 9.0125 6.13395 9.17451 6.13395C9.33653 6.13395 9.46793 6.00292 9.46793 5.84111V5.49791C9.8095 5.37695 10.0549 5.05138 10.0549 4.66962C10.0549 4.1851 9.65998 3.79098 9.17451 3.79098C9.01273 3.79098 8.88109 3.6596 8.88109 3.49813C8.88109 3.33666 9.01273 3.20518 9.17451 3.20518C9.27851 3.20518 9.38824 3.25816 9.49189 3.35829C9.60839 3.47078 9.79414 3.46769 9.90685 3.35154C10.0196 3.23527 10.0165 3.04989 9.90008 2.9374C9.75114 2.79355 9.60208 2.71218 9.46793 2.66778V2.32665C9.46793 2.16484 9.33653 2.03369 9.17451 2.03369C9.0125 2.03369 8.88109 2.16484 8.88109 2.32665Z" fill="#F24E4E"/>
</svg>
