<svg width="15" height="15" viewBox="0 0 15 15" fill="none" xmlns="http://www.w3.org/2000/svg">
<path d="M13.7022 7.01193C13.7017 7.01161 13.7014 7.01118 13.7011 7.01086L7.98961 1.30019C7.74617 1.05666 7.42249 0.922607 7.07821 0.922607C6.73392 0.922607 6.41025 1.05666 6.16669 1.30019L0.458213 7.00798C0.45629 7.0099 0.454261 7.01193 0.452445 7.01385C-0.0474837 7.51662 -0.0466291 8.33234 0.454902 8.83382C0.684036 9.06303 0.986556 9.19569 1.31012 9.20969C1.32337 9.21097 1.33661 9.21161 1.34997 9.21161H1.5775V13.4142C1.5775 14.246 2.25432 14.9226 3.08615 14.9226H5.32066C5.54723 14.9226 5.73086 14.7389 5.73086 14.5125V11.2175C5.73086 10.838 6.03968 10.5293 6.41922 10.5293H7.73719C8.11673 10.5293 8.42545 10.838 8.42545 11.2175V14.5125C8.42545 14.7389 8.60908 14.9226 8.83565 14.9226H11.0702C11.9021 14.9226 12.5788 14.246 12.5788 13.4142V9.21161H12.7899C13.1341 9.21161 13.4577 9.07756 13.7014 8.83392C14.2035 8.3317 14.2037 7.51448 13.7022 7.01193ZM13.1213 8.25394C13.0327 8.34248 12.915 8.3913 12.7899 8.3913H12.1686C11.942 8.3913 11.7584 8.57491 11.7584 8.80145V13.4142C11.7584 13.7936 11.4497 14.1023 11.0702 14.1023H9.24584V11.2175C9.24584 10.3858 8.56912 9.70903 7.73719 9.70903H6.41922C5.58729 9.70903 4.91046 10.3858 4.91046 11.2175V14.1023H3.08615C2.70672 14.1023 2.39789 13.7936 2.39789 13.4142V8.80145C2.39789 8.57491 2.21427 8.3913 1.9877 8.3913H1.3771C1.37069 8.39087 1.36439 8.39055 1.35787 8.39044C1.23567 8.38831 1.12105 8.33981 1.03516 8.25383C0.852494 8.07118 0.852494 7.77393 1.03516 7.59117C1.03527 7.59117 1.03527 7.59106 1.03537 7.59096L1.03569 7.59064L6.74695 1.88017C6.8354 1.79163 6.95301 1.74292 7.07821 1.74292C7.20329 1.74292 7.32091 1.79163 7.40946 1.88017L13.1194 7.58946C13.1203 7.59032 13.1213 7.59117 13.1221 7.59203C13.3038 7.77499 13.3035 8.07161 13.1213 8.25394Z" fill="#F24E4E"/>
</svg>
