<svg width="13" height="12" viewBox="0 0 13 12" fill="none" xmlns="http://www.w3.org/2000/svg">
<path d="M11.9289 5.76624L10.645 4.86104C10.4123 4.69705 10.0908 4.86404 10.0908 5.14838V5.70202H3.9258C3.73165 5.70202 3.57422 5.85943 3.57422 6.05361C3.57422 6.24779 3.73165 6.40517 3.9258 6.40517H10.0907V6.95878C10.0907 7.245 10.414 7.40888 10.6449 7.24613L11.9289 6.34093C12.1249 6.20279 12.1289 5.90752 11.9289 5.76624Z" fill="#F24E4E"/>
<path d="M10.1673 8.31108C9.99923 8.21391 9.78412 8.27129 9.68688 8.43938C8.86104 9.86709 7.31729 10.8256 5.55318 10.8256C2.92195 10.8256 0.781271 8.68489 0.781271 6.05366C0.781271 3.42244 2.92195 1.28176 5.55318 1.28176C7.31846 1.28176 8.86151 2.24112 9.68686 3.6679C9.78407 3.83599 9.99923 3.89334 10.1672 3.7962C10.3353 3.69898 10.3927 3.48389 10.2955 3.31582C9.3457 1.67384 7.57175 0.578613 5.55318 0.578613C2.5271 0.578613 0.078125 3.02733 0.078125 6.05366C0.078125 9.07974 2.52684 11.5287 5.55318 11.5287C7.57261 11.5287 9.34612 10.4327 10.2955 8.79146C10.3927 8.62339 10.3353 8.40833 10.1673 8.31108Z" fill="#F24E4E"/>
</svg>
