<svg width="24" height="23" viewBox="0 0 24 23" fill="none" xmlns="http://www.w3.org/2000/svg">
<path d="M9.72219 3.67181H9.25793V4.13607H9.72219V3.67181Z" fill="#E02F2F"/>
<path d="M10.6507 3.67181H10.1865V4.13607H10.6507V3.67181Z" fill="#E02F2F"/>
<path d="M11.115 3.67181H10.6507V4.13607H11.115V3.67181Z" fill="#E02F2F"/>
<path d="M11.5792 3.67181H11.115V4.13607H11.5792V3.67181Z" fill="#E02F2F"/>
<path d="M13.4473 3.67181H12.983V4.13607H13.4473V3.67181Z" fill="#E02F2F"/>
<path d="M13.9116 3.67181H13.4473V4.13607H13.9116V3.67181Z" fill="#E02F2F"/>
<path d="M15.7686 3.67181H15.3044V4.13607H15.7686V3.67181Z" fill="#E02F2F"/>
<path d="M16.2329 3.67181H15.7686V4.13607H16.2329V3.67181Z" fill="#E02F2F"/>
<path d="M9.25796 4.13605H8.7937V4.60031H9.25796V4.13605Z" fill="#E02F2F"/>
<path d="M10.6507 4.13605H10.1865V4.60031H10.6507V4.13605Z" fill="#E02F2F"/>
<path d="M12.5188 4.13605H12.0546V4.60031H12.5188V4.13605Z" fill="#E02F2F"/>
<path d="M12.9831 4.13605H12.5188V4.60031H12.9831V4.13605Z" fill="#E02F2F"/>
<path d="M13.9116 4.13605H13.4473V4.60031H13.9116V4.13605Z" fill="#E02F2F"/>
<path d="M14.3758 4.13605H13.9116V4.60031H14.3758V4.13605Z" fill="#E02F2F"/>
<path d="M15.3043 4.13605H14.8401V4.60031H15.3043V4.13605Z" fill="#E02F2F"/>
<path d="M15.7686 4.13605H15.3044V4.60031H15.7686V4.13605Z" fill="#E02F2F"/>
<path d="M9.25796 4.60034H8.7937V5.0646H9.25796V4.60034Z" fill="#E02F2F"/>
<path d="M11.5792 4.60034H11.115V5.0646H11.5792V4.60034Z" fill="#E02F2F"/>
<path d="M12.0435 4.60034H11.5792V5.0646H12.0435V4.60034Z" fill="#E02F2F"/>
<path d="M12.5188 4.60034H12.0546V5.0646H12.5188V4.60034Z" fill="#E02F2F"/>
<path d="M12.9831 4.60034H12.5188V5.0646H12.9831V4.60034Z" fill="#E02F2F"/>
<path d="M13.4473 4.60034H12.983V5.0646H13.4473V4.60034Z" fill="#E02F2F"/>
<path d="M13.9116 4.60034H13.4473V5.0646H13.9116V4.60034Z" fill="#E02F2F"/>
<path d="M14.3758 4.60034H13.9116V5.0646H14.3758V4.60034Z" fill="#E02F2F"/>
<path d="M15.7686 4.60034H15.3044V5.0646H15.7686V4.60034Z" fill="#E02F2F"/>
<path d="M9.25796 5.06458H8.7937V5.52883H9.25796V5.06458Z" fill="#E02F2F"/>
<path d="M13.4473 5.06458H12.983V5.52883H13.4473V5.06458Z" fill="#E02F2F"/>
<path d="M13.9116 5.06458H13.4473V5.52883H13.9116V5.06458Z" fill="#E02F2F"/>
<path d="M15.7686 5.06458H15.3044V5.52883H15.7686V5.06458Z" fill="#E02F2F"/>
<path d="M16.2329 5.06458H15.7686V5.52883H16.2329V5.06458Z" fill="#E02F2F"/>
<path d="M8.79367 5.53992H8.32941V6.00418H8.79367V5.53992Z" fill="#E02F2F"/>
<path d="M10.1864 5.53992H9.72217V6.00418H10.1864V5.53992Z" fill="#E02F2F"/>
<path d="M10.6507 5.53992H10.1865V6.00418H10.6507V5.53992Z" fill="#E02F2F"/>
<path d="M11.115 5.53992H10.6507V6.00418H11.115V5.53992Z" fill="#E02F2F"/>
<path d="M12.9831 5.53992H12.5188V6.00418H12.9831V5.53992Z" fill="#E02F2F"/>
<path d="M13.4473 5.53992H12.983V6.00418H13.4473V5.53992Z" fill="#E02F2F"/>
<path d="M13.9116 5.53992H13.4473V6.00418H13.9116V5.53992Z" fill="#E02F2F"/>
<path d="M10.1864 6.00415H9.72217V6.46841H10.1864V6.00415Z" fill="#E02F2F"/>
<path d="M11.115 6.00415H10.6507V6.46841H11.115V6.00415Z" fill="#E02F2F"/>
<path d="M11.5792 6.00415H11.115V6.46841H11.5792V6.00415Z" fill="#E02F2F"/>
<path d="M12.5188 6.00415H12.0546V6.46841H12.5188V6.00415Z" fill="#E02F2F"/>
<path d="M13.4473 6.00415H12.983V6.46841H13.4473V6.00415Z" fill="#E02F2F"/>
<path d="M14.3758 6.00415H13.9116V6.46841H14.3758V6.00415Z" fill="#E02F2F"/>
<path d="M14.8401 6.00415H14.3759V6.46841H14.8401V6.00415Z" fill="#E02F2F"/>
<path d="M15.3043 6.00415H14.8401V6.46841H15.3043V6.00415Z" fill="#E02F2F"/>
<path d="M16.2329 6.00415H15.7686V6.46841H16.2329V6.00415Z" fill="#E02F2F"/>
<path d="M8.79367 6.46844H8.32941V6.9327H8.79367V6.46844Z" fill="#E02F2F"/>
<path d="M9.72219 6.46844H9.25793V6.9327H9.72219V6.46844Z" fill="#E02F2F"/>
<path d="M10.6507 6.46844H10.1865V6.9327H10.6507V6.46844Z" fill="#E02F2F"/>
<path d="M11.5792 6.46844H11.115V6.9327H11.5792V6.46844Z" fill="#E02F2F"/>
<path d="M12.5188 6.46844H12.0546V6.9327H12.5188V6.46844Z" fill="#E02F2F"/>
<path d="M13.4473 6.46844H12.983V6.9327H13.4473V6.46844Z" fill="#E02F2F"/>
<path d="M14.3758 6.46844H13.9116V6.9327H14.3758V6.46844Z" fill="#E02F2F"/>
<path d="M15.3043 6.46844H14.8401V6.9327H15.3043V6.46844Z" fill="#E02F2F"/>
<path d="M16.2329 6.46844H15.7686V6.9327H16.2329V6.46844Z" fill="#E02F2F"/>
<path d="M8.79367 6.93268H8.32941V7.39694H8.79367V6.93268Z" fill="#E02F2F"/>
<path d="M9.25796 6.93268H8.7937V7.39694H9.25796V6.93268Z" fill="#E02F2F"/>
<path d="M11.115 6.93268H10.6507V7.39694H11.115V6.93268Z" fill="#E02F2F"/>
<path d="M12.0435 6.93268H11.5792V7.39694H12.0435V6.93268Z" fill="#E02F2F"/>
<path d="M12.9831 6.93268H12.5188V7.39694H12.9831V6.93268Z" fill="#E02F2F"/>
<path d="M13.9116 6.93268H13.4473V7.39694H13.9116V6.93268Z" fill="#E02F2F"/>
<path d="M15.3043 6.93268H14.8401V7.39694H15.3043V6.93268Z" fill="#E02F2F"/>
<path d="M15.7686 6.93268H15.3044V7.39694H15.7686V6.93268Z" fill="#E02F2F"/>
<path d="M16.2329 6.93268H15.7686V7.39694H16.2329V6.93268Z" fill="#E02F2F"/>
<path d="M5.99703 7.39691H5.53278V7.86117H5.99703V7.39691Z" fill="#E02F2F"/>
<path d="M6.47238 7.39691H6.00812V7.86117H6.47238V7.39691Z" fill="#E02F2F"/>
<path d="M7.86514 7.39691H7.40088V7.86117H7.86514V7.39691Z" fill="#E02F2F"/>
<path d="M8.32943 7.39691H7.86517V7.86117H8.32943V7.39691Z" fill="#E02F2F"/>
<path d="M8.79367 7.39691H8.32941V7.86117H8.79367V7.39691Z" fill="#E02F2F"/>
<path d="M9.25796 7.39691H8.7937V7.86117H9.25796V7.39691Z" fill="#E02F2F"/>
<path d="M10.1864 7.39691H9.72217V7.86117H10.1864V7.39691Z" fill="#E02F2F"/>
<path d="M12.0435 7.39691H11.5792V7.86117H12.0435V7.39691Z" fill="#E02F2F"/>
<path d="M12.5188 7.39691H12.0546V7.86117H12.5188V7.39691Z" fill="#E02F2F"/>
<path d="M12.9831 7.39691H12.5188V7.86117H12.9831V7.39691Z" fill="#E02F2F"/>
<path d="M13.4473 7.39691H12.983V7.86117H13.4473V7.39691Z" fill="#E02F2F"/>
<path d="M14.8401 7.39691H14.3759V7.86117H14.8401V7.39691Z" fill="#E02F2F"/>
<path d="M15.7686 7.39691H15.3044V7.86117H15.7686V7.39691Z" fill="#E02F2F"/>
<path d="M16.6971 7.39691H16.2328V7.86117H16.6971V7.39691Z" fill="#E02F2F"/>
<path d="M17.1614 7.39691H16.6971V7.86117H17.1614V7.39691Z" fill="#E02F2F"/>
<path d="M18.0899 7.39691H17.6257V7.86117H18.0899V7.39691Z" fill="#E02F2F"/>
<path d="M5.06857 7.86121H4.60431V8.32547H5.06857V7.86121Z" fill="#E02F2F"/>
<path d="M5.5328 7.86121H5.06854V8.32547H5.5328V7.86121Z" fill="#E02F2F"/>
<path d="M6.47238 7.86121H6.00812V8.32547H6.47238V7.86121Z" fill="#E02F2F"/>
<path d="M6.93661 7.86121H6.47235V8.32547H6.93661V7.86121Z" fill="#E02F2F"/>
<path d="M8.32943 7.86121H7.86517V8.32547H8.32943V7.86121Z" fill="#E02F2F"/>
<path d="M8.79367 7.86121H8.32941V8.32547H8.79367V7.86121Z" fill="#E02F2F"/>
<path d="M10.1864 7.86121H9.72217V8.32547H10.1864V7.86121Z" fill="#E02F2F"/>
<path d="M10.6507 7.86121H10.1865V8.32547H10.6507V7.86121Z" fill="#E02F2F"/>
<path d="M12.0435 7.86121H11.5792V8.32547H12.0435V7.86121Z" fill="#E02F2F"/>
<path d="M13.4473 7.86121H12.983V8.32547H13.4473V7.86121Z" fill="#E02F2F"/>
<path d="M15.7686 7.86121H15.3044V8.32547H15.7686V7.86121Z" fill="#E02F2F"/>
<path d="M16.6971 7.86121H16.2328V8.32547H16.6971V7.86121Z" fill="#E02F2F"/>
<path d="M17.1614 7.86121H16.6971V8.32547H17.1614V7.86121Z" fill="#E02F2F"/>
<path d="M18.5652 7.86121H18.101V8.32547H18.5652V7.86121Z" fill="#E02F2F"/>
<path d="M19.0295 7.86121H18.5652V8.32547H19.0295V7.86121Z" fill="#E02F2F"/>
<path d="M19.4937 7.86121H19.0295V8.32547H19.4937V7.86121Z" fill="#E02F2F"/>
<path d="M19.958 7.86121H19.4937V8.32547H19.958V7.86121Z" fill="#E02F2F"/>
<path d="M5.06857 8.32544H4.60431V8.7897H5.06857V8.32544Z" fill="#E02F2F"/>
<path d="M7.86514 8.32544H7.40088V8.7897H7.86514V8.32544Z" fill="#E02F2F"/>
<path d="M8.79367 8.32544H8.32941V8.7897H8.79367V8.32544Z" fill="#E02F2F"/>
<path d="M10.6507 8.32544H10.1865V8.7897H10.6507V8.32544Z" fill="#E02F2F"/>
<path d="M11.115 8.32544H10.6507V8.7897H11.115V8.32544Z" fill="#E02F2F"/>
<path d="M12.0435 8.32544H11.5792V8.7897H12.0435V8.32544Z" fill="#E02F2F"/>
<path d="M12.5188 8.32544H12.0546V8.7897H12.5188V8.32544Z" fill="#E02F2F"/>
<path d="M12.9831 8.32544H12.5188V8.7897H12.9831V8.32544Z" fill="#E02F2F"/>
<path d="M13.4473 8.32544H12.983V8.7897H13.4473V8.32544Z" fill="#E02F2F"/>
<path d="M13.9116 8.32544H13.4473V8.7897H13.9116V8.32544Z" fill="#E02F2F"/>
<path d="M14.8401 8.32544H14.3759V8.7897H14.8401V8.32544Z" fill="#E02F2F"/>
<path d="M15.3043 8.32544H14.8401V8.7897H15.3043V8.32544Z" fill="#E02F2F"/>
<path d="M15.7686 8.32544H15.3044V8.7897H15.7686V8.32544Z" fill="#E02F2F"/>
<path d="M17.1614 8.32544H16.6971V8.7897H17.1614V8.32544Z" fill="#E02F2F"/>
<path d="M19.4937 8.32544H19.0295V8.7897H19.4937V8.32544Z" fill="#E02F2F"/>
<path d="M19.958 8.32544H19.4937V8.7897H19.958V8.32544Z" fill="#E02F2F"/>
<path d="M5.06857 8.78973H4.60431V9.25399H5.06857V8.78973Z" fill="#E02F2F"/>
<path d="M5.5328 8.78973H5.06854V9.25399H5.5328V8.78973Z" fill="#E02F2F"/>
<path d="M6.47238 8.78973H6.00812V9.25399H6.47238V8.78973Z" fill="#E02F2F"/>
<path d="M6.93661 8.78973H6.47235V9.25399H6.93661V8.78973Z" fill="#E02F2F"/>
<path d="M9.25796 8.78973H8.7937V9.25399H9.25796V8.78973Z" fill="#E02F2F"/>
<path d="M10.1864 8.78973H9.72217V9.25399H10.1864V8.78973Z" fill="#E02F2F"/>
<path d="M11.115 8.78973H10.6507V9.25399H11.115V8.78973Z" fill="#E02F2F"/>
<path d="M11.5792 8.78973H11.115V9.25399H11.5792V8.78973Z" fill="#E02F2F"/>
<path d="M12.5188 8.78973H12.0546V9.25399H12.5188V8.78973Z" fill="#E02F2F"/>
<path d="M12.9831 8.78973H12.5188V9.25399H12.9831V8.78973Z" fill="#E02F2F"/>
<path d="M14.3758 8.78973H13.9116V9.25399H14.3758V8.78973Z" fill="#E02F2F"/>
<path d="M15.7686 8.78973H15.3044V9.25399H15.7686V8.78973Z" fill="#E02F2F"/>
<path d="M16.2329 8.78973H15.7686V9.25399H16.2329V8.78973Z" fill="#E02F2F"/>
<path d="M17.1614 8.78973H16.6971V9.25399H17.1614V8.78973Z" fill="#E02F2F"/>
<path d="M17.6256 8.78973H17.1614V9.25399H17.6256V8.78973Z" fill="#E02F2F"/>
<path d="M18.0899 8.78973H17.6257V9.25399H18.0899V8.78973Z" fill="#E02F2F"/>
<path d="M18.5652 8.78973H18.101V9.25399H18.5652V8.78973Z" fill="#E02F2F"/>
<path d="M5.99703 9.25397H5.53278V9.71823H5.99703V9.25397Z" fill="#E02F2F"/>
<path d="M6.47238 9.25397H6.00812V9.71823H6.47238V9.25397Z" fill="#E02F2F"/>
<path d="M7.86514 9.25397H7.40088V9.71823H7.86514V9.25397Z" fill="#E02F2F"/>
<path d="M9.72219 9.25397H9.25793V9.71823H9.72219V9.25397Z" fill="#E02F2F"/>
<path d="M11.5792 9.25397H11.115V9.71823H11.5792V9.25397Z" fill="#E02F2F"/>
<path d="M12.0435 9.25397H11.5792V9.71823H12.0435V9.25397Z" fill="#E02F2F"/>
<path d="M12.9831 9.25397H12.5188V9.71823H12.9831V9.25397Z" fill="#E02F2F"/>
<path d="M13.9116 9.25397H13.4473V9.71823H13.9116V9.25397Z" fill="#E02F2F"/>
<path d="M14.3758 9.25397H13.9116V9.71823H14.3758V9.25397Z" fill="#E02F2F"/>
<path d="M14.8401 9.25397H14.3759V9.71823H14.8401V9.25397Z" fill="#E02F2F"/>
<path d="M16.2329 9.25397H15.7686V9.71823H16.2329V9.25397Z" fill="#E02F2F"/>
<path d="M16.6971 9.25397H16.2328V9.71823H16.6971V9.25397Z" fill="#E02F2F"/>
<path d="M17.6256 9.25397H17.1614V9.71823H17.6256V9.25397Z" fill="#E02F2F"/>
<path d="M18.0899 9.25397H17.6257V9.71823H18.0899V9.25397Z" fill="#E02F2F"/>
<path d="M5.5328 9.7182H5.06854V10.1825H5.5328V9.7182Z" fill="#E02F2F"/>
<path d="M6.47238 9.7182H6.00812V10.1825H6.47238V9.7182Z" fill="#E02F2F"/>
<path d="M7.4009 9.7182H6.93665V10.1825H7.4009V9.7182Z" fill="#E02F2F"/>
<path d="M8.32943 9.7182H7.86517V10.1825H8.32943V9.7182Z" fill="#E02F2F"/>
<path d="M9.72219 9.7182H9.25793V10.1825H9.72219V9.7182Z" fill="#E02F2F"/>
<path d="M10.1864 9.7182H9.72217V10.1825H10.1864V9.7182Z" fill="#E02F2F"/>
<path d="M10.6507 9.7182H10.1865V10.1825H10.6507V9.7182Z" fill="#E02F2F"/>
<path d="M12.0435 9.7182H11.5792V10.1825H12.0435V9.7182Z" fill="#E02F2F"/>
<path d="M12.9831 9.7182H12.5188V10.1825H12.9831V9.7182Z" fill="#E02F2F"/>
<path d="M14.3758 9.7182H13.9116V10.1825H14.3758V9.7182Z" fill="#E02F2F"/>
<path d="M14.8401 9.7182H14.3759V10.1825H14.8401V9.7182Z" fill="#E02F2F"/>
<path d="M16.2329 9.7182H15.7686V10.1825H16.2329V9.7182Z" fill="#E02F2F"/>
<path d="M17.6256 9.7182H17.1614V10.1825H17.6256V9.7182Z" fill="#E02F2F"/>
<path d="M18.5652 9.7182H18.101V10.1825H18.5652V9.7182Z" fill="#E02F2F"/>
<path d="M19.0295 9.7182H18.5652V10.1825H19.0295V9.7182Z" fill="#E02F2F"/>
<path d="M5.5328 10.1825H5.06854V10.6468H5.5328V10.1825Z" fill="#E02F2F"/>
<path d="M5.99703 10.1825H5.53278V10.6468H5.99703V10.1825Z" fill="#E02F2F"/>
<path d="M6.93661 10.1825H6.47235V10.6468H6.93661V10.1825Z" fill="#E02F2F"/>
<path d="M7.4009 10.1825H6.93665V10.6468H7.4009V10.1825Z" fill="#E02F2F"/>
<path d="M7.86514 10.1825H7.40088V10.6468H7.86514V10.1825Z" fill="#E02F2F"/>
<path d="M8.79367 10.1825H8.32941V10.6468H8.79367V10.1825Z" fill="#E02F2F"/>
<path d="M9.72219 10.1825H9.25793V10.6468H9.72219V10.1825Z" fill="#E02F2F"/>
<path d="M10.6507 10.1825H10.1865V10.6468H10.6507V10.1825Z" fill="#E02F2F"/>
<path d="M11.5792 10.1825H11.115V10.6468H11.5792V10.1825Z" fill="#E02F2F"/>
<path d="M12.0435 10.1825H11.5792V10.6468H12.0435V10.1825Z" fill="#E02F2F"/>
<path d="M12.5188 10.1825H12.0546V10.6468H12.5188V10.1825Z" fill="#E02F2F"/>
<path d="M13.9116 10.1825H13.4473V10.6468H13.9116V10.1825Z" fill="#E02F2F"/>
<path d="M14.3758 10.1825H13.9116V10.6468H14.3758V10.1825Z" fill="#E02F2F"/>
<path d="M14.8401 10.1825H14.3759V10.6468H14.8401V10.1825Z" fill="#E02F2F"/>
<path d="M16.2329 10.1825H15.7686V10.6468H16.2329V10.1825Z" fill="#E02F2F"/>
<path d="M18.5652 10.1825H18.101V10.6468H18.5652V10.1825Z" fill="#E02F2F"/>
<path d="M5.06857 10.6467H4.60431V11.111H5.06857V10.6467Z" fill="#E02F2F"/>
<path d="M7.4009 10.6467H6.93665V11.111H7.4009V10.6467Z" fill="#E02F2F"/>
<path d="M9.25796 10.6467H8.7937V11.111H9.25796V10.6467Z" fill="#E02F2F"/>
<path d="M9.72219 10.6467H9.25793V11.111H9.72219V10.6467Z" fill="#E02F2F"/>
<path d="M10.6507 10.6467H10.1865V11.111H10.6507V10.6467Z" fill="#E02F2F"/>
<path d="M11.5792 10.6467H11.115V11.111H11.5792V10.6467Z" fill="#E02F2F"/>
<path d="M12.0435 10.6467H11.5792V11.111H12.0435V10.6467Z" fill="#E02F2F"/>
<path d="M12.9831 10.6467H12.5188V11.111H12.9831V10.6467Z" fill="#E02F2F"/>
<path d="M13.4473 10.6467H12.983V11.111H13.4473V10.6467Z" fill="#E02F2F"/>
<path d="M13.9116 10.6467H13.4473V11.111H13.9116V10.6467Z" fill="#E02F2F"/>
<path d="M14.8401 10.6467H14.3759V11.111H14.8401V10.6467Z" fill="#E02F2F"/>
<path d="M15.3043 10.6467H14.8401V11.111H15.3043V10.6467Z" fill="#E02F2F"/>
<path d="M15.7686 10.6467H15.3044V11.111H15.7686V10.6467Z" fill="#E02F2F"/>
<path d="M16.6971 10.6467H16.2328V11.111H16.6971V10.6467Z" fill="#E02F2F"/>
<path d="M18.0899 10.6467H17.6257V11.111H18.0899V10.6467Z" fill="#E02F2F"/>
<path d="M18.5652 10.6467H18.101V11.111H18.5652V10.6467Z" fill="#E02F2F"/>
<path d="M19.0295 10.6467H18.5652V11.111H19.0295V10.6467Z" fill="#E02F2F"/>
<path d="M19.4937 10.6467H19.0295V11.111H19.4937V10.6467Z" fill="#E02F2F"/>
<path d="M5.06857 11.111H4.60431V11.5753H5.06857V11.111Z" fill="#E02F2F"/>
<path d="M5.99703 11.111H5.53278V11.5753H5.99703V11.111Z" fill="#E02F2F"/>
<path d="M6.47238 11.111H6.00812V11.5753H6.47238V11.111Z" fill="#E02F2F"/>
<path d="M7.4009 11.111H6.93665V11.5753H7.4009V11.111Z" fill="#E02F2F"/>
<path d="M7.86514 11.111H7.40088V11.5753H7.86514V11.111Z" fill="#E02F2F"/>
<path d="M8.32943 11.111H7.86517V11.5753H8.32943V11.111Z" fill="#E02F2F"/>
<path d="M9.25796 11.111H8.7937V11.5753H9.25796V11.111Z" fill="#E02F2F"/>
<path d="M9.72219 11.111H9.25793V11.5753H9.72219V11.111Z" fill="#E02F2F"/>
<path d="M10.6507 11.111H10.1865V11.5753H10.6507V11.111Z" fill="#E02F2F"/>
<path d="M11.115 11.111H10.6507V11.5753H11.115V11.111Z" fill="#E02F2F"/>
<path d="M12.5188 11.111H12.0546V11.5753H12.5188V11.111Z" fill="#E02F2F"/>
<path d="M12.9831 11.111H12.5188V11.5753H12.9831V11.111Z" fill="#E02F2F"/>
<path d="M13.9116 11.111H13.4473V11.5753H13.9116V11.111Z" fill="#E02F2F"/>
<path d="M14.3758 11.111H13.9116V11.5753H14.3758V11.111Z" fill="#E02F2F"/>
<path d="M14.8401 11.111H14.3759V11.5753H14.8401V11.111Z" fill="#E02F2F"/>
<path d="M16.2329 11.111H15.7686V11.5753H16.2329V11.111Z" fill="#E02F2F"/>
<path d="M16.6971 11.111H16.2328V11.5753H16.6971V11.111Z" fill="#E02F2F"/>
<path d="M17.1614 11.111H16.6971V11.5753H17.1614V11.111Z" fill="#E02F2F"/>
<path d="M17.6256 11.111H17.1614V11.5753H17.6256V11.111Z" fill="#E02F2F"/>
<path d="M18.0899 11.111H17.6257V11.5753H18.0899V11.111Z" fill="#E02F2F"/>
<path d="M18.5652 11.111H18.101V11.5753H18.5652V11.111Z" fill="#E02F2F"/>
<path d="M19.0295 11.111H18.5652V11.5753H19.0295V11.111Z" fill="#E02F2F"/>
<path d="M19.958 11.111H19.4937V11.5753H19.958V11.111Z" fill="#E02F2F"/>
<path d="M5.06857 11.5863H4.60431V12.0506H5.06857V11.5863Z" fill="#E02F2F"/>
<path d="M5.5328 11.5863H5.06854V12.0506H5.5328V11.5863Z" fill="#E02F2F"/>
<path d="M8.79367 11.5863H8.32941V12.0506H8.79367V11.5863Z" fill="#E02F2F"/>
<path d="M9.72219 11.5863H9.25793V12.0506H9.72219V11.5863Z" fill="#E02F2F"/>
<path d="M10.6507 11.5863H10.1865V12.0506H10.6507V11.5863Z" fill="#E02F2F"/>
<path d="M11.5792 11.5863H11.115V12.0506H11.5792V11.5863Z" fill="#E02F2F"/>
<path d="M12.0435 11.5863H11.5792V12.0506H12.0435V11.5863Z" fill="#E02F2F"/>
<path d="M12.9831 11.5863H12.5188V12.0506H12.9831V11.5863Z" fill="#E02F2F"/>
<path d="M14.8401 11.5863H14.3759V12.0506H14.8401V11.5863Z" fill="#E02F2F"/>
<path d="M15.3043 11.5863H14.8401V12.0506H15.3043V11.5863Z" fill="#E02F2F"/>
<path d="M15.7686 11.5863H15.3044V12.0506H15.7686V11.5863Z" fill="#E02F2F"/>
<path d="M16.6971 11.5863H16.2328V12.0506H16.6971V11.5863Z" fill="#E02F2F"/>
<path d="M17.1614 11.5863H16.6971V12.0506H17.1614V11.5863Z" fill="#E02F2F"/>
<path d="M17.6256 11.5863H17.1614V12.0506H17.6256V11.5863Z" fill="#E02F2F"/>
<path d="M18.0899 11.5863H17.6257V12.0506H18.0899V11.5863Z" fill="#E02F2F"/>
<path d="M19.0295 11.5863H18.5652V12.0506H19.0295V11.5863Z" fill="#E02F2F"/>
<path d="M19.4937 11.5863H19.0295V12.0506H19.4937V11.5863Z" fill="#E02F2F"/>
<path d="M19.958 11.5863H19.4937V12.0506H19.958V11.5863Z" fill="#E02F2F"/>
<path d="M5.06857 12.0506H4.60431V12.5149H5.06857V12.0506Z" fill="#E02F2F"/>
<path d="M5.99703 12.0506H5.53278V12.5149H5.99703V12.0506Z" fill="#E02F2F"/>
<path d="M7.86514 12.0506H7.40088V12.5149H7.86514V12.0506Z" fill="#E02F2F"/>
<path d="M9.72219 12.0506H9.25793V12.5149H9.72219V12.0506Z" fill="#E02F2F"/>
<path d="M10.6507 12.0506H10.1865V12.5149H10.6507V12.0506Z" fill="#E02F2F"/>
<path d="M11.115 12.0506H10.6507V12.5149H11.115V12.0506Z" fill="#E02F2F"/>
<path d="M12.0435 12.0506H11.5792V12.5149H12.0435V12.0506Z" fill="#E02F2F"/>
<path d="M13.4473 12.0506H12.983V12.5149H13.4473V12.0506Z" fill="#E02F2F"/>
<path d="M14.3758 12.0506H13.9116V12.5149H14.3758V12.0506Z" fill="#E02F2F"/>
<path d="M15.3043 12.0506H14.8401V12.5149H15.3043V12.0506Z" fill="#E02F2F"/>
<path d="M18.0899 12.0506H17.6257V12.5149H18.0899V12.0506Z" fill="#E02F2F"/>
<path d="M19.0295 12.0506H18.5652V12.5149H19.0295V12.0506Z" fill="#E02F2F"/>
<path d="M19.4937 12.0506H19.0295V12.5149H19.4937V12.0506Z" fill="#E02F2F"/>
<path d="M6.47238 12.5148H6.00812V12.9791H6.47238V12.5148Z" fill="#E02F2F"/>
<path d="M6.93661 12.5148H6.47235V12.9791H6.93661V12.5148Z" fill="#E02F2F"/>
<path d="M7.4009 12.5148H6.93665V12.9791H7.4009V12.5148Z" fill="#E02F2F"/>
<path d="M9.25796 12.5148H8.7937V12.9791H9.25796V12.5148Z" fill="#E02F2F"/>
<path d="M9.72219 12.5148H9.25793V12.9791H9.72219V12.5148Z" fill="#E02F2F"/>
<path d="M10.1864 12.5148H9.72217V12.9791H10.1864V12.5148Z" fill="#E02F2F"/>
<path d="M11.115 12.5148H10.6507V12.9791H11.115V12.5148Z" fill="#E02F2F"/>
<path d="M12.0435 12.5148H11.5792V12.9791H12.0435V12.5148Z" fill="#E02F2F"/>
<path d="M12.9831 12.5148H12.5188V12.9791H12.9831V12.5148Z" fill="#E02F2F"/>
<path d="M13.4473 12.5148H12.983V12.9791H13.4473V12.5148Z" fill="#E02F2F"/>
<path d="M13.9116 12.5148H13.4473V12.9791H13.9116V12.5148Z" fill="#E02F2F"/>
<path d="M16.6971 12.5148H16.2328V12.9791H16.6971V12.5148Z" fill="#E02F2F"/>
<path d="M17.6256 12.5148H17.1614V12.9791H17.6256V12.5148Z" fill="#E02F2F"/>
<path d="M19.4937 12.5148H19.0295V12.9791H19.4937V12.5148Z" fill="#E02F2F"/>
<path d="M19.958 12.5148H19.4937V12.9791H19.958V12.5148Z" fill="#E02F2F"/>
<path d="M5.06857 12.9791H4.60431V13.4434H5.06857V12.9791Z" fill="#E02F2F"/>
<path d="M5.5328 12.9791H5.06854V13.4434H5.5328V12.9791Z" fill="#E02F2F"/>
<path d="M7.4009 12.9791H6.93665V13.4434H7.4009V12.9791Z" fill="#E02F2F"/>
<path d="M7.86514 12.9791H7.40088V13.4434H7.86514V12.9791Z" fill="#E02F2F"/>
<path d="M8.32943 12.9791H7.86517V13.4434H8.32943V12.9791Z" fill="#E02F2F"/>
<path d="M8.79367 12.9791H8.32941V13.4434H8.79367V12.9791Z" fill="#E02F2F"/>
<path d="M9.72219 12.9791H9.25793V13.4434H9.72219V12.9791Z" fill="#E02F2F"/>
<path d="M10.1864 12.9791H9.72217V13.4434H10.1864V12.9791Z" fill="#E02F2F"/>
<path d="M11.115 12.9791H10.6507V13.4434H11.115V12.9791Z" fill="#E02F2F"/>
<path d="M13.4473 12.9791H12.983V13.4434H13.4473V12.9791Z" fill="#E02F2F"/>
<path d="M14.8401 12.9791H14.3759V13.4434H14.8401V12.9791Z" fill="#E02F2F"/>
<path d="M18.5652 12.9791H18.101V13.4434H18.5652V12.9791Z" fill="#E02F2F"/>
<path d="M19.0295 12.9791H18.5652V13.4434H19.0295V12.9791Z" fill="#E02F2F"/>
<path d="M19.4937 12.9791H19.0295V13.4434H19.4937V12.9791Z" fill="#E02F2F"/>
<path d="M5.06857 13.4434H4.60431V13.9076H5.06857V13.4434Z" fill="#E02F2F"/>
<path d="M6.47238 13.4434H6.00812V13.9076H6.47238V13.4434Z" fill="#E02F2F"/>
<path d="M7.4009 13.4434H6.93665V13.9076H7.4009V13.4434Z" fill="#E02F2F"/>
<path d="M8.79367 13.4434H8.32941V13.9076H8.79367V13.4434Z" fill="#E02F2F"/>
<path d="M10.1864 13.4434H9.72217V13.9076H10.1864V13.4434Z" fill="#E02F2F"/>
<path d="M10.6507 13.4434H10.1865V13.9076H10.6507V13.4434Z" fill="#E02F2F"/>
<path d="M11.115 13.4434H10.6507V13.9076H11.115V13.4434Z" fill="#E02F2F"/>
<path d="M12.9831 13.4434H12.5188V13.9076H12.9831V13.4434Z" fill="#E02F2F"/>
<path d="M13.4473 13.4434H12.983V13.9076H13.4473V13.4434Z" fill="#E02F2F"/>
<path d="M13.9116 13.4434H13.4473V13.9076H13.9116V13.4434Z" fill="#E02F2F"/>
<path d="M14.3758 13.4434H13.9116V13.9076H14.3758V13.4434Z" fill="#E02F2F"/>
<path d="M15.7686 13.4434H15.3044V13.9076H15.7686V13.4434Z" fill="#E02F2F"/>
<path d="M17.1614 13.4434H16.6971V13.9076H17.1614V13.4434Z" fill="#E02F2F"/>
<path d="M18.5652 13.4434H18.101V13.9076H18.5652V13.4434Z" fill="#E02F2F"/>
<path d="M19.0295 13.4434H18.5652V13.9076H19.0295V13.4434Z" fill="#E02F2F"/>
<path d="M19.958 13.4434H19.4937V13.9076H19.958V13.4434Z" fill="#E02F2F"/>
<path d="M7.86514 13.9076H7.40088V14.3719H7.86514V13.9076Z" fill="#E02F2F"/>
<path d="M10.1864 13.9076H9.72217V14.3719H10.1864V13.9076Z" fill="#E02F2F"/>
<path d="M10.6507 13.9076H10.1865V14.3719H10.6507V13.9076Z" fill="#E02F2F"/>
<path d="M12.0435 13.9076H11.5792V14.3719H12.0435V13.9076Z" fill="#E02F2F"/>
<path d="M13.9116 13.9076H13.4473V14.3719H13.9116V13.9076Z" fill="#E02F2F"/>
<path d="M15.7686 13.9076H15.3044V14.3719H15.7686V13.9076Z" fill="#E02F2F"/>
<path d="M16.2329 13.9076H15.7686V14.3719H16.2329V13.9076Z" fill="#E02F2F"/>
<path d="M17.1614 13.9076H16.6971V14.3719H17.1614V13.9076Z" fill="#E02F2F"/>
<path d="M17.6256 13.9076H17.1614V14.3719H17.6256V13.9076Z" fill="#E02F2F"/>
<path d="M19.4937 13.9076H19.0295V14.3719H19.4937V13.9076Z" fill="#E02F2F"/>
<path d="M19.958 13.9076H19.4937V14.3719H19.958V13.9076Z" fill="#E02F2F"/>
<path d="M5.5328 14.3719H5.06854V14.8361H5.5328V14.3719Z" fill="#E02F2F"/>
<path d="M6.47238 14.3719H6.00812V14.8361H6.47238V14.3719Z" fill="#E02F2F"/>
<path d="M8.32943 14.3719H7.86517V14.8361H8.32943V14.3719Z" fill="#E02F2F"/>
<path d="M9.25796 14.3719H8.7937V14.8361H9.25796V14.3719Z" fill="#E02F2F"/>
<path d="M9.72219 14.3719H9.25793V14.8361H9.72219V14.3719Z" fill="#E02F2F"/>
<path d="M10.1864 14.3719H9.72217V14.8361H10.1864V14.3719Z" fill="#E02F2F"/>
<path d="M10.6507 14.3719H10.1865V14.8361H10.6507V14.3719Z" fill="#E02F2F"/>
<path d="M12.5188 14.3719H12.0546V14.8361H12.5188V14.3719Z" fill="#E02F2F"/>
<path d="M15.3043 14.3719H14.8401V14.8361H15.3043V14.3719Z" fill="#E02F2F"/>
<path d="M15.7686 14.3719H15.3044V14.8361H15.7686V14.3719Z" fill="#E02F2F"/>
<path d="M16.2329 14.3719H15.7686V14.8361H16.2329V14.3719Z" fill="#E02F2F"/>
<path d="M16.6971 14.3719H16.2328V14.8361H16.6971V14.3719Z" fill="#E02F2F"/>
<path d="M18.5652 14.3719H18.101V14.8361H18.5652V14.3719Z" fill="#E02F2F"/>
<path d="M19.4937 14.3719H19.0295V14.8361H19.4937V14.3719Z" fill="#E02F2F"/>
<path d="M19.958 14.3719H19.4937V14.8361H19.958V14.3719Z" fill="#E02F2F"/>
<path d="M5.06857 14.8361H4.60431V15.3004H5.06857V14.8361Z" fill="#E02F2F"/>
<path d="M5.99703 14.8361H5.53278V15.3004H5.99703V14.8361Z" fill="#E02F2F"/>
<path d="M6.47238 14.8361H6.00812V15.3004H6.47238V14.8361Z" fill="#E02F2F"/>
<path d="M7.86514 14.8361H7.40088V15.3004H7.86514V14.8361Z" fill="#E02F2F"/>
<path d="M8.32943 14.8361H7.86517V15.3004H8.32943V14.8361Z" fill="#E02F2F"/>
<path d="M8.79367 14.8361H8.32941V15.3004H8.79367V14.8361Z" fill="#E02F2F"/>
<path d="M9.25796 14.8361H8.7937V15.3004H9.25796V14.8361Z" fill="#E02F2F"/>
<path d="M10.1864 14.8361H9.72217V15.3004H10.1864V14.8361Z" fill="#E02F2F"/>
<path d="M10.6507 14.8361H10.1865V15.3004H10.6507V14.8361Z" fill="#E02F2F"/>
<path d="M11.5792 14.8361H11.115V15.3004H11.5792V14.8361Z" fill="#E02F2F"/>
<path d="M13.9116 14.8361H13.4473V15.3004H13.9116V14.8361Z" fill="#E02F2F"/>
<path d="M14.3758 14.8361H13.9116V15.3004H14.3758V14.8361Z" fill="#E02F2F"/>
<path d="M15.3043 14.8361H14.8401V15.3004H15.3043V14.8361Z" fill="#E02F2F"/>
<path d="M15.7686 14.8361H15.3044V15.3004H15.7686V14.8361Z" fill="#E02F2F"/>
<path d="M16.2329 14.8361H15.7686V15.3004H16.2329V14.8361Z" fill="#E02F2F"/>
<path d="M16.6971 14.8361H16.2328V15.3004H16.6971V14.8361Z" fill="#E02F2F"/>
<path d="M17.1614 14.8361H16.6971V15.3004H17.1614V14.8361Z" fill="#E02F2F"/>
<path d="M17.6256 14.8361H17.1614V15.3004H17.6256V14.8361Z" fill="#E02F2F"/>
<path d="M18.0899 14.8361H17.6257V15.3004H18.0899V14.8361Z" fill="#E02F2F"/>
<path d="M8.79367 15.3004H8.32941V15.7647H8.79367V15.3004Z" fill="#E02F2F"/>
<path d="M9.25796 15.3004H8.7937V15.7647H9.25796V15.3004Z" fill="#E02F2F"/>
<path d="M9.72219 15.3004H9.25793V15.7647H9.72219V15.3004Z" fill="#E02F2F"/>
<path d="M10.6507 15.3004H10.1865V15.7647H10.6507V15.3004Z" fill="#E02F2F"/>
<path d="M11.5792 15.3004H11.115V15.7647H11.5792V15.3004Z" fill="#E02F2F"/>
<path d="M12.0435 15.3004H11.5792V15.7647H12.0435V15.3004Z" fill="#E02F2F"/>
<path d="M12.5188 15.3004H12.0546V15.7647H12.5188V15.3004Z" fill="#E02F2F"/>
<path d="M12.9831 15.3004H12.5188V15.7647H12.9831V15.3004Z" fill="#E02F2F"/>
<path d="M13.9116 15.3004H13.4473V15.7647H13.9116V15.3004Z" fill="#E02F2F"/>
<path d="M14.3758 15.3004H13.9116V15.7647H14.3758V15.3004Z" fill="#E02F2F"/>
<path d="M14.8401 15.3004H14.3759V15.7647H14.8401V15.3004Z" fill="#E02F2F"/>
<path d="M15.7686 15.3004H15.3044V15.7647H15.7686V15.3004Z" fill="#E02F2F"/>
<path d="M16.2329 15.3004H15.7686V15.7647H16.2329V15.3004Z" fill="#E02F2F"/>
<path d="M18.0899 15.3004H17.6257V15.7647H18.0899V15.3004Z" fill="#E02F2F"/>
<path d="M19.0295 15.3004H18.5652V15.7647H19.0295V15.3004Z" fill="#E02F2F"/>
<path d="M19.4937 15.3004H19.0295V15.7647H19.4937V15.3004Z" fill="#E02F2F"/>
<path d="M8.79367 15.7646H8.32941V16.2289H8.79367V15.7646Z" fill="#E02F2F"/>
<path d="M10.6507 15.7646H10.1865V16.2289H10.6507V15.7646Z" fill="#E02F2F"/>
<path d="M11.115 15.7646H10.6507V16.2289H11.115V15.7646Z" fill="#E02F2F"/>
<path d="M12.0435 15.7646H11.5792V16.2289H12.0435V15.7646Z" fill="#E02F2F"/>
<path d="M14.3758 15.7646H13.9116V16.2289H14.3758V15.7646Z" fill="#E02F2F"/>
<path d="M14.8401 15.7646H14.3759V16.2289H14.8401V15.7646Z" fill="#E02F2F"/>
<path d="M15.7686 15.7646H15.3044V16.2289H15.7686V15.7646Z" fill="#E02F2F"/>
<path d="M16.2329 15.7646H15.7686V16.2289H16.2329V15.7646Z" fill="#E02F2F"/>
<path d="M17.1614 15.7646H16.6971V16.2289H17.1614V15.7646Z" fill="#E02F2F"/>
<path d="M18.0899 15.7646H17.6257V16.2289H18.0899V15.7646Z" fill="#E02F2F"/>
<path d="M18.5652 15.7646H18.101V16.2289H18.5652V15.7646Z" fill="#E02F2F"/>
<path d="M19.0295 15.7646H18.5652V16.2289H19.0295V15.7646Z" fill="#E02F2F"/>
<path d="M9.72219 16.2289H9.25793V16.6932H9.72219V16.2289Z" fill="#E02F2F"/>
<path d="M10.1864 16.2289H9.72217V16.6932H10.1864V16.2289Z" fill="#E02F2F"/>
<path d="M11.5792 16.2289H11.115V16.6932H11.5792V16.2289Z" fill="#E02F2F"/>
<path d="M12.5188 16.2289H12.0546V16.6932H12.5188V16.2289Z" fill="#E02F2F"/>
<path d="M12.9831 16.2289H12.5188V16.6932H12.9831V16.2289Z" fill="#E02F2F"/>
<path d="M13.4473 16.2289H12.983V16.6932H13.4473V16.2289Z" fill="#E02F2F"/>
<path d="M13.9116 16.2289H13.4473V16.6932H13.9116V16.2289Z" fill="#E02F2F"/>
<path d="M15.7686 16.2289H15.3044V16.6932H15.7686V16.2289Z" fill="#E02F2F"/>
<path d="M16.2329 16.2289H15.7686V16.6932H16.2329V16.2289Z" fill="#E02F2F"/>
<path d="M18.0899 16.2289H17.6257V16.6932H18.0899V16.2289Z" fill="#E02F2F"/>
<path d="M18.5652 16.2289H18.101V16.6932H18.5652V16.2289Z" fill="#E02F2F"/>
<path d="M19.0295 16.2289H18.5652V16.6932H19.0295V16.2289Z" fill="#E02F2F"/>
<path d="M19.4937 16.2289H19.0295V16.6932H19.4937V16.2289Z" fill="#E02F2F"/>
<path d="M19.958 16.2289H19.4937V16.6932H19.958V16.2289Z" fill="#E02F2F"/>
<path d="M9.25796 16.6932H8.7937V17.1574H9.25796V16.6932Z" fill="#E02F2F"/>
<path d="M10.1864 16.6932H9.72217V17.1574H10.1864V16.6932Z" fill="#E02F2F"/>
<path d="M10.6507 16.6932H10.1865V17.1574H10.6507V16.6932Z" fill="#E02F2F"/>
<path d="M11.5792 16.6932H11.115V17.1574H11.5792V16.6932Z" fill="#E02F2F"/>
<path d="M12.9831 16.6932H12.5188V17.1574H12.9831V16.6932Z" fill="#E02F2F"/>
<path d="M13.4473 16.6932H12.983V17.1574H13.4473V16.6932Z" fill="#E02F2F"/>
<path d="M15.3043 16.6932H14.8401V17.1574H15.3043V16.6932Z" fill="#E02F2F"/>
<path d="M15.7686 16.6932H15.3044V17.1574H15.7686V16.6932Z" fill="#E02F2F"/>
<path d="M16.2329 16.6932H15.7686V17.1574H16.2329V16.6932Z" fill="#E02F2F"/>
<path d="M16.6971 16.6932H16.2328V17.1574H16.6971V16.6932Z" fill="#E02F2F"/>
<path d="M17.1614 16.6932H16.6971V17.1574H17.1614V16.6932Z" fill="#E02F2F"/>
<path d="M17.6256 16.6932H17.1614V17.1574H17.6256V16.6932Z" fill="#E02F2F"/>
<path d="M18.0899 16.6932H17.6257V17.1574H18.0899V16.6932Z" fill="#E02F2F"/>
<path d="M19.0295 16.6932H18.5652V17.1574H19.0295V16.6932Z" fill="#E02F2F"/>
<path d="M19.4937 16.6932H19.0295V17.1574H19.4937V16.6932Z" fill="#E02F2F"/>
<path d="M8.79367 17.1574H8.32941V17.6217H8.79367V17.1574Z" fill="#E02F2F"/>
<path d="M10.1864 17.1574H9.72217V17.6217H10.1864V17.1574Z" fill="#E02F2F"/>
<path d="M10.6507 17.1574H10.1865V17.6217H10.6507V17.1574Z" fill="#E02F2F"/>
<path d="M11.115 17.1574H10.6507V17.6217H11.115V17.1574Z" fill="#E02F2F"/>
<path d="M11.5792 17.1574H11.115V17.6217H11.5792V17.1574Z" fill="#E02F2F"/>
<path d="M12.0435 17.1574H11.5792V17.6217H12.0435V17.1574Z" fill="#E02F2F"/>
<path d="M12.5188 17.1574H12.0546V17.6217H12.5188V17.1574Z" fill="#E02F2F"/>
<path d="M13.4473 17.1574H12.983V17.6217H13.4473V17.1574Z" fill="#E02F2F"/>
<path d="M15.3043 17.1574H14.8401V17.6217H15.3043V17.1574Z" fill="#E02F2F"/>
<path d="M17.6256 17.1574H17.1614V17.6217H17.6256V17.1574Z" fill="#E02F2F"/>
<path d="M18.5652 17.1574H18.101V17.6217H18.5652V17.1574Z" fill="#E02F2F"/>
<path d="M19.0295 17.1574H18.5652V17.6217H19.0295V17.1574Z" fill="#E02F2F"/>
<path d="M19.4937 17.1574H19.0295V17.6217H19.4937V17.1574Z" fill="#E02F2F"/>
<path d="M19.958 17.1574H19.4937V17.6217H19.958V17.1574Z" fill="#E02F2F"/>
<path d="M8.79367 17.6328H8.32941V18.097H8.79367V17.6328Z" fill="#E02F2F"/>
<path d="M9.25796 17.6328H8.7937V18.097H9.25796V17.6328Z" fill="#E02F2F"/>
<path d="M9.72219 17.6328H9.25793V18.097H9.72219V17.6328Z" fill="#E02F2F"/>
<path d="M10.6507 17.6328H10.1865V18.097H10.6507V17.6328Z" fill="#E02F2F"/>
<path d="M11.5792 17.6328H11.115V18.097H11.5792V17.6328Z" fill="#E02F2F"/>
<path d="M12.0435 17.6328H11.5792V18.097H12.0435V17.6328Z" fill="#E02F2F"/>
<path d="M12.5188 17.6328H12.0546V18.097H12.5188V17.6328Z" fill="#E02F2F"/>
<path d="M13.4473 17.6328H12.983V18.097H13.4473V17.6328Z" fill="#E02F2F"/>
<path d="M14.8401 17.6328H14.3759V18.097H14.8401V17.6328Z" fill="#E02F2F"/>
<path d="M15.3043 17.6328H14.8401V18.097H15.3043V17.6328Z" fill="#E02F2F"/>
<path d="M15.7686 17.6328H15.3044V18.097H15.7686V17.6328Z" fill="#E02F2F"/>
<path d="M16.6971 17.6328H16.2328V18.097H16.6971V17.6328Z" fill="#E02F2F"/>
<path d="M17.1614 17.6328H16.6971V18.097H17.1614V17.6328Z" fill="#E02F2F"/>
<path d="M9.72219 18.097H9.25793V18.5612H9.72219V18.097Z" fill="#E02F2F"/>
<path d="M10.6507 18.097H10.1865V18.5612H10.6507V18.097Z" fill="#E02F2F"/>
<path d="M11.115 18.097H10.6507V18.5612H11.115V18.097Z" fill="#E02F2F"/>
<path d="M12.0435 18.097H11.5792V18.5612H12.0435V18.097Z" fill="#E02F2F"/>
<path d="M14.3758 18.097H13.9116V18.5612H14.3758V18.097Z" fill="#E02F2F"/>
<path d="M14.8401 18.097H14.3759V18.5612H14.8401V18.097Z" fill="#E02F2F"/>
<path d="M15.7686 18.097H15.3044V18.5612H15.7686V18.097Z" fill="#E02F2F"/>
<path d="M16.2329 18.097H15.7686V18.5612H16.2329V18.097Z" fill="#E02F2F"/>
<path d="M18.5652 18.097H18.101V18.5612H18.5652V18.097Z" fill="#E02F2F"/>
<path d="M19.958 18.097H19.4937V18.5612H19.958V18.097Z" fill="#E02F2F"/>
<path d="M9.72219 18.5612H9.25793V19.0255H9.72219V18.5612Z" fill="#E02F2F"/>
<path d="M10.6507 18.5612H10.1865V19.0255H10.6507V18.5612Z" fill="#E02F2F"/>
<path d="M11.115 18.5612H10.6507V19.0255H11.115V18.5612Z" fill="#E02F2F"/>
<path d="M11.5792 18.5612H11.115V19.0255H11.5792V18.5612Z" fill="#E02F2F"/>
<path d="M12.0435 18.5612H11.5792V19.0255H12.0435V18.5612Z" fill="#E02F2F"/>
<path d="M12.5188 18.5612H12.0546V19.0255H12.5188V18.5612Z" fill="#E02F2F"/>
<path d="M12.9831 18.5612H12.5188V19.0255H12.9831V18.5612Z" fill="#E02F2F"/>
<path d="M13.4473 18.5612H12.983V19.0255H13.4473V18.5612Z" fill="#E02F2F"/>
<path d="M13.9116 18.5612H13.4473V19.0255H13.9116V18.5612Z" fill="#E02F2F"/>
<path d="M14.3758 18.5612H13.9116V19.0255H14.3758V18.5612Z" fill="#E02F2F"/>
<path d="M14.8401 18.5612H14.3759V19.0255H14.8401V18.5612Z" fill="#E02F2F"/>
<path d="M15.3043 18.5612H14.8401V19.0255H15.3043V18.5612Z" fill="#E02F2F"/>
<path d="M15.7686 18.5612H15.3044V19.0255H15.7686V18.5612Z" fill="#E02F2F"/>
<path d="M17.1614 18.5612H16.6971V19.0255H17.1614V18.5612Z" fill="#E02F2F"/>
<path d="M17.6256 18.5612H17.1614V19.0255H17.6256V18.5612Z" fill="#E02F2F"/>
<path d="M18.0899 18.5612H17.6257V19.0255H18.0899V18.5612Z" fill="#E02F2F"/>
<path d="M19.0295 18.5612H18.5652V19.0255H19.0295V18.5612Z" fill="#E02F2F"/>
<path d="M4.60425 3.67181V6.93268H7.86511V3.67181H4.60425ZM7.37875 6.44631H5.09061V4.15818H7.36769V6.44631H7.37875Z" fill="#E02F2F"/>
<path d="M16.6971 3.67181V6.93268H19.958V3.67181H16.6971ZM19.4716 6.44631H17.1946V4.15818H19.4716V6.44631Z" fill="#E02F2F"/>
<path d="M4.60431 15.7646V19.0255H7.86517V15.7646H4.60431ZM7.37881 18.5391H5.09068V16.251H7.36775V18.5391H7.37881Z" fill="#E02F2F"/>
<path d="M6.92555 4.60034H5.53278V5.99312H6.92555V4.60034Z" fill="#E02F2F"/>
<path d="M19.0184 4.60034H17.6257V5.99312H19.0184V4.60034Z" fill="#E02F2F"/>
<path d="M6.92555 16.6932H5.53278V18.086H6.92555V16.6932Z" fill="#E02F2F"/>
<path d="M12.2866 14.6703C14.118 14.6703 15.6027 13.1856 15.6027 11.3542C15.6027 9.52271 14.118 8.03802 12.2866 8.03802C10.4551 8.03802 8.97046 9.52271 8.97046 11.3542C8.97046 13.1856 10.4551 14.6703 12.2866 14.6703Z" fill="white"/>
<path d="M12.2866 14.4382C10.5844 14.4382 9.19158 13.0564 9.19158 11.3431C9.19158 9.64081 10.5733 8.24804 12.2866 8.24804C14 8.24804 15.3817 9.62976 15.3817 11.3431C15.3706 13.0564 13.9889 14.4382 12.2866 14.4382ZM12.2866 7.94958C10.4075 7.94958 8.89313 9.47501 8.89313 11.3431C8.89313 13.2222 10.4185 14.7366 12.2866 14.7366C14.1547 14.7366 15.6801 13.2112 15.6801 11.3431C15.6801 9.47501 14.1547 7.94958 12.2866 7.94958Z" fill="#E02F2F"/>
<path d="M10.8828 10.4257C10.9602 10.4257 11.0376 10.4257 11.126 10.4257H11.1924C11.3139 10.4257 11.4466 10.4257 11.5682 10.4257C11.7229 10.4257 11.8887 10.4257 12.0435 10.4257C12.1982 10.4257 12.3641 10.4257 12.5188 10.4257H12.6183C12.7067 10.4257 12.7951 10.4257 12.8394 10.4699C12.8725 10.492 12.8946 10.5362 12.9167 10.5804C12.961 10.6689 13.0052 10.7462 13.0494 10.8347C12.7509 10.8347 12.4414 10.8347 12.143 10.8347C11.745 10.8347 11.336 10.8347 10.9381 10.8236H10.8718C10.7613 10.8236 10.6507 10.8236 10.5402 10.8568C10.308 10.9231 10.1533 11.0889 10.1312 11.2989C10.1201 11.4316 10.1865 11.6195 10.2859 11.719C10.3744 11.8074 10.4517 11.8295 10.507 11.8295C11.0155 11.8295 11.524 11.8295 12.0214 11.8295H13.0273C13.1047 11.8295 13.1489 11.8627 13.1931 11.929C13.2373 12.0064 13.2815 12.0948 13.3257 12.1722L13.3589 12.2385H12.143H10.905C10.8607 12.2385 10.7834 12.2385 10.7391 12.3159C10.6949 12.3933 10.7281 12.4596 10.7613 12.4927L10.8497 12.6475L11.0155 12.9349C11.126 13.1339 11.3139 13.2444 11.5461 13.2444C11.8998 13.2444 12.2646 13.2444 12.6183 13.2444H13.2815H13.8784L13.8674 13.2554C13.8121 13.3549 13.7568 13.4544 13.7016 13.5539C13.6684 13.6202 13.6131 13.6423 13.5468 13.6423C13.3257 13.6423 13.1047 13.6423 12.8836 13.6423H12.4414H11.9993H11.5019C11.1923 13.6423 10.9381 13.5207 10.7502 13.2665C10.6839 13.1781 10.6286 13.0896 10.5733 12.9902C10.5512 12.957 10.5402 12.9238 10.5181 12.8907C10.297 12.5038 10.0759 12.128 9.91011 11.8406C9.79957 11.6527 9.74431 11.4647 9.75536 11.2658C9.77747 10.9452 9.96538 10.6578 10.2528 10.5141C10.4517 10.4367 10.6839 10.4257 10.8828 10.4257ZM10.8828 10.282C10.6397 10.282 10.4075 10.3041 10.1975 10.4036C9.87695 10.5694 9.65587 10.901 9.63377 11.2658C9.62271 11.4979 9.67798 11.719 9.79957 11.9179C10.0096 12.2717 10.2086 12.6143 10.4075 12.9681C10.4849 13.1007 10.5512 13.2333 10.6397 13.3549C10.8607 13.6313 11.1481 13.786 11.5019 13.786C11.6677 13.786 11.8335 13.786 11.9993 13.786C12.2977 13.786 12.5962 13.786 12.8946 13.786C13.1157 13.786 13.3368 13.786 13.5579 13.786C13.6794 13.786 13.7679 13.7308 13.8342 13.6313C13.9005 13.5207 13.9558 13.4102 14.0221 13.2997C14.0884 13.1781 14.0553 13.1117 13.9116 13.1117C13.4805 13.1117 13.0604 13.1117 12.6293 13.1117C12.2756 13.1117 11.9108 13.1117 11.5571 13.1117C11.3692 13.1117 11.2366 13.0344 11.1481 12.8686C11.0597 12.7249 10.9823 12.5701 10.8939 12.4264C10.8607 12.3711 10.8607 12.3711 10.9271 12.3711C11.3471 12.3711 11.7671 12.3711 12.1982 12.3711C12.6072 12.3711 13.0273 12.3711 13.4363 12.3711C13.4473 12.3711 13.4473 12.3711 13.4584 12.3711C13.4694 12.3711 13.4805 12.3711 13.4915 12.3711C13.5468 12.3711 13.58 12.3269 13.5689 12.2717C13.5689 12.2496 13.5579 12.2274 13.5468 12.2164C13.4805 12.0948 13.4142 11.9732 13.3478 11.8627C13.2815 11.7632 13.1931 11.6969 13.0715 11.6969C12.2314 11.6969 11.3913 11.6969 10.5512 11.6969C10.3965 11.6969 10.297 11.4316 10.308 11.31C10.3191 11.1442 10.4628 11.0336 10.6176 10.9894C10.717 10.9673 10.8165 10.9563 10.916 10.9563C10.9381 10.9563 10.9602 10.9563 10.9823 10.9563C11.3803 10.9563 11.7893 10.9673 12.1872 10.9673C12.4967 10.9673 12.8062 10.9673 13.1157 10.9673C13.171 10.9673 13.2484 10.9563 13.2594 10.901C13.2594 10.8789 13.2484 10.8568 13.2373 10.8347C13.182 10.7241 13.1268 10.6246 13.0715 10.5141C13.0383 10.4588 13.0052 10.4036 12.961 10.3594C12.8725 10.293 12.762 10.293 12.6514 10.293C12.6183 10.293 12.5851 10.293 12.552 10.293C12.2314 10.293 11.9108 10.3041 11.5903 10.3041C11.4687 10.3041 11.336 10.3041 11.2145 10.3041C11.0929 10.293 10.9823 10.282 10.8828 10.282Z" fill="#E02F2F"/>
<path d="M12.6182 13.377C12.2645 13.377 11.8997 13.377 11.546 13.377C11.2586 13.377 11.0265 13.2444 10.8938 13.0012L10.728 12.7027L10.6506 12.559C10.6285 12.5148 10.5512 12.3822 10.6396 12.2385C10.717 12.0948 10.8717 12.0948 10.927 12.0948H12.1982H13.182C13.1599 12.0616 13.1377 12.0174 13.1156 11.9842C13.1046 11.9621 13.0935 11.9511 13.0714 11.9511H12.0655C11.5571 11.9511 11.0486 11.9511 10.5512 11.9511C10.4627 11.9511 10.3411 11.929 10.2306 11.7963C10.109 11.6637 10.0206 11.4315 10.0427 11.2657C10.0648 11.0005 10.2527 10.7794 10.5512 10.702C10.6838 10.6688 10.8054 10.6578 10.9159 10.6578H10.9823C11.3802 10.6578 11.7781 10.6688 12.1871 10.6688C12.4193 10.6688 12.6403 10.6688 12.8725 10.6688C12.8614 10.6467 12.8503 10.6357 12.8393 10.6136C12.8282 10.5915 12.8061 10.5583 12.7951 10.5472C12.773 10.5362 12.6845 10.5362 12.6514 10.5362H12.5519C12.3971 10.5362 12.2313 10.5362 12.0766 10.5362C11.9108 10.5362 11.756 10.5362 11.5902 10.5362C11.4576 10.5362 11.336 10.5362 11.2033 10.5362H11.137C11.0596 10.5362 10.9823 10.5362 10.9049 10.5362C10.717 10.5362 10.5069 10.5472 10.3301 10.6357C10.098 10.7573 9.93215 11.0005 9.91004 11.2768C9.89899 11.4426 9.94321 11.6084 10.0427 11.7742C10.2085 12.0616 10.4406 12.4374 10.6506 12.8354C10.6728 12.8685 10.6838 12.9017 10.7059 12.9349C10.7612 13.0343 10.8054 13.1228 10.8607 13.2002C11.0375 13.4212 11.2365 13.5207 11.5128 13.5207H12.0103H12.4524H12.8946C13.1156 13.5207 13.3367 13.5207 13.5578 13.5207C13.5799 13.5207 13.5799 13.5207 13.591 13.4986C13.6131 13.4654 13.6352 13.4212 13.6573 13.3881H13.2925L12.6182 13.377Z" fill="#E02F2F"/>
<path d="M12.1872 11.5753C12.0435 11.3321 11.8998 11.0779 11.7561 10.8347C11.745 10.8236 11.745 10.8126 11.734 10.8015C11.6566 10.6799 11.5903 10.5473 11.5129 10.4257C11.5018 10.4147 11.5018 10.4036 11.4908 10.3925C11.4245 10.271 11.3581 10.1604 11.2808 10.0388C11.2808 10.0278 11.2697 10.0278 11.2697 10.0167C11.2697 10.0167 11.2697 10.0167 11.2697 10.0057C11.126 9.76248 10.9823 9.50825 10.8386 9.26506C10.8054 9.22085 10.7612 9.15452 10.706 9.17663C10.6839 9.18769 10.6728 9.20979 10.6507 9.2319C10.5844 9.33139 10.518 9.43087 10.4628 9.53035C10.4296 9.58562 10.3965 9.64089 10.3854 9.70721C10.3743 9.81775 10.4296 9.91724 10.4738 10.0057C10.5291 10.1051 10.5954 10.2046 10.6507 10.3041C10.6617 10.3152 10.6728 10.3373 10.6728 10.3483C10.7391 10.4589 10.8054 10.5694 10.8718 10.6799C10.8828 10.7021 10.9049 10.7352 10.916 10.7573C10.9823 10.8679 11.0486 10.9784 11.115 11.0889C11.126 11.111 11.1371 11.1221 11.1481 11.1442C11.2144 11.2547 11.2808 11.3653 11.3471 11.4758C11.3581 11.4979 11.3692 11.5311 11.3913 11.5532C11.4466 11.6416 11.5018 11.7411 11.5571 11.8295C11.5682 11.8406 11.5792 11.8627 11.5792 11.8738C11.6455 11.9843 11.7119 12.0948 11.7782 12.2054L12.364 11.8627C12.3198 11.7853 12.2535 11.6858 12.1872 11.5753Z" fill="#E02F2F"/>
<path d="M14.7959 10.7462C14.5859 10.3925 14.3869 10.0498 14.1879 9.69609C14.1106 9.56345 14.0442 9.4308 13.9558 9.30921C13.7347 9.03287 13.4473 8.87811 13.0936 8.87811C12.4083 8.87811 11.734 8.87811 11.0487 8.87811C10.9271 8.87811 10.8386 8.93338 10.7723 9.03287C10.706 9.1434 10.6507 9.25394 10.5844 9.36448C10.5181 9.48607 10.5512 9.55239 10.6949 9.55239C11.4798 9.55239 12.2646 9.55239 13.0494 9.55239C13.2373 9.55239 13.37 9.62977 13.4694 9.79558C13.5579 9.93928 13.6352 10.094 13.7237 10.2377C13.7568 10.293 13.7568 10.293 13.6905 10.293C13.3368 10.293 12.9941 10.293 12.6404 10.293C12.5188 10.293 12.3972 10.293 12.2867 10.293C12.2646 10.293 12.2535 10.293 12.2314 10.293C12.1761 10.293 12.143 10.3372 12.154 10.3925C12.154 10.4146 12.1651 10.4367 12.1761 10.4477C12.2425 10.5693 12.3088 10.6909 12.3751 10.8015C12.4414 10.901 12.5299 10.9673 12.6515 10.9673C12.8504 10.9673 13.0494 10.9673 13.2594 10.9673C13.5247 10.9673 13.801 10.9673 14.0663 10.9673C14.2211 10.9673 14.3206 11.2326 14.3095 11.3542C14.2985 11.52 14.1548 11.6305 14 11.6747C13.8784 11.7079 13.7568 11.7079 13.6352 11.7079C13.381 11.7079 13.1378 11.7079 12.8836 11.7079C12.4856 11.7079 12.0877 11.7079 11.6898 11.7079C11.6345 11.7079 11.5571 11.7189 11.5461 11.7742C11.5461 11.7963 11.5571 11.8184 11.5682 11.8405C11.6235 11.9511 11.6787 12.0505 11.734 12.1611C11.7672 12.2164 11.8003 12.2716 11.8445 12.3158C11.933 12.3822 12.0435 12.3822 12.154 12.3822C12.3972 12.3822 12.6404 12.3822 12.8836 12.3711C13.0494 12.3711 13.2263 12.3711 13.3921 12.3711C13.7347 12.3822 14.0884 12.4043 14.398 12.2495C14.7185 12.0837 14.9396 11.7521 14.9617 11.3873C14.9838 11.1662 14.9175 10.9452 14.7959 10.7462Z" fill="#E02F2F"/>
<path d="M23.1967 20.6173L20.7981 18.1854V18.1965C20.7981 19.1139 20.0575 19.8545 19.14 19.8545H19.0737L21.4944 22.2753C22.224 21.9216 22.8209 21.3358 23.1967 20.6173Z" fill="#E02F2F"/>
<path d="M18.2226 19.8656H5.43334C4.51587 19.8656 3.77527 19.125 3.77527 18.2075V4.50084C3.77527 3.58338 4.51587 2.84277 5.43334 2.84277H19.14C20.0575 2.84277 20.7981 3.58338 20.7981 4.50084V17.3564L23.4399 20.0314C23.5615 19.6556 23.6279 19.2576 23.6279 18.8486V3.84867C23.6279 1.72634 21.9035 0.00195312 19.7811 0.00195312H4.78116C2.65884 0.00195312 0.934448 1.72634 0.934448 3.84867V18.8376C0.934448 20.9599 2.65884 22.6843 4.78116 22.6843H19.7701C20.157 22.6843 20.5328 22.629 20.8865 22.5185L18.2226 19.8656Z" fill="#E02F2F"/>
</svg>
