<svg width="13" height="15" viewBox="0 0 13 15" fill="none" xmlns="http://www.w3.org/2000/svg">
<path d="M0.565875 12.2249C0.674974 12.4755 0.923392 12.6366 1.19671 12.6339H3.88853C4.00931 13.6836 4.89798 14.4759 5.95458 14.4759C7.01118 14.4759 7.89985 13.6836 8.02064 12.6339H10.7124C10.9858 12.6366 11.2342 12.4755 11.3433 12.2249C11.4576 11.9697 11.4083 11.6708 11.218 11.4658C10.5729 10.773 10.1834 9.88081 10.114 8.93669V7.72446C10.1274 7.69254 10.1371 7.65921 10.1431 7.6251L10.3152 6.5908C10.4137 6.54301 10.509 6.48899 10.6006 6.42905L11.5804 6.79692C11.7916 6.87617 12.0292 6.79079 12.1417 6.59519L12.6426 5.73235C12.7525 5.53592 12.7068 5.28912 12.534 5.14495L11.7232 4.4813C11.7266 4.42654 11.7315 4.372 11.7315 4.31631C11.7315 4.26062 11.7266 4.20609 11.7232 4.15133L12.5361 3.48606C12.7083 3.34052 12.7522 3.09298 12.6408 2.89704L12.1435 2.03952C12.0317 1.84251 11.7935 1.75563 11.5811 1.83432L10.6006 2.20243C10.509 2.14249 10.4137 2.08846 10.3152 2.04067L10.1433 1.00707C10.1074 0.782683 9.9137 0.617693 9.68647 0.617934H8.69284C8.46603 0.616982 8.2723 0.7813 8.23623 1.00522L8.06408 2.03952C7.96558 2.08768 7.87025 2.14209 7.7787 2.20243L6.79893 1.83455C6.58768 1.7552 6.35005 1.84061 6.23765 2.03628L6.11841 2.24171C6.06365 2.2394 6.00958 2.23547 5.95458 2.23547C5.48197 2.23637 5.01301 2.31836 4.56812 2.47787C4.56812 2.47417 4.56812 2.47047 4.56812 2.46655C4.56889 1.70114 5.18918 1.08085 5.95458 1.08009C6.37798 1.07833 6.77837 1.27259 7.03902 1.60625C7.11776 1.70669 7.26302 1.72427 7.36345 1.64553C7.46389 1.56679 7.48148 1.42154 7.40274 1.3211C7.05476 0.875337 6.52008 0.615715 5.95458 0.617934C4.9341 0.61908 4.10711 1.44606 4.10597 2.46655C4.10599 2.53418 4.10977 2.60176 4.11729 2.66897C2.69747 3.36803 1.79738 4.81226 1.7952 6.39485V8.93669C1.72819 9.88172 1.33819 10.7749 0.690657 11.4665C0.500655 11.6714 0.451526 11.97 0.565875 12.2249ZM5.95458 14.0204C5.15084 14.0194 4.46935 13.4293 4.35345 12.6339H7.55571C7.43981 13.4293 6.75832 14.0194 5.95458 14.0204ZM9.68647 7.55023H8.69284L8.56413 6.77659C8.97464 6.88504 9.40628 6.88504 9.81679 6.77659L9.68647 7.55023ZM7.37085 6.08705L6.63741 6.36203L6.13782 5.50151L6.74533 5.00446C6.86032 5.41183 7.07535 5.78398 7.37085 6.08705ZM7.10996 4.31516C7.10996 3.16658 8.04107 2.23547 9.18965 2.23547C10.3382 2.23547 11.2693 3.16658 11.2693 4.31516C11.2693 5.46374 10.3382 6.39485 9.18965 6.39485C8.04165 6.39345 7.11136 5.46316 7.10996 4.31516ZM12.241 5.50243L11.7435 6.36342L11.0082 6.08613C11.3038 5.78307 11.5189 5.41092 11.634 5.00354L12.241 5.50243ZM11.7419 2.26736L12.2415 3.12789L11.634 3.62493C11.519 3.21757 11.304 2.84542 11.0085 2.54234L11.7419 2.26736ZM8.69284 1.08009H9.68647L9.81518 1.85373C9.40466 1.74528 8.97302 1.74528 8.56251 1.85373L8.69284 1.08009ZM7.37108 2.54303C7.07552 2.8461 6.86041 3.21824 6.74533 3.62563L6.13944 3.12789L6.44677 2.59641C6.45233 2.58816 6.45727 2.57951 6.46156 2.57053L6.63695 2.26713L7.37108 2.54303ZM1.03265 11.7789C1.76074 11.0039 2.19411 9.99818 2.25736 8.93669V6.39485C2.26041 4.39531 3.85188 2.76014 5.8506 2.70294L5.73668 2.89912C5.62684 3.09555 5.67247 3.34235 5.84528 3.48652L6.65613 4.15017C6.65266 4.20494 6.64781 4.25947 6.64781 4.31516C6.64781 4.37085 6.65266 4.42538 6.65613 4.48015L5.8432 5.14542C5.67105 5.29095 5.62706 5.5385 5.73852 5.73443L6.2358 6.5908C6.31784 6.73577 6.47154 6.82538 6.63811 6.82534C6.69282 6.82538 6.74709 6.81544 6.79824 6.796L7.7787 6.42789C7.87028 6.48783 7.96561 6.54186 8.06408 6.58965L8.236 7.62325C8.2719 7.84763 8.4656 8.01262 8.69284 8.01238H9.65181V8.93669C9.71536 9.99756 10.1487 11.0026 10.8765 11.7771C10.9425 11.8472 10.96 11.9501 10.9206 12.038C10.8854 12.1211 10.8029 12.1742 10.7127 12.1718H1.19671C1.10648 12.1742 1.02397 12.1211 0.988745 12.038C0.950017 11.9506 0.967309 11.8486 1.03265 11.7789Z" fill="#F24E4E"/>
<path d="M2.02697 11.7097H2.95128C3.0789 11.7097 3.18236 11.6063 3.18236 11.4786C3.18236 11.351 3.0789 11.2476 2.95128 11.2476H2.02697C1.89935 11.2476 1.7959 11.351 1.7959 11.4786C1.7959 11.6063 1.89935 11.7097 2.02697 11.7097Z" fill="#F24E4E"/>
<path d="M3.64453 11.4786C3.64453 11.6063 3.74799 11.7097 3.87561 11.7097H9.8836C10.0112 11.7097 10.1147 11.6063 10.1147 11.4786C10.1147 11.351 10.0112 11.2476 9.8836 11.2476H3.87561C3.74799 11.2476 3.64453 11.351 3.64453 11.4786Z" fill="#F24E4E"/>
<path d="M2.95081 6.626C3.07843 6.626 3.18188 6.52254 3.18188 6.39492C3.18081 5.55231 3.56439 4.75528 4.22358 4.23043C4.28975 4.17937 4.32319 4.09655 4.31102 4.01385C4.29886 3.93115 4.24298 3.86148 4.1649 3.83164C4.08683 3.8018 3.99872 3.81645 3.9345 3.86995C3.16555 4.48219 2.71821 5.41201 2.71973 6.39492C2.71973 6.45621 2.74408 6.51498 2.78741 6.55832C2.83075 6.60166 2.88952 6.626 2.95081 6.626Z" fill="#F24E4E"/>
<path d="M10.3459 4.31529C10.3459 3.67719 9.82864 3.15991 9.19054 3.15991C8.55244 3.15991 8.03516 3.67719 8.03516 4.31529C8.03516 4.9534 8.55244 5.47068 9.19054 5.47068C9.82832 5.46991 10.3452 4.95308 10.3459 4.31529ZM8.49731 4.31529C8.49731 3.93243 8.80768 3.62207 9.19054 3.62207C9.5734 3.62207 9.88377 3.93243 9.88377 4.31529C9.88377 4.69816 9.5734 5.00852 9.19054 5.00852C8.80768 5.00852 8.49731 4.69816 8.49731 4.31529Z" fill="#F24E4E"/>
</svg>
