<svg width="13" height="13" viewBox="0 0 13 13" fill="none" xmlns="http://www.w3.org/2000/svg">
<path d="M12.529 2.2976C12.1629 1.27327 11.1941 0.588328 10.1063 0.584824C9.01337 0.586084 8.03964 1.27544 7.67533 2.30587H2.79191C1.60437 2.30728 0.642037 3.26961 0.640625 4.45715V10.4808C0.642037 11.6683 1.60437 12.6306 2.79191 12.632H8.81552C10.0031 12.6306 10.9654 11.6683 10.9668 10.4808V5.59734C12.3094 5.11751 13.0088 3.64018 12.529 2.2976ZM10.1063 10.4808C10.1063 11.1936 9.52842 11.7715 8.81555 11.7715H2.79191C2.07903 11.7715 1.50113 11.1936 1.50113 10.4808V4.45715C1.50113 3.74427 2.07903 3.16637 2.79191 3.16637H7.52474C7.52616 4.59155 8.68112 5.74651 10.1063 5.74793L10.1063 10.4808Z" fill="#F24E4E"/>
</svg>
