<svg width="68" height="50" viewBox="0 0 68 50" fill="none" xmlns="http://www.w3.org/2000/svg">
<path d="M54.0741 48.7863L47.8681 35.4721C47.7986 35.335 47.6932 35.2192 47.5632 35.1372C47.4331 35.0552 47.2832 35.0099 47.1294 35.0062H46.9292C46.7731 35.0099 46.621 35.0565 46.4897 35.1408C46.3583 35.2251 46.2527 35.3438 46.1844 35.4841L39.9984 48.7743C39.9382 48.8977 39.9103 49.0343 39.9173 49.1714C39.9243 49.3085 39.966 49.4415 40.0385 49.5581C40.1151 49.6742 40.22 49.7689 40.3432 49.8336C40.4664 49.8983 40.604 49.9308 40.7432 49.928H42.9193C43.1598 49.9331 43.3961 49.8648 43.5968 49.7322C43.7974 49.5997 43.9529 49.4092 44.0424 49.1862L47.0453 42.4661L49.6738 48.3864L50.0322 49.1722C50.2163 49.5721 50.4786 49.924 51.1312 49.924H53.3334C53.4716 49.9288 53.6088 49.8978 53.7315 49.8339C53.8542 49.77 53.9582 49.6754 54.0334 49.5594C54.1086 49.4435 54.1524 49.31 54.1606 49.172C54.1688 49.0341 54.1411 48.8964 54.0801 48.7723L54.0741 48.7863Z" fill="#532A94"/>
<path d="M42.4411 29.9376H31.1061C30.8865 29.9382 30.676 30.0255 30.5207 30.1807C30.3654 30.3358 30.2779 30.546 30.2773 30.7654V49.1602C30.2773 49.38 30.3646 49.5907 30.52 49.7463C30.6753 49.9018 30.8862 49.9895 31.1061 49.99H33.6666C33.885 49.9844 34.0929 49.8951 34.2472 49.7407C34.4015 49.5862 34.4904 49.3784 34.4954 49.1602V33.8645H42.4411C42.6611 33.8645 42.8722 33.7774 43.0279 33.6222C43.1837 33.467 43.2714 33.2565 43.272 33.0368V30.7654C43.2714 30.5457 43.1837 30.3351 43.0279 30.1799C42.8722 30.0248 42.6611 29.9376 42.4411 29.9376Z" fill="#532A94"/>
<path d="M40.2069 39.7589L35.4683 36.8917C35.3762 36.8357 35.2861 36.9097 35.2861 37.0476V42.874C35.2861 43.012 35.3762 43.0859 35.4683 43.03L40.2069 40.1628C40.2309 40.1443 40.2503 40.1207 40.2639 40.0937C40.2774 40.0667 40.2846 40.037 40.285 40.0068V39.9148C40.2846 39.8846 40.2774 39.8549 40.2639 39.8279C40.2503 39.8009 40.2309 39.7773 40.2069 39.7589Z" fill="url(#paint0_linear)"/>
<path d="M67.1795 34.9902H64.8373C64.6197 34.9907 64.4113 35.0772 64.2575 35.2309C64.1036 35.3845 64.017 35.5927 64.0165 35.81V41.8843L56.8435 34.9902H56.1728C55.958 34.988 55.751 35.071 55.5972 35.2209C55.4433 35.3707 55.3552 35.5754 55.3521 35.79L55.3701 47.1868V49.1002C55.3732 49.3167 55.4606 49.5234 55.6139 49.6765C55.7672 49.8295 55.9741 49.9169 56.1909 49.92H58.5131C58.7306 49.9195 58.9391 49.8329 59.0929 49.6793C59.2467 49.5257 59.3334 49.3175 59.3339 49.1002V42.702L66.2907 49.6841C66.4511 49.8229 66.6533 49.9045 66.8652 49.916H67.1775C67.3924 49.9181 67.5994 49.8352 67.7532 49.6853C67.907 49.5354 67.9952 49.3308 67.9983 49.1162V35.816C67.9968 35.5988 67.9103 35.3909 67.7573 35.2366C67.6043 35.0823 67.3969 34.9938 67.1795 34.9902Z" fill="#532A94"/>
<path d="M35.5565 28.64H30.2834V21.194H35.5565C36.8839 21.1889 38.1818 20.8023 39.2951 20.0804C40.4085 19.3584 41.2902 18.3317 41.8351 17.1228C42.38 15.9139 42.5649 14.5739 42.3678 13.2628C42.1708 11.9517 41.6001 10.725 40.7238 9.72919C39.8475 8.73334 38.7028 8.01043 37.4263 7.64681C36.1498 7.28318 34.7955 7.2942 33.5251 7.67856C32.2547 8.06291 31.1219 8.80435 30.262 9.81433C29.4021 10.8243 28.8515 12.0601 28.6758 13.3742V35.59C28.6754 38.4222 27.8342 41.1906 26.2585 43.5452C24.6828 45.8999 22.4434 47.735 19.8234 48.8185C17.2035 49.9021 14.3207 50.1854 11.5395 49.6326C8.75836 49.0798 6.20377 47.7158 4.19878 45.7131C2.19378 43.7103 0.828428 41.1587 0.275359 38.381C-0.27771 35.6032 0.00634504 32.724 1.09161 30.1075C2.17687 27.491 4.0146 25.2546 6.37241 23.6812C8.73023 22.1078 11.5022 21.268 14.3379 21.268H19.619V28.646H14.3379H14.3039C12.938 28.6464 11.6028 29.0508 10.4668 29.8082C9.33079 30.5656 8.44483 31.6421 7.92067 32.9019C7.39652 34.1616 7.25767 35.5482 7.52163 36.8866C7.7856 38.2251 8.44055 39.4555 9.40387 40.4226C10.3672 41.3898 11.5957 42.0503 12.9345 42.3209C14.2732 42.5915 15.6622 42.46 16.9263 41.943C18.1903 41.4261 19.2727 40.5468 20.037 39.4162C20.8012 38.2856 21.2131 36.9542 21.2206 35.59V14.278C21.2289 11.4475 22.0769 8.68291 23.6575 6.33348C25.2381 3.98406 27.4804 2.15517 30.1012 1.07782C32.7219 0.000464873 35.6036 -0.277018 38.3821 0.280417C41.1607 0.837851 43.7115 2.2052 45.7124 4.20975C47.7133 6.21429 49.0746 8.76612 49.6242 11.5429C50.1738 14.3197 49.8871 17.1969 48.8004 19.811C47.7136 22.4252 45.8756 24.659 43.5184 26.2305C41.1612 27.8019 38.3906 28.6403 35.5565 28.64Z" fill="url(#paint1_linear)"/>
<defs>
<linearGradient id="paint0_linear" x1="35.2861" y1="39.9608" x2="40.285" y2="39.9608" gradientUnits="userSpaceOnUse">
<stop stop-color="#610289"/>
<stop offset="0.52" stop-color="#A9148A"/>
<stop offset="1" stop-color="#E9006D"/>
</linearGradient>
<linearGradient id="paint1_linear" x1="0.00370711" y1="24.9374" x2="49.8962" y2="24.9374" gradientUnits="userSpaceOnUse">
<stop stop-color="#610289"/>
<stop offset="0.52" stop-color="#A9148A"/>
<stop offset="1" stop-color="#E9006D"/>
</linearGradient>
</defs>
</svg>
