<svg width="127" height="39" viewBox="0 0 127 39" fill="none" xmlns="http://www.w3.org/2000/svg">
<path d="M46.7524 12.3337H51.9391C53.6356 12.3337 54.9444 12.6749 55.8654 13.3331C56.7864 13.9912 57.2469 14.9418 57.2469 16.1606C57.2469 16.8431 57.0772 17.4281 56.7864 17.9399C56.4713 18.4518 55.9866 18.8906 55.308 19.3049V19.3537C56.2047 19.7193 56.8349 20.2068 57.2227 20.7918C57.6105 21.3768 57.8043 22.1081 57.8043 22.9856C57.8043 24.4237 57.3681 25.5449 56.5198 26.3006C55.6715 27.0806 54.4597 27.4706 52.9085 27.4706H46.7767V12.3337H46.7524ZM52.1087 18.2568C52.6177 18.2568 53.0055 18.1106 53.2963 17.7937C53.5872 17.4768 53.7326 17.0624 53.7326 16.5506C53.7326 15.5024 53.054 14.9906 51.6967 14.9906H50.194V18.2568H52.1087ZM52.5692 24.7893C53.1267 24.7893 53.5629 24.5943 53.878 24.2287C54.1931 23.8631 54.3627 23.3512 54.3627 22.7174C54.3627 22.0349 54.1689 21.5231 53.7811 21.2306C53.3933 20.9137 52.7631 20.7674 51.8906 20.7674H50.194V24.8137H52.5692V24.7893Z" fill="#32394C"/>
<path d="M69.6803 23.1806H62.2881C62.4093 23.8387 62.6759 24.3018 63.088 24.6187C63.5 24.9356 64.0574 25.1062 64.7603 25.1062C65.3662 25.1062 65.9236 25.0087 66.3599 24.8137C66.8204 24.6187 67.2809 24.2774 67.7414 23.7656L69.3652 25.3256C68.9532 26.0324 68.2988 26.5931 67.4263 27.0318C66.5538 27.4706 65.5843 27.6899 64.5664 27.6899C62.8698 27.6899 61.561 27.2024 60.5916 26.2031C59.6221 25.2281 59.1616 23.8631 59.1616 22.1081C59.1616 20.3531 59.6464 18.9637 60.5916 17.9643C61.561 16.9649 62.8698 16.4531 64.5421 16.4531C66.1418 16.4531 67.4021 16.9406 68.2988 17.9643C69.2198 18.9637 69.6561 20.3531 69.6561 22.1081V23.1806H69.6803ZM66.6507 20.9868C66.6507 20.3531 66.4568 19.8656 66.0691 19.4756C65.6813 19.1099 65.1481 18.9149 64.4694 18.9149C63.8635 18.9149 63.3788 19.1099 62.991 19.4756C62.6032 19.8656 62.3366 20.4018 62.2154 21.0843H66.6507V20.9868Z" fill="#32394C"/>
<path d="M72.4433 26.1787C71.4496 25.1793 70.9407 23.8143 70.9407 22.0593C70.9407 20.3043 71.4496 18.9393 72.4433 17.9399C73.437 16.9406 74.8185 16.4531 76.5878 16.4531C78.3571 16.4531 79.7386 16.9406 80.7323 17.9399C81.726 18.9393 82.2349 20.3043 82.2349 22.0593C82.2349 23.8143 81.726 25.1793 80.7323 26.1787C79.7386 27.1781 78.3571 27.6656 76.5878 27.6656C74.8185 27.6656 73.437 27.1781 72.4433 26.1787ZM78.5025 24.5212C78.963 23.9362 79.1811 23.1074 79.1811 22.0593C79.1811 21.0112 78.963 20.1824 78.5025 19.5974C78.042 19.0124 77.4119 18.7199 76.5878 18.7199C75.7638 18.7199 75.1336 19.0124 74.6731 19.5974C74.2126 20.1824 73.9945 21.0112 73.9945 22.0593C73.9945 23.1074 74.2126 23.9362 74.6731 24.5212C75.1336 25.1062 75.7638 25.3987 76.5878 25.3987C77.4119 25.3987 78.042 25.1062 78.5025 24.5212Z" fill="#32394C"/>
<path d="M98.0371 16.6481L95.2742 27.4462H92.6082L90.6207 19.9874L88.6333 27.4462H85.9673L83.2043 16.6481H86.3551L87.5669 22.7906L89.2877 16.6481H91.9538L93.6746 22.7906L94.8864 16.6481H98.0371Z" fill="#32394C"/>
<path d="M100.243 26.4224C99.6124 25.5937 99.2974 24.3506 99.2974 22.7174V16.6481H102.351V22.7174C102.351 23.5706 102.497 24.2043 102.763 24.5943C103.03 24.9843 103.466 25.1793 104.048 25.1793C104.751 25.1793 105.332 24.9112 105.769 24.3506C106.229 23.8143 106.447 23.1318 106.447 22.3274V16.6481H109.501V24.5456C109.501 25.3256 109.549 26.2762 109.671 27.4462H106.762C106.641 26.6662 106.593 26.0324 106.593 25.5693H106.544C106.302 26.2031 105.865 26.7149 105.235 27.0806C104.605 27.4706 103.878 27.6412 103.054 27.6412C101.794 27.6656 100.873 27.2512 100.243 26.4224Z" fill="#32394C"/>
<path d="M112.337 26.91C111.828 26.3981 111.561 25.6912 111.561 24.7406V11.4318H114.615V24.7893C114.615 25.3012 114.93 25.5693 115.56 25.5693C115.924 25.5693 116.336 25.4718 116.821 25.2768L117.281 26.8856C116.603 27.4218 115.682 27.6899 114.567 27.6899C113.597 27.6656 112.87 27.4218 112.337 26.91Z" fill="#32394C"/>
<path d="M118.978 18.7199H117.233V16.6724H118.978V15.4049C118.978 14.3324 119.317 13.5037 119.996 12.8943C120.674 12.2849 121.595 11.9924 122.783 11.9924C123.34 11.9924 123.873 12.0899 124.358 12.2606C124.843 12.4312 125.255 12.6749 125.57 12.9918L124.528 14.7956C124.358 14.6249 124.164 14.5031 123.922 14.4299C123.704 14.3324 123.461 14.3081 123.268 14.3081C122.904 14.3081 122.613 14.4299 122.395 14.6981C122.177 14.9418 122.08 15.2831 122.08 15.7218V16.7212H125.085V18.7687H122.08V27.5193H119.026V18.7199H118.978Z" fill="#32394C"/>
<path d="M10.2763 13.4794C10.8338 13.4794 11.3912 13.5037 11.9486 13.5037L12.4334 13.5281C13.3301 13.5525 14.2027 13.5525 15.0994 13.5525C16.2143 13.5525 17.3534 13.5281 18.4683 13.5281C19.5832 13.5037 20.6981 13.5037 21.813 13.5037H22.4916C23.1217 13.5037 23.7034 13.5281 24.067 13.7962C24.2609 13.9425 24.4305 14.235 24.6244 14.5762C24.9637 15.1612 25.2788 15.7706 25.5696 16.38C23.4611 16.4044 21.3525 16.4044 19.2196 16.4044C16.4082 16.4044 13.5967 16.38 10.8095 16.3556H10.349C9.62193 16.3556 8.82212 16.38 8.02231 16.5994C6.39846 17.0625 5.30781 18.2569 5.18662 19.7194C5.11391 20.6456 5.59865 21.9619 6.30151 22.7175C6.88319 23.3512 7.48911 23.4975 7.87689 23.4975C11.4154 23.4975 14.954 23.4975 18.5168 23.4975H25.5454C26.0786 23.4975 26.4179 23.6925 26.6845 24.1556C27.0238 24.7162 27.3389 25.3012 27.654 25.8862L27.8964 26.3494H19.3408H10.4702C10.1551 26.3494 9.59769 26.3494 9.28262 26.8856C8.96754 27.3975 9.23414 27.885 9.4038 28.1531L10.0097 29.25L11.1488 31.2975C11.9486 32.7356 13.209 33.4669 14.9055 33.4669C17.4019 33.4669 19.9225 33.4425 22.4189 33.4425H27.0481H31.241L31.1683 33.5644C30.7805 34.2712 30.417 34.9781 30.0049 35.6606C29.7383 36.1238 29.4233 36.2944 28.9143 36.2944C27.3632 36.2944 25.8362 36.2944 24.2851 36.2944H21.1586H18.032H14.5904C12.4091 36.2944 10.6883 35.4169 9.30685 33.6375C8.84636 33.0525 8.48281 32.37 8.09502 31.6631C7.97384 31.4437 7.85265 31.2244 7.73147 31.005C6.20456 28.275 4.62918 25.5938 3.44159 23.595C2.64178 22.2544 2.30246 20.9137 2.39941 19.5487C2.54483 17.3062 3.90208 15.2344 5.84101 14.2837C7.27098 13.5769 8.87059 13.4794 10.2763 13.4794ZM10.2763 12.5287C8.60399 12.5287 6.93166 12.675 5.45323 13.4062C3.17498 14.5519 1.64807 16.9406 1.47842 19.4756C1.35723 21.1331 1.81773 22.6687 2.64178 24.0825C4.09597 26.5444 5.52594 29.0062 6.90743 31.4925C7.44063 32.4187 7.90113 33.3938 8.55552 34.2469C10.0824 36.2213 12.0941 37.2694 14.5904 37.2694C15.7296 37.2694 16.8929 37.2694 18.032 37.2694C20.1164 37.2694 22.2007 37.2694 24.2851 37.2694C25.8362 37.2694 27.3632 37.2694 28.9143 37.2694C29.7868 37.2694 30.3927 36.8794 30.8048 36.1481C31.2653 35.3681 31.6773 34.5881 32.1135 33.7838C32.574 32.9306 32.3317 32.4919 31.3622 32.4919C28.3811 32.4919 25.3757 32.4919 22.3946 32.4919C19.8983 32.4919 17.3777 32.4919 14.8813 32.5162H14.857C13.5483 32.5162 12.603 31.98 11.9486 30.8344C11.367 29.7862 10.7611 28.7381 10.1794 27.69C9.96124 27.3244 9.98548 27.3244 10.4217 27.3244C13.3786 27.3244 16.3355 27.3244 19.2924 27.3244C22.2007 27.3244 25.0849 27.3244 27.9933 27.3244C28.0418 27.3244 28.0903 27.3244 28.1387 27.3244C28.2114 27.3244 28.3084 27.3244 28.3811 27.3244C28.7689 27.3 28.987 27.0075 28.9385 26.6175C28.9143 26.4712 28.8658 26.325 28.7931 26.1787C28.3326 25.35 27.8964 24.4969 27.4116 23.6925C26.9754 22.9612 26.3452 22.5712 25.4485 22.5712C19.559 22.5712 13.6694 22.5712 7.77994 22.5956C6.73777 22.5956 5.9622 20.7187 6.03491 19.8656C6.13185 18.6712 7.10132 17.8912 8.19197 17.5744C8.87059 17.3794 9.54922 17.355 10.2521 17.355C10.3975 17.355 10.5672 17.355 10.7126 17.355C13.524 17.3794 16.3355 17.4037 19.1469 17.4037C21.3282 17.4037 23.5095 17.4037 25.6666 17.3794C26.0786 17.3794 26.5876 17.2819 26.6361 16.8675C26.6603 16.6969 26.5876 16.5262 26.5149 16.38C26.1513 15.6244 25.7635 14.8687 25.3515 14.1375C25.1334 13.7475 24.9153 13.3575 24.5517 13.0894C23.97 12.6262 23.146 12.6019 22.4189 12.6019C22.2007 12.6019 21.9584 12.6019 21.7403 12.6019C19.5105 12.6019 17.2565 12.6506 15.0267 12.6506C14.1542 12.6506 13.2574 12.6506 12.3849 12.6262C11.7305 12.5531 11.0034 12.5287 10.2763 12.5287Z" fill="url(#paint0_linear)"/>
<path d="M22.443 34.32C19.9466 34.32 17.426 34.32 14.9296 34.3444C12.8938 34.3444 11.3184 33.4181 10.3489 31.6875L9.16133 29.5669L8.57965 28.5431C8.40999 28.2506 7.90102 27.3244 8.45846 26.325C9.04014 25.3256 10.0581 25.3256 10.4459 25.3256H19.3165H26.2239C26.0785 25.0819 25.9331 24.8138 25.7877 24.57C25.6665 24.375 25.618 24.375 25.4484 24.375H18.4197C14.8812 24.375 11.3426 24.375 7.77984 24.375C7.17392 24.375 6.3014 24.18 5.50159 23.3025C4.62907 22.3519 4.04739 20.7675 4.14434 19.5975C4.28976 17.7206 5.64701 16.2094 7.68289 15.6244C8.57965 15.3806 9.45217 15.3319 10.252 15.3319H10.7367C13.5966 15.3319 16.3838 15.3562 19.1953 15.3562C20.7949 15.3562 22.3703 15.3562 23.9699 15.3319C23.8972 15.21 23.8245 15.0637 23.7518 14.9419C23.6791 14.82 23.5094 14.5275 23.4367 14.4544C23.2913 14.3812 22.6854 14.3812 22.4672 14.3812H21.8129C20.698 14.3812 19.5831 14.4056 18.4924 14.4056C17.3775 14.43 16.2384 14.43 15.1235 14.43C14.2268 14.43 13.33 14.43 12.4333 14.4056L11.9485 14.3812C11.3911 14.3569 10.8579 14.3569 10.3004 14.3569C9.01591 14.3569 7.53747 14.43 6.3014 15.0394C4.62907 15.8437 3.48995 17.5987 3.36877 19.5C3.29606 20.67 3.5869 21.8156 4.28976 23.01C5.47736 25.0331 7.05274 27.7144 8.57965 30.4444C8.70083 30.6638 8.82201 30.9075 8.9432 31.1269C9.30675 31.8094 9.64606 32.4431 10.0581 32.955C11.2699 34.515 12.6999 35.2463 14.5903 35.2463H18.0319H21.1585H24.285C25.8361 35.2463 27.363 35.2463 28.9142 35.2463C29.0596 35.2463 29.0838 35.2463 29.1808 35.0756C29.3262 34.8319 29.4716 34.5638 29.6171 34.2956H27.0237L22.443 34.32Z" fill="url(#paint1_linear)"/>
<path d="M19.4621 21.5718C18.4684 19.8412 17.4747 18.1106 16.4567 16.38C16.4083 16.3068 16.3598 16.2337 16.3113 16.1606C15.8023 15.2831 15.2934 14.3812 14.7602 13.5037C14.7117 13.4062 14.639 13.3331 14.5663 13.2356C14.0815 12.4068 13.5968 11.5781 13.1121 10.7493C13.0878 10.7006 13.0636 10.6762 13.0394 10.6275C13.0394 10.6031 13.0151 10.6031 13.0151 10.5787C12.0214 8.84808 11.0035 7.11746 10.0098 5.38683C9.81589 5.04558 9.45234 4.63121 9.0888 4.77746C8.91914 4.85058 8.82219 4.99683 8.72525 5.14308C8.26475 5.84996 7.82849 6.55683 7.39223 7.28808C7.1741 7.67808 6.95597 8.06808 6.88326 8.50683C6.78631 9.26246 7.1741 9.96933 7.53765 10.6275C7.94967 11.3343 8.3617 12.0412 8.77372 12.7237C8.82219 12.8456 8.8949 12.9431 8.96761 13.065C9.42811 13.8693 9.8886 14.6493 10.3491 15.4293H10.3733C10.4703 15.6243 10.5672 15.8193 10.6884 15.99C11.1489 16.7943 11.6094 17.5743 12.0699 18.3543L12.0941 18.33C12.1668 18.4762 12.2396 18.5981 12.3123 18.72C12.7728 19.5243 13.2333 20.3043 13.6938 21.0843L13.718 21.06C13.8149 21.255 13.9119 21.4256 14.0088 21.5962C14.3966 22.2543 14.7844 22.9125 15.148 23.5706C15.2207 23.6925 15.2691 23.79 15.3419 23.9118C15.8023 24.7162 16.2628 25.4962 16.7233 26.2762L20.7951 23.8875C20.3588 23.1075 19.8983 22.3518 19.4621 21.5718Z" fill="url(#paint2_linear)"/>
<path d="M37.688 15.795C36.2339 13.3331 34.8039 10.8712 33.4224 8.38497C32.8892 7.45872 32.4287 6.48372 31.7743 5.63059C30.2474 3.65622 28.2358 2.60809 25.7394 2.60809C20.9648 2.60809 16.1901 2.60809 11.3913 2.60809C10.5188 2.60809 9.91285 2.99809 9.47659 3.72934C9.0161 4.50934 8.60408 5.28934 8.16782 6.09372C7.70732 6.94684 7.94969 7.38559 8.91915 7.38559C14.4209 7.38559 19.8984 7.40997 25.4001 7.38559C26.7331 7.38559 27.6783 7.92184 28.3085 9.06747C28.8901 10.1156 29.4961 11.1637 30.0777 12.2118C30.2959 12.5775 30.2716 12.5775 29.8354 12.5775C27.3875 12.5775 24.9396 12.5775 22.4917 12.5775C21.6676 12.5775 20.8193 12.5775 19.9953 12.5775C19.8741 12.5775 19.7287 12.5775 19.6075 12.5775C19.2197 12.6018 19.0016 12.8943 19.0501 13.2843C19.0743 13.4306 19.1228 13.5768 19.1955 13.7231C19.656 14.5518 20.0922 15.405 20.577 16.2093C21.0132 16.9406 21.6676 17.355 22.5401 17.355C23.9459 17.355 25.3758 17.355 26.7816 17.355C28.672 17.355 30.5625 17.355 32.4529 17.355C33.4951 17.355 34.2707 19.2318 34.198 20.085C34.101 21.2793 33.1316 22.0593 32.0409 22.3762C31.2169 22.5956 30.3686 22.5956 29.5203 22.5956C27.7753 22.5712 26.0302 22.5712 24.2852 22.5712C21.498 22.5712 18.7108 22.5712 15.9478 22.5956C15.5358 22.5956 15.0268 22.6931 14.9783 23.1075C14.9541 23.2781 15.0268 23.4487 15.0995 23.595C15.463 24.3506 15.8508 25.1062 16.2629 25.8375C16.481 26.2275 16.6991 26.6175 17.0627 26.8856C17.6443 27.3487 18.4684 27.3731 19.1955 27.3731C20.8921 27.3731 22.5886 27.3487 24.2852 27.3243C25.4728 27.3243 26.6604 27.3243 27.8237 27.3487C30.1989 27.4218 32.6953 27.5681 34.8281 26.52C37.1064 25.3987 38.6333 22.9856 38.8029 20.4506C38.9968 18.72 38.5363 17.2087 37.688 15.795Z" fill="url(#paint3_linear)"/>
<defs>
<linearGradient id="paint0_linear" x1="10.8636" y1="36.289" x2="24.4331" y2="12.9194" gradientUnits="userSpaceOnUse">
<stop stop-color="#BB070C" stop-opacity="0.7"/>
<stop offset="0.3032" stop-color="#C80815" stop-opacity="0.6"/>
<stop offset="0.6422" stop-color="#D42215" stop-opacity="0.6"/>
<stop offset="1" stop-color="#FD3722" stop-opacity="0.5"/>
</linearGradient>
<linearGradient id="paint1_linear" x1="10.7591" y1="36.3761" x2="24.5354" y2="12.6503" gradientUnits="userSpaceOnUse">
<stop stop-color="#BB070C" stop-opacity="0.7"/>
<stop offset="0.3032" stop-color="#C80815" stop-opacity="0.6"/>
<stop offset="0.6422" stop-color="#D42215" stop-opacity="0.6"/>
<stop offset="1" stop-color="#FD3722" stop-opacity="0.5"/>
</linearGradient>
<linearGradient id="paint2_linear" x1="10.1293" y1="22.471" x2="17.6321" y2="9.54949" gradientUnits="userSpaceOnUse">
<stop stop-color="#BB070C"/>
<stop offset="0.4288" stop-color="#C80815"/>
<stop offset="0.696" stop-color="#D42215"/>
<stop offset="1" stop-color="#EB3722"/>
</linearGradient>
<linearGradient id="paint3_linear" x1="13.9014" y1="23.622" x2="31.9379" y2="5.68797" gradientUnits="userSpaceOnUse">
<stop stop-color="#BB070C"/>
<stop offset="0.3032" stop-color="#C80815"/>
<stop offset="0.6422" stop-color="#D42215"/>
<stop offset="1" stop-color="#FD3722"/>
</linearGradient>
</defs>
</svg>
