<svg width="15" height="14" viewBox="0 0 15 14" fill="none" xmlns="http://www.w3.org/2000/svg">
<path d="M1.43218 6.1696C1.46187 6.17558 1.4922 6.17879 1.52231 6.17879C1.72906 6.17836 1.9074 6.03334 1.94968 5.83108C2.00457 5.5718 2.07762 5.317 2.16839 5.06818C2.22371 4.92081 2.19551 4.75507 2.0947 4.63418C1.9939 4.5133 1.83585 4.45606 1.681 4.48404C1.52594 4.51223 1.39822 4.62137 1.34611 4.76981C1.2421 5.0575 1.15816 5.35224 1.09537 5.65167C1.04582 5.88768 1.19639 6.1192 1.43218 6.1696Z" fill="#F24E4E"/>
<path d="M2.54999 3.851C2.69052 3.85121 2.8223 3.78415 2.90474 3.67052C3.06044 3.45588 3.23045 3.25234 3.41392 3.06118C3.58115 2.8869 3.5756 2.60989 3.40132 2.44266C3.22703 2.27543 2.95002 2.28098 2.78279 2.45526C2.57135 2.6746 2.3755 2.90847 2.19673 3.15516C2.10019 3.28822 2.08631 3.46399 2.16085 3.61029C2.23539 3.75681 2.38575 3.84907 2.54999 3.84929V3.851Z" fill="#F24E4E"/>
<path d="M4.44001 2.14236C4.5169 2.14215 4.5925 2.12165 4.65871 2.08278C4.8866 1.94929 5.12389 1.83225 5.36865 1.73293C5.59269 1.64195 5.70034 1.38651 5.60935 1.16246C5.51816 0.938634 5.26293 0.83099 5.03888 0.921975C4.75632 1.03731 4.48187 1.17229 4.21789 1.32564C4.04702 1.42495 3.96373 1.62636 4.01499 1.8173C4.06603 2.00824 4.23903 2.14108 4.43659 2.14151L4.44001 2.14236Z" fill="#F24E4E"/>
<path d="M13.8193 5.20089C13.8167 5.18935 13.8193 5.17846 13.8161 5.16714C13.8084 5.13916 13.7973 5.11161 13.7892 5.08363C13.7808 5.05565 13.768 5.02105 13.758 4.98945C13.705 4.82584 13.6456 4.66416 13.5801 4.50398C13.5681 4.47515 13.5568 4.44589 13.5446 4.41641C13.5288 4.3801 13.5162 4.34294 13.5008 4.30706C13.4931 4.2951 13.4848 4.28357 13.4758 4.27267C13.2315 3.73702 12.9163 3.23682 12.5384 2.78531C12.5333 2.77848 12.532 2.76972 12.5263 2.76267C12.3291 2.5303 12.1162 2.31181 11.8889 2.10869C11.8748 2.09951 11.8603 2.09097 11.8452 2.08328C11.4112 1.70076 10.9285 1.37719 10.4097 1.12111C10.3979 1.11064 10.3856 1.10124 10.3725 1.0927C10.2884 1.05191 10.2019 1.01645 10.1156 0.979289C10.0908 0.968397 10.0663 0.95665 10.0408 0.946184C9.86977 0.874849 9.69762 0.808426 9.52206 0.752255C9.51736 0.752255 9.51288 0.752255 9.50818 0.752255C8.94262 0.57413 8.35549 0.473534 7.76281 0.453672C7.74936 0.453672 7.73782 0.444915 7.72437 0.444488C7.68058 0.444488 7.63381 0.444488 7.58917 0.444488C7.56418 0.444488 7.54026 0.44043 7.51527 0.44043C7.50823 0.44043 7.50267 0.444061 7.49563 0.444488C7.26688 0.443847 7.03814 0.454953 6.81068 0.47802C6.58044 0.503222 6.40979 0.703559 6.42154 0.934865C6.43307 1.16596 6.62273 1.34814 6.85446 1.35028C6.87005 1.35028 6.88564 1.34942 6.90124 1.34771C7.12464 1.32507 7.34932 1.31525 7.57379 1.31824C8.30701 1.32422 9.03168 1.47287 9.70809 1.75565L9.75572 1.77679C10.3657 2.04099 10.9248 2.40963 11.4077 2.86626C11.5259 2.97753 11.6378 3.09372 11.7454 3.21631C12.1595 3.67508 12.4961 4.19814 12.742 4.76519C12.7516 4.78697 12.7599 4.80897 12.7691 4.83118C12.8274 4.97086 12.8795 5.11332 12.9257 5.25855C12.9344 5.28568 12.944 5.3128 12.9524 5.33993C13.1172 5.87793 13.2012 6.43751 13.2012 7.00029C13.2012 7.17521 13.1903 7.34757 13.1749 7.51822C13.1711 7.562 13.1661 7.60557 13.1614 7.64936C12.9942 9.1049 12.2708 10.4395 11.1427 11.3744L11.1196 11.394C10.5583 11.8558 9.91376 12.2054 9.2207 12.4241C9.20105 12.4303 9.18055 12.4354 9.1609 12.4412C9.01695 12.485 8.87043 12.5222 8.72349 12.5546L8.61499 12.5777C5.57897 13.1796 2.6209 11.2373 1.96628 8.21235L2.94533 8.70614C3.16147 8.81421 3.42417 8.72643 3.53224 8.51029C3.64031 8.29394 3.55253 8.03123 3.33618 7.92316L1.58654 7.04835C1.52717 7.0193 1.46181 7.00435 1.39539 7.00456C1.38919 7.00264 1.38279 7.00114 1.37616 7.00029C1.36356 7.00307 1.35096 7.0067 1.33858 7.01076C1.2933 7.01545 1.24887 7.02741 1.20744 7.04621C1.11795 7.08551 1.04448 7.15385 0.999198 7.24035L0.124379 8.98999C0.0163085 9.20635 0.104089 9.46905 0.320231 9.57712C0.536587 9.68498 0.799288 9.59741 0.907359 9.38105L1.20616 8.78367C1.33025 9.22322 1.50089 9.64845 1.71533 10.0521C1.71832 10.0643 1.72195 10.0763 1.72622 10.088C1.86996 10.3575 2.03249 10.6164 2.21254 10.8631C2.22343 10.878 2.24052 10.884 2.25291 10.8972C2.59292 11.3517 2.98975 11.761 3.43378 12.1144C3.44873 12.1356 3.46561 12.1552 3.48419 12.1732C3.72425 12.362 3.97734 12.5335 4.24175 12.6866C4.27422 12.7056 4.30903 12.7204 4.34534 12.7304C4.83379 13.0025 5.35514 13.2112 5.89635 13.3511C5.90916 13.3581 5.9224 13.3643 5.93586 13.3699C6.23252 13.4431 6.53388 13.4956 6.8378 13.5268H6.88137C7.09089 13.548 7.30276 13.5597 7.51698 13.5597C7.87345 13.5574 8.22905 13.5258 8.58039 13.4655H8.58573C8.61136 13.4657 8.63699 13.4634 8.66219 13.4587C8.70021 13.4521 8.73737 13.442 8.77539 13.4346C8.82409 13.4254 8.87171 13.4145 8.91977 13.404C9.08551 13.3681 9.24889 13.3259 9.41015 13.2776C9.43556 13.2701 9.4614 13.2639 9.48618 13.256C9.51117 13.2483 9.52996 13.2443 9.55004 13.2376C9.56008 13.2342 9.5667 13.2268 9.57588 13.2229C10.1404 13.0371 10.6769 12.775 11.1707 12.4442C11.1769 12.4404 11.1835 12.4395 11.1895 12.4354C11.3571 12.3222 11.518 12.1975 11.6756 12.0685C11.6856 12.0602 11.6952 12.0514 11.7057 12.0431C11.7738 11.9863 11.8434 11.9312 11.909 11.8722C11.9208 11.8584 11.9314 11.8438 11.9411 11.8285C12.3618 11.4438 12.7309 11.0062 13.0393 10.5267C13.0553 10.5098 13.0698 10.4919 13.0831 10.4729C13.2447 10.214 13.3883 9.94426 13.5126 9.66533C13.5171 9.65571 13.5158 9.64568 13.5192 9.63607C13.7548 9.09956 13.9167 8.53336 14.0004 7.95349C14.0059 7.93918 14.0108 7.92445 14.0147 7.90971C14.0222 7.85674 14.0256 7.80292 14.0318 7.74952C14.038 7.69613 14.0431 7.64466 14.048 7.59212C14.066 7.39434 14.0781 7.19571 14.0781 6.9973V6.97188C14.0781 6.96932 14.0781 6.96654 14.0781 6.96355C14.0726 6.36681 13.9856 5.77371 13.8193 5.20089Z" fill="#F24E4E"/>
<path d="M7.51553 3.06396C7.27398 3.06396 7.07812 3.25982 7.07812 3.50137V7.00065C7.07812 7.11662 7.12426 7.2279 7.20627 7.30991L8.95591 9.05955C9.12763 9.22529 9.40037 9.22294 9.56909 9.05421C9.73782 8.88548 9.74017 8.61274 9.57443 8.44103L7.95294 6.81954V3.50137C7.95294 3.25982 7.75709 3.06396 7.51553 3.06396Z" fill="#F24E4E"/>
</svg>
