<svg width="15" height="17" viewBox="0 0 15 17" fill="none" xmlns="http://www.w3.org/2000/svg">
<path d="M11.0154 8.78172C10.8459 8.78172 10.7084 8.64426 10.7084 8.47476V6.69206H10.5687C10.3992 6.69206 10.2617 6.5546 10.2617 6.38509C10.2617 6.21559 10.3992 6.07812 10.5687 6.07812H11.0154C11.1849 6.07812 11.3223 6.21559 11.3223 6.38509V8.47476C11.3223 8.64426 11.1849 8.78172 11.0154 8.78172Z" fill="#F24E4E"/>
<path d="M6.44718 12.0791C6.31678 12.0791 6.199 11.9935 6.15673 11.8707C6.1144 11.7477 6.15777 11.6079 6.26036 11.5286C6.35915 11.4523 6.49808 11.4453 6.60494 11.509C6.71508 11.5745 6.77294 11.7065 6.74801 11.8319C6.71986 11.9737 6.59174 12.0791 6.44718 12.0791Z" fill="#F24E4E"/>
<path d="M14.0781 7.30669C14.0781 5.52845 12.6317 4.08176 10.8538 4.08176C10.6598 4.08176 10.4696 4.09902 10.2849 4.13205C9.89263 3.52695 9.36007 3.01907 8.73603 2.65669C8.4089 2.46671 8.05972 2.31893 7.69746 2.21579V1.6067C7.69746 0.914089 7.13399 0.350586 6.44135 0.350586C5.74873 0.350586 5.18523 0.914058 5.18523 1.6067V2.21576C3.26965 2.76342 1.8633 4.53129 1.8633 6.62166V8.01784C1.8633 8.91843 1.75445 9.81849 1.53976 10.693L1.3502 11.465C0.645711 11.4829 0.078125 12.0615 0.078125 12.771C0.078125 13.4909 0.663822 14.0766 1.38376 14.0766H4.53869V14.1647C4.53869 15.2138 5.39222 16.0674 6.44138 16.0674C7.49054 16.0674 8.34406 15.2138 8.34406 14.1647V14.0766H11.499C12.2189 14.0766 12.8046 13.4909 12.8046 12.7702C12.8046 12.0615 12.237 11.4829 11.5325 11.465L11.343 10.693C11.3273 10.6294 11.3122 10.5654 11.2977 10.5011C12.8663 10.2842 14.0781 8.93436 14.0781 7.30669ZM5.79917 1.6067C5.79917 1.25261 6.08726 0.964524 6.44135 0.964524C6.79544 0.964524 7.08353 1.25261 7.08353 1.6067V2.08564C6.87153 2.05568 6.65693 2.04045 6.44135 2.04045C6.22343 2.04045 6.00904 2.05577 5.79917 2.08539V1.6067ZM7.73013 14.1647C7.73013 14.8753 7.15198 15.4535 6.44138 15.4535C5.73078 15.4535 5.15263 14.8753 5.15263 14.1647V14.0766H7.73013V14.1647ZM12.1906 12.771C12.1906 13.1524 11.8803 13.4627 11.499 13.4627H1.38373C1.00232 13.4627 0.692032 13.1524 0.692032 12.7702C0.692032 12.3888 1.00232 12.0786 1.38373 12.0786H1.58553C1.58743 12.0786 1.58936 12.0786 1.59127 12.0786C1.59314 12.0786 1.59498 12.0786 1.59685 12.0786H5.05366C5.2232 12.0786 5.36063 11.9411 5.36063 11.7716C5.36063 11.6021 5.2232 11.4646 5.05366 11.4646H1.98247L2.13595 10.8394C2.3624 9.917 2.47724 8.9677 2.47724 8.01784V6.62166C2.47724 4.43407 4.25554 2.65439 6.44135 2.65439C7.7173 2.65439 8.92292 3.28107 9.66293 4.30975C8.47275 4.78454 7.62953 5.94896 7.62953 7.30672C7.62953 9.02473 8.97964 10.4333 10.6744 10.5267C10.6972 10.6315 10.7214 10.7361 10.7467 10.8394L10.9002 11.4646H7.82903C7.65952 11.4646 7.52206 11.6021 7.52206 11.7716C7.52206 11.9412 7.65952 12.0786 7.82903 12.0786H11.2858C11.2877 12.0786 11.2896 12.0786 11.2914 12.0786C11.2933 12.0786 11.2952 12.0786 11.2971 12.0786H11.4989C11.8803 12.0786 12.1906 12.3889 12.1906 12.771ZM10.8538 9.91768C9.41447 9.91768 8.24347 8.7464 8.24347 7.30669C8.24347 5.867 9.4145 4.6957 10.8538 4.6957C12.2932 4.6957 13.4642 5.86697 13.4642 7.30669C13.4642 8.7464 12.2932 9.91768 10.8538 9.91768Z" fill="#F24E4E"/>
</svg>
