<svg width="16" height="13" viewBox="0 0 16 13" fill="none" xmlns="http://www.w3.org/2000/svg">
<path d="M8.71148 8.71011H12.7202C12.8706 8.71011 12.9708 8.6099 12.9708 8.45957V6.20464C12.9708 6.05431 12.8706 5.9541 12.7202 5.9541H8.71148C8.56115 5.9541 8.46094 6.05431 8.46094 6.20464V8.45957C8.46091 8.60987 8.56115 8.71011 8.71148 8.71011ZM8.96201 6.45518H12.4697V8.209H8.96201V6.45518Z" fill="#F24E4E"/>
<path d="M1.94585 5.45274H3.95024C4.10057 5.45274 4.20078 5.35253 4.20078 5.2022C4.20078 5.05187 4.10057 4.95166 3.95024 4.95166H1.94585C1.79552 4.95166 1.69531 5.05187 1.69531 5.2022C1.69531 5.35253 1.79552 5.45274 1.94585 5.45274Z" fill="#F24E4E"/>
<path d="M4.94976 5.45274H6.95415C7.10448 5.45274 7.20469 5.35253 7.20469 5.2022C7.20469 5.05187 7.10448 4.95166 6.95415 4.95166H4.94976C4.79943 4.95166 4.69922 5.05187 4.69922 5.2022C4.69922 5.35253 4.79943 5.45274 4.94976 5.45274Z" fill="#F24E4E"/>
<path d="M1.94585 6.45518H5.20297C5.35329 6.45518 5.4535 6.35497 5.4535 6.20464C5.4535 6.05431 5.35329 5.9541 5.20297 5.9541H1.94585C1.79552 5.9541 1.69531 6.05431 1.69531 6.20464C1.69531 6.35497 1.79552 6.45518 1.94585 6.45518Z" fill="#F24E4E"/>
<path d="M6.95531 5.9541H6.20366C6.05333 5.9541 5.95312 6.05431 5.95312 6.20464C5.95312 6.35497 6.05333 6.45518 6.20366 6.45518H6.95531C7.10564 6.45518 7.20585 6.35497 7.20585 6.20464C7.20585 6.05431 7.10564 5.9541 6.95531 5.9541Z" fill="#F24E4E"/>
<path d="M15.4988 2.84721C15.3234 2.62171 15.0979 2.49643 14.8223 2.47138L14.221 2.39851V1.69466V1.19359C14.221 0.642393 13.77 0.191406 13.2188 0.191406H1.69359C1.14239 0.191377 0.691406 0.642363 0.691406 1.19359V1.69469V3.69909V9.21113C0.691406 9.66368 0.995499 10.0485 1.40937 10.1718C1.39675 10.6786 1.78023 11.1186 2.29493 11.1654L13.8703 12.4682C13.8953 12.4682 13.9454 12.4682 13.9705 12.4682C14.4716 12.4682 14.9226 12.0924 14.9726 11.6164L15.7243 3.5738C15.7493 3.32324 15.6742 3.04762 15.4988 2.84721ZM1.19251 1.94523H13.7199V2.59667V3.44852H1.19251V1.94523ZM1.69359 0.692483H13.2188C13.4944 0.692483 13.7199 0.917976 13.7199 1.19359V1.44413H1.19251V1.19359C1.19251 0.917976 1.41801 0.692483 1.69359 0.692483ZM1.19251 9.21111V3.9496H13.7199V9.21111C13.7199 9.48672 13.4944 9.71221 13.2188 9.71221H1.71866H1.69362C1.41801 9.71221 1.19251 9.48672 1.19251 9.21111ZM15.2232 3.47357L14.4715 11.5162C14.4465 11.7918 14.1959 11.9922 13.9203 11.9671L2.37007 10.6643C2.11953 10.6393 1.94413 10.4388 1.91908 10.2133H13.2188C13.77 10.2133 14.221 9.76233 14.221 9.21113V3.69906V2.87225L14.7972 2.92237C14.9225 2.92237 15.0478 2.99753 15.1229 3.09774C15.1981 3.19795 15.2483 3.34828 15.2232 3.47357Z" fill="#F24E4E"/>
</svg>
