<svg width="91" height="90" viewBox="0 0 91 90" fill="none" xmlns="http://www.w3.org/2000/svg">
<g clip-path="url(#clip0)">
<path d="M90.9829 45C90.9829 20.1469 70.8395 0 45.9905 0C21.1422 0 0.998047 20.1469 0.998047 45C0.998047 69.8531 21.1422 90 45.9905 90C70.8395 90 90.9829 69.8531 90.9829 45Z" fill="#81D5FA"/>
<path d="M73.7455 9.58081C79.7454 17.2273 83.3242 26.8657 83.3242 37.3405C83.3242 62.193 63.1801 82.3405 38.3318 82.3405C27.8584 82.3405 18.222 78.761 10.5762 72.7598C18.8132 83.2565 31.6143 90 45.9899 90C70.8389 90 90.9824 69.8532 90.9824 45C90.9824 30.6217 84.2402 17.8185 73.7455 9.58081Z" fill="#54BAE7"/>
<path d="M43.2346 60.6698C42.8879 61.0811 42.2881 61.1125 41.9019 60.7395L27.3011 46.6357C26.9148 46.2627 26.898 45.635 27.2633 45.2408L31.9152 40.224C32.2808 39.8298 32.8958 39.8127 33.282 40.1855L41.2578 47.8893C41.6441 48.2624 42.2438 48.231 42.5906 47.8196L58.1726 29.3419C58.5194 28.9306 59.1331 28.8836 59.5359 29.2378L64.665 33.7433C65.068 34.0972 65.114 34.7235 64.767 35.1349L43.2346 60.6698Z" fill="#DEFCFF"/>
</g>
<defs>
<clipPath id="clip0">
<rect width="90" height="90" fill="white" transform="translate(0.998047)"/>
</clipPath>
</defs>
</svg>
