<svg width="91" height="90" viewBox="0 0 91 90" fill="none" xmlns="http://www.w3.org/2000/svg">
<g clip-path="url(#clip0)">
<path d="M90.9834 45C90.9834 20.1469 70.84 0 45.991 0C21.1427 0 0.998535 20.1469 0.998535 45C0.998535 69.8531 21.1427 90 45.991 90C70.84 90 90.9834 69.8531 90.9834 45Z" fill="#F36986"/>
<path d="M73.7465 9.58081C79.7464 17.2273 83.3252 26.8657 83.3252 37.3405C83.3252 62.193 63.1811 82.3405 38.3327 82.3405C27.8593 82.3405 18.2229 78.761 10.5771 72.7598C18.8141 83.2565 31.6153 90 45.9909 90C70.8399 90 90.9833 69.8532 90.9833 45C90.9833 30.6217 84.2412 17.8185 73.7465 9.58081Z" fill="#FC476E"/>
<path d="M48.8482 52.5586H43.1339C42.0023 52.5586 41.085 51.6413 41.085 50.509V24.6341C41.085 23.5018 42.0023 22.5845 43.1339 22.5845H48.8482C49.9798 22.5845 50.8978 23.5018 50.8978 24.6341V50.509C50.8978 51.6413 49.9805 52.5586 48.8482 52.5586Z" fill="#FFD2E3"/>
<path d="M48.8486 22.5845H45.1455C46.2771 22.5845 47.1945 23.5018 47.1945 24.6341V50.509C47.1945 51.6413 46.2771 52.5586 45.1455 52.5586H48.8486C49.9802 52.5586 50.8975 51.6406 50.8975 50.509V24.6341C50.8975 23.5018 49.9802 22.5845 48.8486 22.5845Z" fill="#FFBBD7"/>
<path d="M45.991 68.8719C43.2815 68.8719 41.085 66.6747 41.085 63.9651V63.9638C41.085 61.2543 43.2815 59.057 45.991 59.057C48.7005 59.057 50.8978 61.2543 50.8978 63.9638V63.9651C50.8978 66.6747 48.7005 68.8719 45.991 68.8719Z" fill="#FFD2E3"/>
<path d="M45.9909 59.057C45.5961 59.057 45.2123 59.1051 44.8442 59.193C47.001 59.71 48.6043 61.6491 48.6043 63.9645C48.6043 66.2791 47.001 68.2189 44.8442 68.7353C45.2123 68.8239 45.5961 68.8719 45.9909 68.8719C48.7011 68.8719 50.8977 66.6747 50.8977 63.9645C50.8977 61.2543 48.7004 59.057 45.9909 59.057Z" fill="#FFBBD7"/>
</g>
<defs>
<clipPath id="clip0">
<rect width="90" height="90" fill="white" transform="translate(0.998535)"/>
</clipPath>
</defs>
</svg>
