<svg width="420" height="390" viewBox="0 0 420 390" fill="none" xmlns="http://www.w3.org/2000/svg">
<g clip-path="url(#clip0)">
<path d="M266.986 183.052L194.315 158.931C178.968 153.746 170.392 137.064 175.583 121.734L190.027 78C195.218 62.6705 211.918 54.104 227.265 59.289L299.936 83.4104C315.282 88.5954 323.858 105.277 318.668 120.607L304.224 164.341C299.259 179.896 282.558 188.237 266.986 183.052Z" fill="#E3E3E3"/>
<path d="M220.91 86.0078L194.85 164.3L263.378 187.06L289.439 108.768L220.91 86.0078Z" fill="#C2C2C2"/>
<path d="M0 163.89V123.988L90.4997 0H142.182V122.41H166.104V164.116H142.182V200.636H93.6593V163.89H0ZM97.496 55.2312L48.748 122.185H97.496V55.2312Z" fill="#ECAB0A"/>
<path opacity="0.1" d="M104.041 189.815C103.589 193.197 103.364 196.353 103.364 199.734V200.41H148.049V161.636H170.167L174.455 122.185H156.174H151.66C143.536 127.37 135.411 133.231 128.866 140.22C116.228 153.971 106.975 171.555 104.041 189.815Z" fill="black"/>
<path d="M213.272 321.694C271.48 321.694 318.667 274.559 318.667 216.416C318.667 158.273 271.48 111.139 213.272 111.139C155.064 111.139 107.877 158.273 107.877 216.416C107.877 274.559 155.064 321.694 213.272 321.694Z" fill="#FF4332"/>
<path opacity="0.2" d="M302.418 160.058C306.932 172.006 309.64 184.855 309.64 198.156C309.64 256.318 262.472 303.434 204.245 303.434C166.781 303.434 133.831 283.821 115.099 254.514C130.446 293.74 168.587 321.694 213.272 321.694C271.499 321.694 318.667 274.578 318.667 216.416C318.893 195.676 312.8 176.289 302.418 160.058Z" fill="black"/>
<path d="M195.444 178.638C198.682 165.074 190.298 151.457 176.719 148.223C163.141 144.99 149.508 153.364 146.271 166.928C143.034 180.491 151.417 194.108 164.996 197.342C178.575 200.576 192.207 192.202 195.444 178.638Z" fill="#C93629"/>
<path d="M146.666 233.395C152.303 231.047 154.967 224.579 152.616 218.948C150.265 213.317 143.79 210.656 138.153 213.004C132.515 215.352 129.851 221.82 132.202 227.451C134.553 233.082 141.028 235.743 146.666 233.395Z" fill="#C93629"/>
<path d="M256.153 172.908C264.379 172.908 271.048 166.246 271.048 158.029C271.048 149.812 264.379 143.15 256.153 143.15C247.926 143.15 241.258 149.812 241.258 158.029C241.258 166.246 247.926 172.908 256.153 172.908Z" fill="#C93629"/>
<path d="M223.88 239.185C227.744 239.185 230.876 236.056 230.876 232.197C230.876 228.337 227.744 225.208 223.88 225.208C220.016 225.208 216.884 228.337 216.884 232.197C216.884 236.056 220.016 239.185 223.88 239.185Z" fill="#C93629"/>
<path d="M297.453 198.156C301.317 198.156 304.449 195.027 304.449 191.168C304.449 187.308 301.317 184.179 297.453 184.179C293.589 184.179 290.457 187.308 290.457 191.168C290.457 195.027 293.589 198.156 297.453 198.156Z" fill="#C93629"/>
<g opacity="0.2">
<path opacity="0.2" d="M213.273 111.139C199.506 111.139 186.19 113.844 174.229 118.578C173.778 119.254 173.552 119.931 173.101 120.607C172.649 121.283 172.424 121.96 172.198 122.636C169.49 128.046 167.233 134.584 165.879 142.023C165.202 143.376 164.75 144.728 164.525 146.081C162.719 154.422 162.719 163.439 163.848 173.133C164.976 181.023 171.746 186.884 179.42 186.884C180.097 186.884 180.774 186.884 181.451 186.659C190.027 185.532 196.12 177.642 194.992 169.075C194.766 166.595 194.541 164.341 194.541 161.861L195.443 162.763C197.7 165.243 201.763 165.243 204.019 162.763C206.502 160.509 206.502 156.451 204.019 154.197L194.992 145.179C194.541 143.827 194.089 142.249 193.187 141.121C193.864 139.092 194.541 137.289 195.443 135.486C195.895 134.809 196.12 133.908 196.572 133.231C198.603 129.399 201.311 126.243 204.019 123.763C204.471 123.312 205.148 122.861 205.599 122.41C208.307 120.156 211.016 118.353 213.724 117C214.401 116.549 215.078 116.324 215.755 116.098C216.206 115.873 216.432 115.873 216.884 115.647C218.915 114.746 220.72 113.393 222.074 111.815C219.14 111.364 216.206 111.139 213.273 111.139Z" fill="black"/>
<path opacity="0.2" d="M292.714 213.035C298.581 205.37 303.095 197.48 306.029 189.364C306.48 188.012 306.706 186.434 306.932 185.081C308.286 181.249 309.414 177.642 310.091 174.035C302.192 156.225 289.78 141.121 273.982 130.075C274.207 132.329 275.11 134.358 276.464 136.387C276.69 136.613 276.916 137.064 277.141 137.289C277.593 137.965 278.044 138.416 278.27 139.092C279.85 141.572 281.429 144.503 282.558 147.884C282.783 148.561 283.009 149.237 283.235 149.913C284.363 153.52 284.815 157.353 284.815 161.861C284.815 162.763 284.815 163.439 284.589 164.341C284.363 166.37 284.138 168.173 283.686 170.428C282.332 171.104 281.204 172.006 280.075 173.133L267.888 176.289C264.729 177.191 262.697 180.347 263.6 183.728C264.503 186.884 267.663 188.913 271.048 188.012L272.402 187.786C271.273 189.815 269.919 191.618 268.34 193.647C262.923 200.41 264.052 210.329 271.048 215.74C271.499 216.191 272.176 216.642 272.853 216.867C278.947 220.925 287.748 219.347 292.714 213.035Z" fill="black"/>
</g>
<path d="M288.877 192.295C294.97 194.324 301.966 191.393 304.9 185.306C317.99 157.803 312.573 136.387 305.577 123.087C303.546 119.254 301.515 116.098 299.258 113.168C293.842 105.954 282.783 106.179 277.592 113.619C274.207 118.353 274.433 124.439 277.818 128.948C283.911 137.289 291.133 152.844 281.203 173.809C278.269 180.121 280.3 187.561 286.394 191.168C287.071 191.619 287.974 192.069 288.877 192.295Z" fill="#D1D1D1"/>
<path d="M273.53 209.428C280.301 213.486 288.877 211.908 293.842 205.595C299.709 197.931 304.223 190.04 307.157 181.925C310.091 173.809 305.803 164.792 297.453 161.861C289.328 158.931 280.301 163.214 277.367 171.555C275.787 176.289 272.853 181.249 269.016 185.983C263.6 192.746 264.728 202.665 271.724 208.075C272.402 208.526 273.079 208.977 273.53 209.428Z" fill="white"/>
<path d="M271.95 180.572L285.266 177.191C288.425 176.289 290.457 173.133 289.554 169.751C288.651 166.595 285.491 164.566 282.106 165.468L268.791 168.85C265.631 169.751 263.6 172.908 264.503 176.289C265.406 179.445 268.791 181.474 271.95 180.572Z" fill="white"/>
<path d="M303.546 119.705C303.998 120.381 304.449 121.283 304.9 121.96C298.355 120.156 287.523 119.931 279.624 131.653C279.172 130.977 278.721 130.301 278.495 129.85C286.168 119.029 296.55 118.353 303.546 119.705Z" fill="#888888"/>
<path d="M284.363 142.474C284.137 141.798 283.912 141.121 283.686 140.445C294.745 133.457 304.223 133.908 310.317 135.711C310.543 136.387 310.768 137.289 310.994 137.965C305.578 136.162 295.873 135.035 284.363 142.474Z" fill="#888888"/>
<path d="M312.574 155.775C312.574 156.451 312.574 157.127 312.348 158.029C306.254 153.971 296.099 149.913 285.717 157.127C285.717 156.225 285.943 155.549 285.943 154.647C296.324 148.335 306.254 151.717 312.574 155.775Z" fill="#888888"/>
<path d="M262.697 283.821C267.559 283.821 271.499 279.885 271.499 275.029C271.499 270.173 267.559 266.237 262.697 266.237C257.836 266.237 253.896 270.173 253.896 275.029C253.896 279.885 257.836 283.821 262.697 283.821Z" fill="#C93629"/>
<path d="M197.926 300.052C207.274 300.052 214.852 292.482 214.852 283.145C214.852 273.807 207.274 266.237 197.926 266.237C188.577 266.237 180.999 273.807 180.999 283.145C180.999 292.482 188.577 300.052 197.926 300.052Z" fill="#C93629"/>
<path opacity="0.2" d="M243.514 317.41C287.071 304.335 318.667 264.208 318.667 216.416C318.667 210.555 318.216 204.694 317.313 199.058L243.514 306.815V317.41Z" fill="black"/>
<path d="M176.26 156.676C169.941 155.324 165.427 149.237 166.104 142.699C168.813 112.266 184.611 96.711 197.249 88.8208C200.86 86.5665 204.471 84.763 207.63 83.4104C215.981 80.0289 225.234 85.6647 226.137 94.6821C226.588 100.318 223.428 105.728 218.012 107.757C208.533 111.815 194.315 121.509 192.058 144.503C191.381 151.266 185.739 156.902 178.743 156.676C178.066 156.902 177.163 156.902 176.26 156.676Z" fill="#D1D1D1"/>
<path d="M180.548 179.22C172.875 179.22 166.104 173.584 164.976 165.468C163.622 156 163.848 146.757 165.653 138.416C167.459 129.85 175.583 124.439 184.159 126.243C192.735 128.046 198.152 136.162 196.346 144.728C195.443 149.688 195.218 155.324 196.121 161.41C197.249 169.977 191.155 177.867 182.579 178.994C181.902 178.994 181.225 179.22 180.548 179.22Z" fill="white"/>
<path d="M196.572 155.098L186.867 145.405C184.611 142.925 184.611 139.092 186.867 136.838C189.35 134.584 193.187 134.584 195.443 136.838L205.148 146.532C207.405 149.012 207.405 152.844 205.148 155.098C202.891 157.578 199.054 157.578 196.572 155.098Z" fill="white"/>
<path d="M200.634 86.7919C199.957 87.2428 199.054 87.6936 198.377 88.1445C204.922 89.948 214.401 95.1329 215.078 109.335C215.755 108.884 216.432 108.659 217.109 108.434C215.981 94.9075 207.405 89.2717 200.634 86.7919Z" fill="#888888"/>
<path d="M205.374 116.098C205.825 115.647 206.502 115.197 206.954 114.746C201.086 103.023 192.51 98.7399 186.416 97.1619C185.965 97.6127 185.288 98.289 184.836 98.7399C190.479 100.092 199.506 103.925 205.374 116.098Z" fill="#888888"/>
<path d="M174.455 113.168C174.004 113.844 173.778 114.52 173.552 115.197C180.774 114.746 191.607 116.549 197.023 128.046C197.475 127.37 197.701 126.468 198.152 125.792C192.284 114.971 181.903 112.942 174.455 113.168Z" fill="#888888"/>
<path opacity="0.1" d="M287.071 107.983L222.3 86.5665C221.171 85.4393 219.591 84.3121 218.237 83.6358C218.914 86.7919 219.591 89.7225 220.946 92.4277C222.977 97.1618 225.911 101.671 229.522 105.503C229.522 105.503 229.522 105.503 229.747 105.728C230.199 106.179 230.65 106.63 231.101 107.081C231.327 107.081 231.327 107.306 231.553 107.306C232.004 107.757 232.455 107.983 232.907 108.434C233.133 108.659 233.133 108.659 233.358 108.884C233.81 109.11 234.261 109.561 234.487 109.786C234.712 110.012 234.938 110.012 235.164 110.237C235.615 110.462 236.066 110.913 236.292 111.139C236.518 111.364 236.743 111.364 236.969 111.59C237.421 111.815 237.872 112.04 238.098 112.266C238.323 112.491 238.549 112.491 238.775 112.717C239.226 112.942 239.677 113.168 239.903 113.393C240.129 113.618 240.354 113.618 240.58 113.844C241.031 114.069 241.483 114.295 241.934 114.52C242.16 114.746 242.386 114.746 242.611 114.971C243.063 115.197 243.514 115.422 243.965 115.647C244.191 115.647 244.417 115.873 244.642 115.873C245.32 116.098 245.997 116.324 246.899 116.549L249.156 117.225C249.833 117.451 250.736 117.676 251.413 117.902C251.639 117.902 251.864 118.127 252.09 118.127C252.541 118.353 253.218 118.353 253.67 118.578C253.896 118.578 254.121 118.578 254.573 118.803C255.024 118.803 255.475 119.029 255.927 119.029C256.152 119.029 256.604 119.029 256.829 119.254C257.281 119.254 257.732 119.48 258.184 119.48C258.409 119.48 258.635 119.48 259.086 119.48C259.538 119.48 259.989 119.48 260.44 119.48C260.666 119.48 260.892 119.48 261.117 119.48C261.569 119.48 262.02 119.48 262.697 119.48C262.923 119.48 263.149 119.48 263.374 119.48C263.826 119.48 264.503 119.48 264.954 119.48C265.18 119.48 265.405 119.48 265.631 119.48C266.308 119.48 266.76 119.48 267.437 119.254C267.662 119.254 267.662 119.254 267.888 119.254C268.565 119.254 269.242 119.029 269.919 119.029H270.145C278.27 117.676 285.943 113.844 292.036 108.434C290.231 107.983 288.651 107.757 287.071 107.983Z" fill="black"/>
<path d="M306.48 89.7225L322.955 40.3526" stroke="white" stroke-width="1.7191" stroke-miterlimit="10"/>
<path d="M326.566 41.9306C325.889 43.9595 323.632 45.0867 321.601 44.4104C319.57 43.7341 318.441 41.4798 319.118 39.4509C319.796 37.422 322.052 36.2948 324.084 36.9711C326.115 37.6474 327.243 39.9017 326.566 41.9306Z" fill="#C2C2C2"/>
<path d="M220.72 61.3179L237.195 11.948" stroke="white" stroke-width="1.7191" stroke-miterlimit="10"/>
<path d="M216.206 75.2948L221.849 77.0983L232.23 45.763L226.588 43.9595C221.623 42.3815 216.432 45.0867 214.627 49.8208L210.113 63.3468C208.533 68.3064 211.241 73.7168 216.206 75.2948Z" fill="#C2C2C2"/>
<g opacity="0.1">
<path opacity="0.1" d="M224.105 70.5607L215.981 67.8555C212.37 66.7283 210.564 62.896 211.693 59.289L209.662 65.1503C208.307 68.9827 210.564 73.2659 214.401 74.6185L221.849 77.0983L224.105 70.5607Z" fill="black"/>
</g>
<path d="M300.161 103.249L294.519 101.445L304.901 70.1098L310.543 71.9133C315.508 73.4913 318.216 78.9017 316.411 83.8613L311.897 97.3873C310.543 102.121 305.126 104.827 300.161 103.249Z" fill="#C2C2C2"/>
<g opacity="0.1">
<path opacity="0.1" d="M313.702 92.2023C312.574 95.5838 308.737 97.6127 305.352 96.2601L297.002 93.5549L294.519 101.22L301.967 103.699C305.803 105.052 310.091 102.798 311.445 98.9653L313.702 92.2023Z" fill="black"/>
</g>
<path d="M251.188 112.942L248.931 112.266C226.588 104.827 214.401 80.4798 221.849 58.1618C229.296 35.8439 253.67 23.6705 276.013 31.1098L278.27 31.7861C300.613 39.2254 312.8 63.5722 305.352 85.8902C298.13 108.208 273.531 120.382 251.188 112.942Z" fill="white"/>
<path d="M222.977 88.1445C227.716 99.1908 236.744 108.208 248.931 112.266L251.187 112.942C263.374 117 276.238 115.197 286.394 109.11L289.328 103.699C294.519 94.0058 300.387 76.6474 302.192 65.8266C303.095 60.4162 299.935 55.2312 294.745 53.4277L249.156 38.3237C243.966 36.5202 238.323 39 235.841 43.7341C230.876 53.4277 225.234 71.0116 223.654 81.8324L222.977 88.1445Z" fill="#00212F"/>
<path opacity="0.2" d="M302.418 66.052C302.644 64.2486 302.644 62.4451 301.967 60.8671C301.741 61.7688 301.515 62.896 301.064 63.7977C293.616 86.341 266.76 105.503 244.191 98.0636C235.615 95.3584 228.619 90.1734 223.654 83.4104L222.977 87.9191C227.716 98.9653 236.744 107.983 248.931 112.04L251.187 112.717C263.374 116.775 276.238 114.971 286.394 108.884L289.328 103.474C294.745 94.2312 300.612 76.8728 302.418 66.052Z" fill="black"/>
<path opacity="0.2" d="M250.285 77.5491C256.642 77.5491 261.795 72.4017 261.795 66.052C261.795 59.7023 256.642 54.5549 250.285 54.5549C243.928 54.5549 238.775 59.7023 238.775 66.052C238.775 72.4017 243.928 77.5491 250.285 77.5491Z" fill="white"/>
<path opacity="0.2" d="M239.903 83.6358C239 86.1156 236.518 87.4682 234.035 86.5665C231.553 85.6647 230.199 83.185 231.101 80.7052C232.004 78.2254 234.487 76.8728 236.969 77.7746C239.452 78.4509 240.806 81.1561 239.903 83.6358Z" fill="white"/>
<path d="M240.806 13.526C240.129 15.5549 237.872 16.6821 235.841 16.0058C233.81 15.3295 232.681 13.0751 233.358 11.0462C234.036 9.01734 236.292 7.89017 238.323 8.56647C240.355 9.24277 241.483 11.4971 240.806 13.526Z" fill="#C2C2C2"/>
<path d="M253.896 353.254V313.353L344.395 189.364H396.077V311.775H420V353.48H396.077V390H347.555V353.254H253.896ZM351.392 244.595L302.644 311.549H351.392V244.595Z" fill="#ECAA0A"/>
</g>
<defs>
<clipPath id="clip0">
<rect width="420" height="390" fill="white"/>
</clipPath>
</defs>
</svg>
