<svg width="1440" height="900" viewBox="0 0 1440 900" fill="none" xmlns="http://www.w3.org/2000/svg">
<rect width="1440" height="900" fill="url(#paint0_linear)"/>
<path opacity="0.1" d="M537.287 843.814C559.259 825.762 578.532 803.485 604.551 791.962C630.57 780.44 667.19 785.049 679.332 810.783C686.656 826.338 683.187 844.967 688.39 861.29C696.871 887.216 725.395 901.236 752.185 906.229C788.612 913.142 827.159 909.11 861.273 894.706C893.652 881.071 923.718 858.026 958.796 857.834C984.815 857.834 1009.29 870.893 1029.72 886.832C1047.45 900.66 1064.41 920.248 1061.72 942.333C1059.02 965.571 1035.89 980.934 1013.92 989.384C938.173 1018.38 853.949 1004.75 772.808 1004.36C697.063 1003.98 621.126 1015.69 549.044 1039.12C505.101 1053.33 462.314 1071.96 417.021 1080.03C371.536 1088.29 321.618 1084.83 283.842 1058.52C256.281 1039.12 231.997 998.986 239.321 964.226C246.645 929.274 278.831 931.195 308.127 926.586C387.147 914.295 474.456 895.09 537.287 843.814Z" fill="url(#paint1_linear)"/>
<path opacity="0.1" d="M388.058 214.388C480.378 201.504 570.005 169.391 648.862 120.934C696.368 91.705 743.682 55.3616 799.65 52.4772C858.12 49.4006 910.819 83.4364 963.71 107.858C1001.79 125.549 1041.8 138.625 1082.76 148.239C1120.27 157.085 1158.35 163.046 1196.82 166.699C1243.17 171.122 1293.75 169.968 1330.49 138.24C1365.69 107.858 1335.1 52.2849 1297.22 37.0938C1271.06 26.71 1241.63 30.5558 1213.36 32.2865C1192.59 33.6325 1171.81 33.6325 1151.23 32.4788C1100.27 29.5944 1046.8 21.3258 998.715 4.40396C949.285 -13.0947 902.933 -39.4389 851.388 -51.3611C774.647 -69.052 670.018 -59.8219 600.778 -21.3633C554.619 4.21166 521.153 46.9007 474.8 71.8988C424.794 98.8199 366.517 107.858 313.433 126.895C296.316 133.048 278.621 140.74 267.85 155.162C217.652 221.887 356.131 217.849 388.058 214.388Z" fill="url(#paint2_linear)"/>
<g opacity="0.4">
<path opacity="0.4" d="M357.536 304.381C420.61 286.596 422.421 338.965 444.818 381.453C453.711 398.25 473.802 404.673 490.929 400.226C517.279 393.475 534.57 368.278 549.556 345.223C578.211 301.582 607.195 256.788 646.225 224.84C685.419 193.056 737.459 175.6 783.405 193.056C824.082 208.701 864.1 250.859 838.903 300.923C828.858 321.014 791.64 352.963 795.921 377.336C797.239 384.746 804.32 390.016 811.731 391.334C819.142 392.816 826.717 391.169 833.963 389.687C848.784 386.558 863.441 383.429 878.263 380.135C889.296 377.83 902.306 375.853 910.705 383.594C917.786 390.181 918.445 400.885 922.398 409.778C941.665 454.242 997.328 419.824 1023.35 404.508C1046.9 390.84 1075.88 384.582 1102.72 380.959C1157.4 373.548 1213.72 382.441 1262.47 408.79C1278.44 417.518 1294.09 428.058 1305.78 442.879C1384.66 542.512 1242.38 635.887 1179.47 676.07C1123.8 711.641 1043.27 765.328 979.048 726.792C954.675 712.135 942.818 679.693 917.128 668.494C897.695 660.095 875.792 670.635 858.501 683.81C830.175 705.548 758.044 760.387 722.144 733.873C705.84 721.851 702.382 697.149 701.723 675.411C699.582 615.631 665.822 574.131 608.348 597.022C578.376 609.044 554.661 634.57 529.465 656.308C463.921 713.123 258.233 825.601 200.1 697.808C173.751 639.84 205.04 525.715 224.802 467.417C241.271 419 302.697 304.381 357.536 304.381Z" fill="url(#paint3_linear)"/>
<path opacity="0.5" d="M679.326 527.361C627.287 502 569.812 530.49 448.935 649.72C327.894 768.951 202.9 697.972 202.9 697.972C260.868 825.766 466.721 713.123 532.265 656.472C557.461 634.734 581.176 609.044 611.148 597.187C668.622 574.296 702.382 615.796 704.523 675.576C704.852 687.103 706.17 699.455 709.463 710.324C697.112 669.482 730.872 552.558 679.326 527.361Z" fill="url(#paint4_linear)"/>
<path opacity="0.5" d="M677.515 225.004C689.701 216.111 703.041 208.207 718.027 206.56C732.848 204.748 749.481 210.512 756.892 223.687C758.703 226.98 760.021 230.768 759.691 234.391C759.362 238.344 757.221 242.131 754.916 245.425C740.918 265.187 716.709 276.056 703.205 295.982C694.971 308.004 691.183 322.661 683.773 335.177C669.61 359.221 641.779 364.49 624.816 340.117C593.033 294.665 643.755 249.542 677.515 225.004Z" fill="url(#paint5_linear)"/>
<path opacity="0.5" d="M910.87 437.28C906.917 464.123 926.844 502.659 971.473 491.296C1016.27 479.933 1018.41 411.919 1102.72 380.959C1076.05 384.582 1046.9 390.84 1023.35 404.508C997.163 419.659 941.665 454.242 922.397 409.778C918.61 400.885 917.951 390.181 910.705 383.594C910.87 383.594 914.822 410.601 910.87 437.28Z" fill="url(#paint6_linear)"/>
<path opacity="0.5" d="M416.822 628.312C430.326 612.173 442.842 590.435 435.102 570.838C430.326 558.651 417.316 551.076 404.471 550.746C388.332 550.417 381.745 564.25 367.582 568.367C356.219 571.661 345.021 564.086 333.987 560.298C262.021 536.09 222.332 667.342 291.005 688.586C333.822 701.925 391.132 659.107 416.822 628.312Z" fill="url(#paint7_linear)"/>
</g>
<g opacity="0.4">
<path d="M602.231 125.674C599.455 128.45 594.77 128.45 591.82 125.674C589.043 122.897 589.043 118.212 591.82 115.263C594.596 112.486 648.908 68.5858 648.908 68.5858C648.908 68.5858 605.181 122.724 602.231 125.674Z" fill="url(#paint8_linear)"/>
<path d="M600.496 123.939C598.587 125.847 595.637 125.847 593.729 123.939C591.82 122.03 591.82 119.08 593.729 117.171C595.637 115.263 620.971 96.696 620.971 96.696C620.971 96.696 602.405 122.03 600.496 123.939Z" fill="url(#paint9_linear)"/>
</g>
<g opacity="0.8">
<path d="M472.598 488.324C470.363 490.559 466.638 490.559 464.403 488.324C462.168 486.089 462.168 482.363 464.403 480.128C466.638 477.893 509.851 443 509.851 443C509.851 443 474.834 486.089 472.598 488.324Z" fill="url(#paint10_linear)"/>
<path d="M471.108 486.958C469.618 488.448 467.259 488.448 465.769 486.958C464.279 485.468 464.279 483.108 465.769 481.618C467.259 480.128 487.375 465.351 487.375 465.351C487.375 465.351 472.599 485.468 471.108 486.958Z" fill="url(#paint11_linear)"/>
</g>
<g opacity="0.4">
<path d="M1039.85 849.25C1036.72 852.373 1031.87 852.373 1028.74 849.25C1025.62 846.127 1025.62 841.268 1028.74 838.145C1031.87 835.021 1089.65 788.345 1089.65 788.345C1089.65 788.345 1042.8 846.3 1039.85 849.25Z" fill="url(#paint12_linear)"/>
<path d="M1037.94 847.515C1035.86 849.597 1032.73 849.597 1030.65 847.515C1028.57 845.432 1028.57 842.309 1030.65 840.227C1032.73 838.145 1059.8 818.364 1059.8 818.364C1059.8 818.364 1039.85 845.432 1037.94 847.515Z" fill="url(#paint13_linear)"/>
</g>
<g opacity="0.6">
<path d="M1039.15 421.351C1035.68 424.821 1030.13 424.821 1026.66 421.351C1023.19 417.881 1023.19 412.328 1026.66 408.858C1030.13 405.387 1095.37 352.637 1095.37 352.637C1095.37 352.637 1042.62 417.881 1039.15 421.351Z" fill="url(#paint14_linear)"/>
<path d="M1036.9 419.269C1034.64 421.524 1031 421.524 1028.74 419.269C1026.49 417.013 1026.49 413.369 1028.74 411.113C1031 408.858 1061.54 386.474 1061.54 386.474C1061.54 386.474 1039.15 417.013 1036.9 419.269Z" fill="url(#paint15_linear)"/>
</g>
<g opacity="0.5">
<path d="M539.197 855.992C537.114 858.074 533.644 858.074 531.562 855.992C529.479 853.91 529.479 850.439 531.562 848.357C533.644 846.275 573.553 814 573.553 814C573.553 814 541.279 853.91 539.197 855.992Z" fill="url(#paint16_linear)"/>
<path d="M537.809 854.777C536.42 856.165 534.165 856.165 532.776 854.777C531.388 853.389 531.388 851.133 532.776 849.745C534.165 848.357 552.905 834.649 552.905 834.649C552.905 834.649 539.197 853.389 537.809 854.777Z" fill="url(#paint17_linear)"/>
</g>
<g opacity="0.8">
<path d="M881.709 126.155C879.483 128.381 875.896 128.381 873.67 126.155C871.443 123.929 871.443 120.342 873.67 118.115C875.896 115.889 917.701 82 917.701 82C917.701 82 883.935 123.929 881.709 126.155Z" fill="url(#paint18_linear)"/>
<path d="M880.225 124.794C878.741 126.279 876.391 126.279 875.03 124.794C873.546 123.31 873.546 120.96 875.03 119.6C876.515 118.115 896.057 103.768 896.057 103.768C896.057 103.768 881.709 123.434 880.225 124.794Z" fill="url(#paint19_linear)"/>
</g>
<path d="M467.406 606.323L467.927 607.364C469.315 609.793 471.224 611.702 473.653 613.09L474.694 613.61L473.653 614.131C471.224 615.519 469.315 617.428 467.927 619.857L467.406 620.898L466.886 619.857C465.498 617.428 463.589 615.519 461.16 614.131L460.118 613.61L461.16 613.09C463.589 611.702 465.498 609.793 466.886 607.364L467.406 606.323Z" fill="white"/>
<path d="M838.391 322.098L838.738 322.618C839.432 323.833 840.3 324.874 841.514 325.395L842.035 325.742L841.514 326.089C840.3 326.783 839.259 327.65 838.738 328.865L838.391 329.386L838.044 328.865C837.35 327.65 836.482 326.609 835.268 326.089L834.747 325.742L835.268 325.395C836.482 324.701 837.523 323.833 838.044 322.618L838.391 322.098Z" fill="white"/>
<path d="M742.088 814.72L742.435 815.24C743.129 816.455 743.996 817.496 745.211 818.016L745.732 818.364L745.211 818.711C743.996 819.405 742.955 820.272 742.435 821.487L742.088 822.007L741.741 821.487C741.047 820.272 740.179 819.231 738.964 818.711L738.444 818.364L738.964 818.016C740.179 817.322 741.22 816.455 741.741 815.24L742.088 814.72Z" fill="white"/>
<path d="M1052.51 83.682L1052.86 84.2026C1053.56 85.4172 1054.42 86.4584 1055.64 86.9789L1056.16 87.3259L1055.64 87.673C1054.42 88.3671 1053.38 89.2347 1052.86 90.4493L1052.51 90.9699L1052.17 90.4493C1051.47 89.2347 1050.61 88.1935 1049.39 87.673L1048.87 87.3259L1049.39 86.9789C1050.61 86.2848 1051.65 85.4172 1052.17 84.2026L1052.51 83.682Z" fill="white"/>
<path d="M1089.65 275.768L1090.17 276.809C1091.56 279.239 1093.46 281.147 1095.89 282.535L1096.94 283.056L1095.89 283.577C1093.46 284.965 1091.56 286.873 1090.17 289.303L1089.65 290.344L1089.13 289.303C1087.74 286.873 1085.83 284.965 1083.4 283.577L1082.36 283.056L1083.4 282.535C1085.83 281.147 1087.74 279.239 1089.13 276.809L1089.65 275.768Z" fill="url(#paint20_linear)"/>
<path d="M959.854 349.514L960.375 350.555C961.763 352.984 963.672 354.893 966.101 356.281L967.142 356.802L966.101 357.322C963.672 358.71 961.763 360.619 960.375 363.048L959.854 364.09L959.334 363.048C957.946 360.619 956.037 358.71 953.608 357.322L952.567 356.802L953.608 356.281C956.037 354.893 957.946 352.984 959.334 350.555L959.854 349.514Z" fill="white"/>
<path d="M1097.29 701L1097.81 702.041C1099.2 704.47 1101.11 706.379 1103.53 707.767L1104.58 708.288L1103.53 708.808C1101.11 710.196 1099.2 712.105 1097.81 714.534L1097.29 715.576L1096.77 714.534C1095.38 712.105 1093.47 710.196 1091.04 708.808L1090 708.288L1091.04 707.767C1093.47 706.379 1095.38 704.47 1096.77 702.041L1097.29 701Z" fill="white"/>
<path d="M277.344 161L277.865 162.041C279.253 164.47 281.162 166.379 283.591 167.767L284.632 168.288L283.591 168.808C281.162 170.197 279.253 172.105 277.865 174.535L277.344 175.576L276.824 174.535C275.436 172.105 273.527 170.197 271.098 168.808L270.057 168.288L271.098 167.767C273.527 166.379 275.436 164.47 276.824 162.041L277.344 161Z" fill="#F9ED32"/>
<path d="M760.481 115.436L760.828 116.13C761.695 117.692 762.91 118.906 764.472 119.774L765.166 120.121L764.472 120.468C762.91 121.336 761.695 122.55 760.828 124.112L760.481 124.806L760.134 124.112C759.266 122.55 758.051 121.336 756.49 120.468L755.796 120.121L756.49 119.774C758.051 118.906 759.266 117.692 760.134 116.13L760.481 115.436Z" fill="#F9ED32"/>
<path d="M975.124 47.7635L975.471 48.4576C976.339 50.0192 977.554 51.2339 979.115 52.1015L979.809 52.4485L979.115 52.7956C977.554 53.6631 976.339 54.8778 975.471 56.4395L975.124 57.1335L974.777 56.4395C973.91 54.8778 972.695 53.6631 971.134 52.7956L970.439 52.4485L971.134 52.1015C972.695 51.2339 973.91 50.0192 974.777 48.4576L975.124 47.7635Z" fill="#F9ED32"/>
<path d="M472.685 197L473.032 197.694C473.9 199.256 475.114 200.47 476.676 201.338L477.37 201.685L476.676 202.032C475.114 202.9 473.9 204.114 473.032 205.676L472.685 206.37L472.338 205.676C471.47 204.114 470.256 202.9 468.694 202.032L468 201.685L468.694 201.338C470.256 200.47 471.47 199.256 472.338 197.694L472.685 197Z" fill="#F9ED32"/>
<g opacity="0.5">
<path d="M299.727 518.454C323.877 518.454 343.454 498.877 343.454 474.727C343.454 450.577 323.877 431 299.727 431C275.577 431 256 450.577 256 474.727C256 498.877 275.577 518.454 299.727 518.454Z" fill="url(#paint21_radial)"/>
<path d="M283.59 442.626C285.498 438.635 289.316 436.553 292.266 436.032C296.083 435.338 322.111 432.735 316.038 448.699C313.609 454.946 296.777 457.896 286.539 455.64C283.243 454.946 281.334 449.914 282.722 444.882C283.069 444.014 283.243 443.32 283.59 442.626Z" fill="url(#paint22_linear)"/>
<path d="M294.868 495.896C295.389 498.152 294.348 500.755 292.612 502.49C290.877 504.225 288.622 505.266 286.366 505.96C283.069 507.175 279.078 507.869 275.955 506.134C274.914 505.44 274.046 504.746 273.352 503.705C272.311 502.49 271.27 501.102 271.27 499.54C270.923 494.855 277.863 489.129 282.028 488.608C286.539 488.261 293.827 491.558 294.868 495.896Z" fill="url(#paint23_linear)"/>
<path d="M323.326 480.28C322.632 479.065 322.805 477.503 323.499 476.289C324.193 475.074 325.234 474.206 326.275 473.339C328.011 472.124 329.919 471.083 332.002 471.43C332.696 471.604 333.216 471.951 333.737 472.298C334.431 472.818 335.298 473.339 335.646 474.206C336.513 476.636 333.737 480.974 331.481 482.015C329.225 483.229 324.714 482.535 323.326 480.28Z" fill="url(#paint24_linear)"/>
<path opacity="0.8" d="M330.787 444.014C332.696 448.872 333.737 454.252 333.737 459.978C333.737 484.097 314.129 503.705 290.01 503.705C277.864 503.705 266.758 498.673 258.95 490.691C265.37 507.002 281.16 518.454 299.727 518.454C323.846 518.454 343.454 498.846 343.454 474.727C343.454 462.754 338.595 451.996 330.787 444.014Z" fill="url(#paint25_linear)"/>
<path d="M269.361 461.539C266.238 461.886 262.594 466.051 261.205 468.307C259.123 471.257 258.256 475.421 260.164 479.238C260.858 480.627 261.9 482.015 263.461 482.709C264.502 483.229 265.543 483.403 266.585 483.403C268.84 483.403 270.923 482.362 272.311 481.147C274.566 479.238 276.128 476.636 277.69 474.206C279.078 471.951 280.293 469.348 278.904 466.745C277.516 463.969 272.137 461.019 269.361 461.539Z" fill="url(#paint26_linear)"/>
<path d="M314.303 479.585C312.741 482.362 307.709 484.27 305.106 484.965C301.636 486.006 297.471 485.312 294.521 482.188C293.48 480.974 292.613 479.585 292.266 477.85C292.092 476.809 292.266 475.594 292.613 474.727C293.48 472.471 295.042 471.083 296.777 470.042C299.38 468.48 302.33 467.96 305.106 467.439C307.709 466.919 310.659 466.571 312.567 468.827C314.823 471.083 315.691 476.983 314.303 479.585Z" fill="url(#paint27_linear)"/>
</g>
<path d="M378.659 643.75C386.468 641.841 394.276 641.494 402.258 642.709C433.838 647.741 455.875 676.024 455.528 707.605C455.008 759.834 404.34 802.867 353.499 779.615C331.462 769.551 311.681 744.564 313.069 719.578C315.151 685.915 344.823 651.558 378.659 643.75Z" fill="url(#paint28_linear)"/>
<path opacity="0.5" d="M426.898 673.942C426.898 673.768 426.898 673.768 426.898 673.942C426.204 668.042 422.733 662.837 417.528 660.06C412.496 657.284 406.943 655.375 401.043 654.508C394.45 653.467 387.856 653.814 381.436 655.375C364.604 659.366 349.161 670.992 338.924 685.741C333.718 693.029 334.586 703.093 341.006 709.513C346.905 715.24 354.887 719.751 363.216 721.833C398.788 730.509 429.848 702.746 426.898 673.942Z" fill="url(#paint29_linear)"/>
<g opacity="0.8">
<path d="M454.256 718.66C450.786 722.13 445.233 722.13 441.763 718.66C438.292 715.189 438.292 709.637 441.763 706.166C445.233 702.696 510.476 649.946 510.476 649.946C510.476 649.946 457.726 715.189 454.256 718.66Z" fill="url(#paint30_linear)"/>
<path d="M452 716.578C449.745 718.833 446.101 718.833 443.845 716.578C441.589 714.322 441.589 710.678 443.845 708.422C446.101 706.166 476.64 683.782 476.64 683.782C476.64 683.782 454.256 714.322 452 716.578Z" fill="url(#paint31_linear)"/>
</g>
<g opacity="0.4">
<path d="M212.622 330.702C207.763 335.561 199.608 335.561 194.749 330.702C189.891 325.844 189.891 317.688 194.749 312.83C199.608 307.971 293.308 232.143 293.308 232.143C293.308 232.143 217.654 325.67 212.622 330.702Z" fill="url(#paint32_linear)"/>
<path d="M209.498 327.579C206.201 330.876 200.996 330.876 197.699 327.579C194.402 324.282 194.402 319.076 197.699 315.779C200.996 312.483 244.723 280.381 244.723 280.381C244.723 280.381 212.795 324.455 209.498 327.579Z" fill="url(#paint33_linear)"/>
</g>
<g opacity="0.9">
<path d="M253.668 841.338C281.651 841.338 304.335 818.653 304.335 790.67C304.335 762.687 281.651 740.003 253.668 740.003C225.685 740.003 203 762.687 203 790.67C203 818.653 225.685 841.338 253.668 841.338Z" fill="url(#paint34_radial)"/>
<path d="M204.041 800.734C204.735 800.04 205.603 799.173 206.297 798.479C210.288 794.488 214.279 790.497 219.484 788.415C226.078 785.812 233.539 786.506 240.133 783.903C245.512 781.821 249.677 777.83 253.321 773.318C255.923 770.195 258.353 766.204 257.312 762.213C256.444 759.09 253.668 756.661 250.371 755.793C245.512 754.405 240.133 755.967 235.795 758.396C231.457 760.999 227.64 764.469 223.475 767.419C218.27 771.236 211.676 773.318 205.256 775.401C202.827 783.383 202.306 792.059 204.041 800.734Z" fill="url(#paint35_linear)"/>
<path d="M299.824 769.848C298.609 767.245 297.221 764.816 295.659 762.56C292.883 766.551 290.454 771.063 287.677 774.013C281.084 780.78 272.755 785.985 263.732 788.762C250.197 792.926 239.265 796.223 235.101 811.319C234.754 812.36 234.58 813.228 234.754 814.269C235.795 819.648 245.686 819.995 249.677 819.475C254.882 818.607 259.741 815.657 264.079 812.707C272.755 806.808 281.951 797.958 293.404 798.999C296.874 799.346 299.997 800.561 303.468 800.735C305.376 790.67 304.335 779.912 299.824 769.848Z" fill="url(#paint36_linear)"/>
<path d="M270.152 758.396C268.59 764.122 264.946 768.98 261.649 773.839C260.435 775.748 259.047 778.177 260.261 780.086C260.955 781.474 262.517 781.994 263.905 782.168C268.417 782.688 272.581 780.086 275.878 776.962C282.298 771.063 287.157 763.428 289.76 755.099C283.686 749.026 276.225 744.688 268.243 742.258C268.937 743.473 269.631 744.514 269.805 745.208C271.02 749.373 271.193 754.058 270.152 758.396Z" fill="url(#paint37_linear)"/>
<path d="M296.18 818.434C296.18 818.086 296.353 817.739 296.353 817.392C296.527 815.831 296.7 814.269 295.833 812.881C294.792 810.972 292.536 810.278 290.454 810.278C282.472 809.931 276.052 816.178 269.631 821.036C258.006 829.886 244.992 834.05 230.937 836.132C244.124 842.726 260.088 843.594 274.49 837C283.686 832.836 290.974 826.242 296.18 818.434Z" fill="url(#paint38_linear)"/>
<path opacity="0.5" d="M271.887 743.473C276.225 747.811 280.043 752.843 282.646 758.916C294.098 784.424 282.819 814.443 257.312 826.068C244.471 831.968 230.416 831.795 218.27 827.11C232.845 841.338 255.056 845.85 274.49 837C299.997 825.548 311.276 795.355 299.824 769.848C294.098 757.181 283.86 747.985 271.887 743.473Z" fill="url(#paint39_radial)"/>
</g>
<path d="M981.288 494L981.808 495.041C983.197 497.47 985.105 499.379 987.535 500.767L988.576 501.288L987.535 501.808C985.105 503.197 983.197 505.105 981.808 507.534L981.288 508.576L980.767 507.534C979.379 505.105 977.47 503.197 975.041 501.808L974 501.288L975.041 500.767C977.47 499.379 979.379 497.47 980.767 495.041L981.288 494Z" fill="url(#paint40_radial)"/>
<path d="M1365.69 260L1366.03 260.694C1366.9 262.256 1368.11 263.47 1369.68 264.338L1370.37 264.685L1369.68 265.032C1368.11 265.9 1366.9 267.114 1366.03 268.676L1365.69 269.37L1365.34 268.676C1364.47 267.114 1363.26 265.9 1361.69 265.032L1361 264.685L1361.69 264.338C1363.26 263.47 1364.47 262.256 1365.34 260.694L1365.69 260Z" fill="#F9ED32"/>
<g opacity="0.8">
<path d="M1335.79 405.335C1332.67 408.458 1327.47 408.458 1324.34 405.335C1321.22 402.211 1321.22 397.006 1324.34 393.882C1327.47 390.759 1387.85 342 1387.85 342C1387.85 342 1338.92 402.211 1335.79 405.335Z" fill="url(#paint41_linear)"/>
<path d="M1333.71 403.426C1331.63 405.508 1328.33 405.508 1326.25 403.426C1324.17 401.344 1324.17 398.047 1326.25 395.965C1328.33 393.882 1356.44 373.233 1356.44 373.233C1356.44 373.233 1335.79 401.344 1333.71 403.426Z" fill="url(#paint42_linear)"/>
</g>
<g opacity="0.4">
<path d="M83.4934 677.44C80.7171 680.216 76.0321 680.216 73.0822 677.44C70.3059 674.664 70.3059 669.979 73.0822 667.029C75.8585 664.252 130.17 620.352 130.17 620.352C130.17 620.352 86.4432 674.49 83.4934 677.44Z" fill="url(#paint43_linear)"/>
<path d="M81.7582 675.705C79.8495 677.613 76.8997 677.613 74.991 675.705C73.0823 673.796 73.0823 670.846 74.991 668.937C76.8997 667.029 102.234 648.462 102.234 648.462C102.234 648.462 83.6669 673.796 81.7582 675.705Z" fill="url(#paint44_linear)"/>
</g>
<path d="M176.674 603L177.194 603.868C178.235 605.776 179.797 607.338 181.706 608.379L182.573 608.9L181.706 609.42C179.797 610.461 178.235 612.023 177.194 613.932L176.674 614.799L176.153 613.932C175.112 612.023 173.55 610.461 171.642 609.42L170.774 608.9L171.642 608.379C173.55 607.338 175.112 605.776 176.153 603.868L176.674 603Z" fill="url(#paint45_linear)"/>
<g opacity="0.7">
<path opacity="0.3" d="M1441.96 978.964C1504.73 916.195 1504.73 814.425 1441.96 751.655C1379.19 688.885 1277.42 688.885 1214.65 751.655C1151.88 814.425 1151.88 916.195 1214.65 978.964C1277.42 1041.73 1379.19 1041.73 1441.96 978.964Z" fill="white"/>
<path d="M1328.3 1005.32C1405.65 1005.32 1468.35 942.619 1468.35 865.269C1468.35 787.919 1405.65 725.215 1328.3 725.215C1250.95 725.215 1188.24 787.919 1188.24 865.269C1188.24 942.619 1250.95 1005.32 1328.3 1005.32Z" fill="url(#paint46_radial)"/>
<path d="M1351.61 876.361C1354.99 887.64 1340.89 901.74 1320.4 907.755C1299.91 913.771 1280.55 909.635 1277.16 898.356C1273.78 887.076 1287.88 872.977 1308.37 866.961C1328.86 860.945 1348.22 865.081 1351.61 876.361Z" fill="url(#paint47_linear)"/>
<path d="M1259.49 885.572C1285.06 863.765 1318.71 841.206 1380 858.689C1416.84 869.217 1447.86 850.23 1465.34 835.378C1464.59 832.182 1463.84 828.799 1462.9 825.603C1457.64 807.743 1448.99 791.764 1438.09 778.041C1414.02 773.717 1385.64 773.341 1358.75 786.876C1318.71 806.991 1305.93 844.402 1253.85 842.898C1229.41 842.334 1207.61 852.298 1188.24 866.397C1188.43 879.18 1190.12 892.152 1193.88 904.935C1194.82 908.507 1196.14 911.891 1197.46 915.087C1218.89 911.515 1242.76 899.86 1259.49 885.572Z" fill="url(#paint48_linear)"/>
<path d="M1225.84 953.062C1251.97 942.534 1269.08 946.67 1294.84 953.626C1317.02 959.829 1342.21 960.017 1363.26 949.678C1384.7 939.15 1394.66 920.915 1409.7 904.183C1419.1 893.844 1431.32 886.888 1443.73 881.06C1450.68 877.865 1460.64 875.421 1468.16 870.909C1468.35 866.585 1468.35 862.449 1468.16 858.125C1425.87 863.765 1390.52 880.684 1357.25 906.251C1345.41 915.275 1331.12 921.103 1316.45 922.795C1292.2 925.615 1267.76 917.719 1243.89 922.607C1237.69 923.923 1221.14 929.562 1207.98 937.27C1211.74 943.662 1216.07 949.678 1220.95 955.318C1223.21 954.19 1225.09 953.438 1225.84 953.062Z" fill="url(#paint49_linear)"/>
<path d="M1367.96 999.684C1420.79 984.08 1457.45 940.09 1466.28 889.332C1455.57 888.016 1444.48 890.648 1434.14 899.108C1426.81 905.124 1422.67 914.147 1417.78 922.231C1403.87 945.354 1382.44 963.777 1357.44 974.305C1332.62 984.832 1304.42 987.088 1278.1 980.885C1272.84 979.569 1267.76 978.065 1262.31 977.877C1257.42 977.689 1252.72 978.629 1248.02 979.945C1281.86 1003.63 1325.48 1012.09 1367.96 999.684Z" fill="url(#paint50_linear)"/>
<path d="M1192.76 830.49C1204.03 828.047 1215.5 827.107 1226.97 826.543C1243.33 825.791 1259.87 825.603 1275.85 822.031C1282.62 820.527 1289.95 818.459 1294.46 813.007C1311.19 792.516 1280.74 775.221 1265.13 770.709C1255.73 767.889 1246.33 763.189 1236.93 759.241C1215.13 778.04 1199.71 803.044 1192.76 830.49Z" fill="url(#paint51_linear)"/>
<path d="M1251.22 748.338C1255.54 751.158 1263.63 752.286 1270.02 753.413C1273.03 753.977 1275.66 754.541 1277.35 755.293C1289.38 760.933 1299.16 770.897 1312.51 773.341C1328.67 776.161 1343.34 767.137 1358.75 763.565C1377.55 759.429 1398.23 759.241 1417.41 757.173C1382.82 728.598 1335.07 717.319 1288.63 730.854C1275.1 734.99 1262.5 740.818 1251.22 748.338Z" fill="url(#paint52_linear)"/>
<path opacity="0.8" d="M1389.21 739.126C1400.11 777.665 1400.11 833.498 1327.17 861.321C1256.3 888.392 1227.16 921.667 1220.58 954.754C1255.36 996.488 1312.69 1015.85 1367.96 999.496C1442.22 977.501 1484.52 899.672 1462.71 825.415C1451.06 786.124 1423.61 755.669 1389.21 739.126Z" fill="url(#paint53_linear)"/>
</g>
<g opacity="0.7">
<path opacity="0.3" d="M1300.28 206.52C1311.1 153.861 1277.18 102.403 1224.52 91.5857C1171.86 80.7688 1120.4 114.689 1109.59 167.349C1098.77 220.009 1132.69 271.467 1185.35 282.283C1238.01 293.1 1289.47 259.18 1300.28 206.52Z" fill="white"/>
<path d="M1204.94 273.231C1252.67 273.231 1291.35 234.542 1291.35 186.818C1291.35 139.093 1252.67 100.405 1204.94 100.405C1157.22 100.405 1118.53 139.093 1118.53 186.818C1118.53 234.542 1157.22 273.231 1204.94 273.231Z" fill="url(#paint54_radial)"/>
<path d="M1122.17 211.111C1125.64 208.681 1129.29 206.252 1132.76 204.17C1152.36 192.37 1175.27 187.512 1197.65 183C1220.04 178.662 1243.12 174.498 1263.24 163.566C1270.36 159.749 1276.95 155.064 1282.85 149.338C1277.65 138.579 1270.36 128.862 1261.34 121.227C1232.53 136.671 1201.82 148.47 1170.06 155.931C1164.34 157.319 1142.13 161.831 1120.44 169.119C1119.22 174.845 1118.7 180.571 1118.7 186.644C1118.53 195.32 1119.92 203.476 1122.17 211.111Z" fill="url(#paint55_linear)"/>
<path d="M1148.72 143.611C1179.26 134.415 1209.45 123.657 1237.91 106.999C1227.85 102.834 1216.74 100.579 1205.11 100.579C1169.89 100.579 1139.52 121.748 1126.16 151.94C1134.67 149.338 1143.69 145 1148.72 143.611Z" fill="url(#paint56_linear)"/>
<path d="M1272.61 182.306C1276.6 180.224 1284.24 177.448 1290.31 173.977C1289.62 169.639 1288.75 165.475 1287.54 161.31C1286.67 161.657 1285.97 162.005 1285.28 162.352C1265.33 172.069 1247.45 185.777 1227.15 194.973C1206.33 203.823 1183.6 206.426 1161.91 212.846C1150.28 216.316 1139 220.828 1128.25 226.554C1131.2 232.28 1134.84 237.659 1139 242.518C1185.85 228.81 1229.58 205.384 1272.61 182.306Z" fill="url(#paint57_linear)"/>
<path d="M1289.79 202.955C1287.36 203.649 1285.28 204.343 1283.72 204.864C1271.75 208.681 1260.47 214.581 1250.06 221.522C1229.58 235.23 1212.06 252.582 1192.1 266.984C1190.02 268.372 1187.94 269.934 1185.85 271.322C1191.93 272.71 1198.35 273.578 1204.94 273.578C1247.28 273.231 1282.33 242.865 1289.79 202.955Z" fill="url(#paint58_linear)"/>
<path opacity="0.5" d="M1251.27 113.94C1259.43 143.959 1250.23 180.051 1185.85 181.612C1149.76 182.48 1133.97 205.905 1126.86 223.951C1140.74 253.102 1170.41 273.231 1204.94 273.231C1252.66 273.231 1291.35 234.536 1291.35 186.818C1291.35 156.278 1275.39 129.383 1251.27 113.94Z" fill="url(#paint59_radial)"/>
</g>
<g opacity="0.5">
<path opacity="0.3" d="M0.440636 352.881C62.5399 352.881 112.881 302.54 112.881 240.441C112.881 178.341 62.5399 128 0.440636 128C-61.6586 128 -112 178.341 -112 240.441C-112 302.54 -61.6586 352.881 0.440636 352.881Z" fill="white"/>
<path d="M0.440605 338.479C54.5858 338.479 98.4791 294.586 98.4791 240.441C98.4791 186.295 54.5858 142.402 0.440605 142.402C-53.7046 142.402 -97.5979 186.295 -97.5979 240.441C-97.5979 294.586 -53.7046 338.479 0.440605 338.479Z" fill="url(#paint60_linear)"/>
<path d="M-61.8529 226.733C-61.6794 226.733 -61.6794 226.733 -61.5058 226.733C-47.2772 226.212 -32.8751 228.988 -20.0347 235.062C-14.3085 237.838 -8.75592 241.135 -2.68274 243.043C9.2901 246.861 20.9159 240.614 33.2358 241.135C35.6651 241.308 38.4414 241.829 39.309 244.085C40.6971 247.208 36.8797 250.158 33.5828 251.372C27.5097 253.628 21.0894 255.19 14.6692 255.537C5.47267 256.231 -4.07089 255.016 -12.3998 258.487C-15.8702 259.875 -18.9936 262.131 -22.2904 263.866C-42.4187 274.277 -68.0996 266.989 -81.2871 249.117C-84.5839 244.605 -86.8397 238.532 -83.1958 233.5C-79.2048 227.6 -68.6201 227.08 -61.8529 226.733Z" fill="url(#paint61_linear)"/>
<path d="M-51.4418 157.498C-48.3184 157.325 -45.0215 157.325 -41.8982 157.498L-32.1811 158.366C-25.5873 158.886 -18.6466 159.407 -12.0528 161.142C-5.45908 162.877 0.961136 165.307 7.55488 167.736L12.5869 169.471C14.3221 169.992 16.0573 170.512 17.7925 170.859C19.5277 171.206 21.2629 171.553 22.9981 171.9L28.2037 172.594C35.318 173.289 42.4323 173.462 49.5466 172.421C55.2728 171.553 60.9989 170.165 66.5515 168.257C63.9487 165.827 61.1724 163.571 58.2226 161.489C54.9257 162.01 51.8024 162.357 48.5055 162.53C41.9117 163.224 35.4915 163.745 28.8978 163.745H23.8657C22.1305 163.745 20.5688 163.571 18.8336 163.571C17.0984 163.398 15.5368 163.398 13.8016 163.398L8.76952 163.051C2.00226 162.357 -4.59148 160.795 -11.0117 158.539C-17.4319 156.284 -23.6786 152.987 -30.6194 151.078C-32.5281 150.558 -34.2633 150.21 -36.172 150.037C-41.5511 152.293 -46.5832 154.896 -51.4418 157.845C-51.6153 157.498 -51.6153 157.498 -51.4418 157.498Z" fill="url(#paint62_linear)"/>
<path d="M69.1543 304.122C67.9397 303.949 66.8986 303.775 65.6839 303.775C64.4693 303.602 63.2546 303.602 62.04 303.602C52.4964 303.428 43.1264 305.858 34.2769 307.593C25.2539 309.501 16.4044 311.237 7.20786 312.451C2.69635 313.145 -1.81517 313.666 -6.32667 314.36C-10.8382 315.054 -15.1762 315.748 -19.5141 316.442C-28.3636 317.657 -37.0396 318.351 -45.7156 318.524C-50.0536 318.698 -54.3916 318.698 -58.7296 318.524H-58.9031C-53.0034 323.036 -46.4097 326.853 -39.6424 329.977C-32.1811 329.456 -24.8933 328.241 -17.779 326.506C-8.58242 324.598 0.0935478 321.474 8.596 318.177C17.0985 314.88 25.7744 312.104 34.6239 311.063C43.6469 310.022 52.4964 311.237 60.9989 312.625L65.3369 313.492C68.2867 310.89 71.063 308.113 73.6658 305.163C72.4512 304.643 70.8895 304.469 69.1543 304.122Z" fill="url(#paint63_linear)"/>
<path d="M-1.2946 299.611C16.0574 301.519 33.7563 303.775 51.2818 301.346C58.2226 300.305 66.8986 298.57 72.2777 293.538C75.9216 290.241 76.2686 285.382 75.2275 280.871C67.4191 249.29 27.1626 259.701 5.81969 267.336C-10.4911 273.236 -26.9755 280.177 -44.3274 279.656C-57.1679 279.309 -69.8348 274.624 -80.9401 268.204C-86.1456 265.254 -91.0042 261.957 -95.6892 258.487C-92.2188 276.88 -83.5428 293.538 -71.3965 306.725C-63.9351 305.163 -57.1679 301.693 -49.8801 299.611C-34.0898 295.273 -17.4319 297.702 -1.2946 299.611Z" fill="url(#paint64_linear)"/>
<path d="M77.8303 195.152C80.2596 193.937 82.6888 192.723 85.2916 191.682C82.8623 187.517 80.2596 183.7 77.3097 179.882C72.1042 180.576 66.8986 180.923 61.8665 180.75C50.9348 180.576 38.6149 178.494 27.8567 182.138C19.7013 184.914 12.4134 192.549 12.934 201.052C13.9751 217.536 34.6239 222.048 46.2497 228.988C55.4463 234.541 63.7752 241.308 71.063 249.29C79.2184 258.313 83.2094 266.469 86.8533 277.921C87.3739 279.482 87.8944 281.044 88.762 282.259C94.8352 269.592 98.1321 255.363 98.1321 240.267C98.1321 235.235 97.785 230.203 96.9174 225.171C92.9265 222.395 88.5885 220.139 84.2505 218.23C80.6066 216.495 76.7892 215.107 73.8393 212.33C67.0721 206.257 70.5425 199.143 77.8303 195.152Z" fill="url(#paint65_linear)"/>
<path d="M-58.556 217.883C-48.1449 217.71 -37.0396 218.577 -27.149 222.395C-18.2995 225.691 -10.6647 231.591 -1.2946 233.673C8.07545 235.756 21.7835 225.691 11.0253 217.189C8.24897 214.933 4.77857 213.719 2.52282 211.116C-3.72388 204.349 2.34931 198.275 4.60506 191.682C6.51378 185.782 3.73746 179.362 -0.77404 175.544C-5.11202 171.727 -10.8382 169.298 -17.0849 167.736C-32.1811 163.919 -48.8389 164.439 -64.9763 167.736C-80.4195 181.618 -91.5247 200.531 -95.6892 221.701C-83.7164 223.089 -67.7526 218.057 -58.556 217.883Z" fill="url(#paint66_linear)"/>
</g>
<defs>
<linearGradient id="paint0_linear" x1="167" y1="-50.7692" x2="654.326" y2="932.548" gradientUnits="userSpaceOnUse">
<stop stop-color="#3A090B"/>
<stop offset="1" stop-color="#310202"/>
</linearGradient>
<linearGradient id="paint1_linear" x1="238.448" y1="935.108" x2="1062.26" y2="935.108" gradientUnits="userSpaceOnUse">
<stop stop-color="#BB070C"/>
<stop offset="0.3032" stop-color="#C80815"/>
<stop offset="0.6422" stop-color="#D42215"/>
<stop offset="1" stop-color="#FD3722"/>
</linearGradient>
<linearGradient id="paint2_linear" x1="256.898" y1="78.0193" x2="1346.11" y2="78.0193" gradientUnits="userSpaceOnUse">
<stop stop-color="#BB070C"/>
<stop offset="0.3032" stop-color="#C80815"/>
<stop offset="0.6422" stop-color="#D42215"/>
<stop offset="1" stop-color="#FD3722"/>
</linearGradient>
<linearGradient id="paint3_linear" x1="570.968" y1="288.336" x2="915.291" y2="823.05" gradientUnits="userSpaceOnUse">
<stop stop-color="#BB070C"/>
<stop offset="0.3032" stop-color="#C80815"/>
<stop offset="0.6422" stop-color="#D42215"/>
<stop offset="1" stop-color="#FD3722"/>
</linearGradient>
<linearGradient id="paint4_linear" x1="438.659" y1="601.232" x2="524.347" y2="754.432" gradientUnits="userSpaceOnUse">
<stop offset="0.00294471" stop-color="#341F70"/>
<stop offset="1" stop-color="#5F237C" stop-opacity="0"/>
</linearGradient>
<linearGradient id="paint5_linear" x1="655.768" y1="247.109" x2="722.634" y2="313.241" gradientUnits="userSpaceOnUse">
<stop offset="0.00294471" stop-color="#341F70"/>
<stop offset="1" stop-color="#5F237C" stop-opacity="0"/>
</linearGradient>
<linearGradient id="paint6_linear" x1="989.199" y1="508.959" x2="1002.12" y2="416.537" gradientUnits="userSpaceOnUse">
<stop offset="0.00294471" stop-color="#341F70"/>
<stop offset="1" stop-color="#5F237C" stop-opacity="0"/>
</linearGradient>
<linearGradient id="paint7_linear" x1="326.077" y1="545.797" x2="371.257" y2="693.228" gradientUnits="userSpaceOnUse">
<stop offset="0.00294471" stop-color="#341F70"/>
<stop offset="1" stop-color="#5F237C" stop-opacity="0"/>
</linearGradient>
<linearGradient id="paint8_linear" x1="589.811" y1="98.1532" x2="649.054" y2="98.1532" gradientUnits="userSpaceOnUse">
<stop stop-color="#BB070C"/>
<stop offset="0.3032" stop-color="#C80815"/>
<stop offset="0.6422" stop-color="#D42215"/>
<stop offset="1" stop-color="#FD3722"/>
</linearGradient>
<linearGradient id="paint9_linear" x1="619.671" y1="99.8471" x2="594.663" y2="122.717" gradientUnits="userSpaceOnUse">
<stop stop-color="#D42215"/>
<stop offset="1" stop-color="#FD5922"/>
</linearGradient>
<linearGradient id="paint10_linear" x1="462.685" y1="466.534" x2="509.777" y2="466.534" gradientUnits="userSpaceOnUse">
<stop stop-color="#BB070C"/>
<stop offset="0.3032" stop-color="#C80815"/>
<stop offset="0.6422" stop-color="#D42215"/>
<stop offset="1" stop-color="#FD3722"/>
</linearGradient>
<linearGradient id="paint11_linear" x1="486.42" y1="467.88" x2="466.543" y2="486.059" gradientUnits="userSpaceOnUse">
<stop stop-color="#D42215"/>
<stop offset="1" stop-color="#FD5922"/>
</linearGradient>
<linearGradient id="paint12_linear" x1="1026.49" y1="820.003" x2="1089.69" y2="820.003" gradientUnits="userSpaceOnUse">
<stop stop-color="#BB070C"/>
<stop offset="0.3032" stop-color="#C80815"/>
<stop offset="0.6422" stop-color="#D42215"/>
<stop offset="1" stop-color="#FD3722"/>
</linearGradient>
<linearGradient id="paint13_linear" x1="1058.34" y1="821.811" x2="1031.67" y2="846.208" gradientUnits="userSpaceOnUse">
<stop stop-color="#D42215"/>
<stop offset="1" stop-color="#FD5922"/>
</linearGradient>
<linearGradient id="paint14_linear" x1="1024.06" y1="388.278" x2="1095.33" y2="388.278" gradientUnits="userSpaceOnUse">
<stop offset="0.0258814" stop-color="#F07725"/>
<stop offset="0.1894" stop-color="#F06F25" stop-opacity="0.9161"/>
<stop offset="0.6548" stop-color="#F05E25" stop-opacity="0.6772"/>
<stop offset="1" stop-color="#F05825" stop-opacity="0.5"/>
</linearGradient>
<linearGradient id="paint15_linear" x1="1061.71" y1="387.373" x2="1028.18" y2="419.612" gradientUnits="userSpaceOnUse">
<stop offset="0.0109375" stop-color="#FED10A"/>
<stop offset="1" stop-color="#FEAB0A"/>
</linearGradient>
<linearGradient id="paint16_linear" x1="529.908" y1="835.776" x2="573.545" y2="835.776" gradientUnits="userSpaceOnUse">
<stop offset="0.0258814" stop-color="#F07725"/>
<stop offset="0.1894" stop-color="#F06F25" stop-opacity="0.9161"/>
<stop offset="0.6548" stop-color="#F05E25" stop-opacity="0.6772"/>
<stop offset="1" stop-color="#F05825" stop-opacity="0.5"/>
</linearGradient>
<linearGradient id="paint17_linear" x1="552.961" y1="835.222" x2="532.43" y2="854.963" gradientUnits="userSpaceOnUse">
<stop offset="0.0109375" stop-color="#FED10A"/>
<stop offset="1" stop-color="#FEAB0A"/>
</linearGradient>
<linearGradient id="paint18_linear" x1="872.039" y1="104.971" x2="917.777" y2="104.971" gradientUnits="userSpaceOnUse">
<stop offset="0.0258814" stop-color="#F07725"/>
<stop offset="0.1894" stop-color="#F06F25" stop-opacity="0.9161"/>
<stop offset="0.6548" stop-color="#F05E25" stop-opacity="0.6772"/>
<stop offset="1" stop-color="#F05825" stop-opacity="0.5"/>
</linearGradient>
<linearGradient id="paint19_linear" x1="896.203" y1="104.391" x2="874.683" y2="125.082" gradientUnits="userSpaceOnUse">
<stop offset="0.0109375" stop-color="#FED10A"/>
<stop offset="1" stop-color="#FEAB0A"/>
</linearGradient>
<linearGradient id="paint20_linear" x1="1082.47" y1="282.983" x2="1096.91" y2="282.983" gradientUnits="userSpaceOnUse">
<stop offset="0.0664263" stop-color="#FFA4E1"/>
<stop offset="0.2795" stop-color="#FD9CDD"/>
<stop offset="0.601" stop-color="#F888D4"/>
<stop offset="0.9894" stop-color="#EF66C3"/>
<stop offset="1" stop-color="#EF65C3"/>
</linearGradient>
<radialGradient id="paint21_radial" cx="0" cy="0" r="1" gradientUnits="userSpaceOnUse" gradientTransform="translate(292.702 461.937) scale(68.0282)">
<stop offset="0.0109375" stop-color="#FED10A"/>
<stop offset="0.6361" stop-color="#FEB50A"/>
<stop offset="1" stop-color="#FEAB0A"/>
</radialGradient>
<linearGradient id="paint22_linear" x1="282.362" y1="445.764" x2="317.071" y2="445.764" gradientUnits="userSpaceOnUse">
<stop stop-color="#F58321"/>
<stop offset="0.9972" stop-color="#F59C21"/>
</linearGradient>
<linearGradient id="paint23_linear" x1="271.45" y1="497.957" x2="295.118" y2="497.957" gradientUnits="userSpaceOnUse">
<stop stop-color="#F58321"/>
<stop offset="0.9972" stop-color="#F59C21"/>
</linearGradient>
<linearGradient id="paint24_linear" x1="322.794" y1="477.068" x2="335.739" y2="477.068" gradientUnits="userSpaceOnUse">
<stop stop-color="#F58321"/>
<stop offset="0.9972" stop-color="#F59C21"/>
</linearGradient>
<linearGradient id="paint25_linear" x1="258.97" y1="481.303" x2="343.467" y2="481.303" gradientUnits="userSpaceOnUse">
<stop offset="0.0109375" stop-color="#FED10A"/>
<stop offset="1" stop-color="#FEAB0A"/>
</linearGradient>
<linearGradient id="paint26_linear" x1="258.981" y1="472.365" x2="279.495" y2="472.365" gradientUnits="userSpaceOnUse">
<stop stop-color="#F58321"/>
<stop offset="0.9972" stop-color="#F59C21"/>
</linearGradient>
<linearGradient id="paint27_linear" x1="292.428" y1="476.247" x2="314.981" y2="476.247" gradientUnits="userSpaceOnUse">
<stop stop-color="#F58321"/>
<stop offset="0.9972" stop-color="#F59C21"/>
</linearGradient>
<linearGradient id="paint28_linear" x1="354.667" y1="645.109" x2="415.932" y2="784.57" gradientUnits="userSpaceOnUse">
<stop stop-color="#5F237C"/>
<stop offset="0.9971" stop-color="#341F70"/>
</linearGradient>
<linearGradient id="paint29_linear" x1="368.159" y1="656.336" x2="397.282" y2="722.632" gradientUnits="userSpaceOnUse">
<stop offset="0.00294471" stop-color="#341F70"/>
<stop offset="1" stop-color="#5F237C" stop-opacity="0"/>
</linearGradient>
<linearGradient id="paint30_linear" x1="439.22" y1="685.592" x2="510.483" y2="685.592" gradientUnits="userSpaceOnUse">
<stop stop-color="#EF65C3"/>
<stop offset="0.0602436" stop-color="#EC60BD" stop-opacity="0.9688"/>
<stop offset="0.4416" stop-color="#DE439B" stop-opacity="0.7716"/>
<stop offset="0.7573" stop-color="#D53187" stop-opacity="0.6082"/>
<stop offset="0.9665" stop-color="#D22A7F" stop-opacity="0.5"/>
</linearGradient>
<linearGradient id="paint31_linear" x1="476.868" y1="684.687" x2="443.34" y2="716.926" gradientUnits="userSpaceOnUse">
<stop stop-color="#EF65C3"/>
<stop offset="0.010568" stop-color="#EF66C3"/>
<stop offset="0.399" stop-color="#F888D4"/>
<stop offset="0.7205" stop-color="#FD9CDD"/>
<stop offset="0.9336" stop-color="#FFA4E1"/>
</linearGradient>
<linearGradient id="paint32_linear" x1="191.068" y1="283.193" x2="293.385" y2="283.193" gradientUnits="userSpaceOnUse">
<stop stop-color="#EF65C3"/>
<stop offset="0.0602436" stop-color="#EC60BD" stop-opacity="0.9688"/>
<stop offset="0.4416" stop-color="#DE439B" stop-opacity="0.7716"/>
<stop offset="0.7573" stop-color="#D53187" stop-opacity="0.6082"/>
<stop offset="0.9665" stop-color="#D22A7F" stop-opacity="0.5"/>
</linearGradient>
<linearGradient id="paint33_linear" x1="245.122" y1="281.894" x2="196.983" y2="328.182" gradientUnits="userSpaceOnUse">
<stop stop-color="#EF65C3"/>
<stop offset="0.010568" stop-color="#EF66C3"/>
<stop offset="0.399" stop-color="#F888D4"/>
<stop offset="0.7205" stop-color="#FD9CDD"/>
<stop offset="0.9336" stop-color="#FFA4E1"/>
</linearGradient>
<radialGradient id="paint34_radial" cx="0" cy="0" r="1" gradientUnits="userSpaceOnUse" gradientTransform="translate(234.895 780.652) rotate(-24.3249) scale(70.3162)">
<stop stop-color="#EE68BB"/>
<stop offset="0.2975" stop-color="#EA60B9"/>
<stop offset="0.7454" stop-color="#DE4CB3"/>
<stop offset="1" stop-color="#D53DAF"/>
</radialGradient>
<linearGradient id="paint35_linear" x1="218.324" y1="768.787" x2="246.262" y2="795.452" gradientUnits="userSpaceOnUse">
<stop offset="0.0334535" stop-color="#D22A7F"/>
<stop offset="0.2427" stop-color="#D53187"/>
<stop offset="0.5584" stop-color="#DE439B"/>
<stop offset="0.9398" stop-color="#EC60BD"/>
<stop offset="1" stop-color="#EF65C3"/>
</linearGradient>
<linearGradient id="paint36_linear" x1="233.339" y1="811.513" x2="304.21" y2="779.477" gradientUnits="userSpaceOnUse">
<stop offset="0.0664263" stop-color="#FFA4E1"/>
<stop offset="0.2795" stop-color="#FD9CDD"/>
<stop offset="0.601" stop-color="#F888D4"/>
<stop offset="0.9894" stop-color="#EF66C3"/>
<stop offset="1" stop-color="#EF65C3"/>
</linearGradient>
<linearGradient id="paint37_linear" x1="251.896" y1="756.876" x2="291.208" y2="771.711" gradientUnits="userSpaceOnUse">
<stop stop-color="#EF65C3"/>
<stop offset="0.0602436" stop-color="#EC60BD"/>
<stop offset="0.4416" stop-color="#DE439B"/>
<stop offset="0.7573" stop-color="#D53187"/>
<stop offset="0.9665" stop-color="#D22A7F"/>
</linearGradient>
<linearGradient id="paint38_linear" x1="262.871" y1="823.798" x2="277.401" y2="840.221" gradientUnits="userSpaceOnUse">
<stop stop-color="#EF65C3"/>
<stop offset="0.0602436" stop-color="#EC60BD"/>
<stop offset="0.4416" stop-color="#DE439B"/>
<stop offset="0.7573" stop-color="#D53187"/>
<stop offset="0.9665" stop-color="#D22A7F"/>
</linearGradient>
<radialGradient id="paint39_radial" cx="0" cy="0" r="1" gradientUnits="userSpaceOnUse" gradientTransform="translate(258.373 796.906) rotate(-24.3249) scale(46.1404)">
<stop stop-color="#EF65C3"/>
<stop offset="0.0602436" stop-color="#EC60BD"/>
<stop offset="0.4416" stop-color="#DE439B"/>
<stop offset="0.7573" stop-color="#D53187"/>
<stop offset="0.9665" stop-color="#D22A7F"/>
</radialGradient>
<radialGradient id="paint40_radial" cx="0" cy="0" r="1" gradientUnits="userSpaceOnUse" gradientTransform="translate(981.227 501.208) scale(7.22049)">
<stop offset="0.0109375" stop-color="#FED10A"/>
<stop offset="0.6361" stop-color="#FEB50A"/>
<stop offset="1" stop-color="#FEAB0A"/>
</radialGradient>
<linearGradient id="paint41_linear" x1="1321.94" y1="374.886" x2="1387.75" y2="374.886" gradientUnits="userSpaceOnUse">
<stop stop-color="#BB070C"/>
<stop offset="0.3032" stop-color="#C80815"/>
<stop offset="0.6422" stop-color="#D42215"/>
<stop offset="1" stop-color="#FD3722"/>
</linearGradient>
<linearGradient id="paint42_linear" x1="1355.11" y1="376.767" x2="1327.33" y2="402.17" gradientUnits="userSpaceOnUse">
<stop stop-color="#D42215"/>
<stop offset="1" stop-color="#FD5922"/>
</linearGradient>
<linearGradient id="paint43_linear" x1="71.0734" y1="649.919" x2="130.316" y2="649.919" gradientUnits="userSpaceOnUse">
<stop stop-color="#BB070C"/>
<stop offset="0.3032" stop-color="#C80815"/>
<stop offset="0.6422" stop-color="#D42215"/>
<stop offset="1" stop-color="#FD3722"/>
</linearGradient>
<linearGradient id="paint44_linear" x1="100.933" y1="651.613" x2="75.9257" y2="674.483" gradientUnits="userSpaceOnUse">
<stop stop-color="#D42215"/>
<stop offset="1" stop-color="#FD5922"/>
</linearGradient>
<linearGradient id="paint45_linear" x1="170.907" y1="608.708" x2="182.41" y2="608.708" gradientUnits="userSpaceOnUse">
<stop offset="0.0664263" stop-color="#FFA4E1"/>
<stop offset="0.2795" stop-color="#FD9CDD"/>
<stop offset="0.601" stop-color="#F888D4"/>
<stop offset="0.9894" stop-color="#EF66C3"/>
<stop offset="1" stop-color="#EF65C3"/>
</linearGradient>
<radialGradient id="paint46_radial" cx="0" cy="0" r="1" gradientUnits="userSpaceOnUse" gradientTransform="translate(1287.29 816.754) rotate(-16.4506) scale(178)">
<stop offset="0.0109375" stop-color="#FED10A"/>
<stop offset="1" stop-color="#FEAB0A"/>
</radialGradient>
<linearGradient id="paint47_linear" x1="1277.18" y1="898.314" x2="1351.63" y2="876.33" gradientUnits="userSpaceOnUse">
<stop stop-color="#F58321"/>
<stop offset="0.9972" stop-color="#F59C21"/>
</linearGradient>
<linearGradient id="paint48_linear" x1="1187.26" y1="882.062" x2="1455.95" y2="802.724" gradientUnits="userSpaceOnUse">
<stop stop-color="#F05825"/>
<stop offset="0.9741" stop-color="#F07725"/>
</linearGradient>
<linearGradient id="paint49_linear" x1="1215.45" y1="962.191" x2="1476.26" y2="885.18" gradientUnits="userSpaceOnUse">
<stop stop-color="#F58321"/>
<stop offset="0.9972" stop-color="#F59C21"/>
</linearGradient>
<linearGradient id="paint50_linear" x1="1251.52" y1="991.612" x2="1476.9" y2="925.061" gradientUnits="userSpaceOnUse">
<stop stop-color="#F05825"/>
<stop offset="0.9741" stop-color="#F07725"/>
</linearGradient>
<linearGradient id="paint51_linear" x1="1187" y1="811.299" x2="1293.58" y2="779.829" gradientUnits="userSpaceOnUse">
<stop stop-color="#F58321"/>
<stop offset="0.9972" stop-color="#F59C21"/>
</linearGradient>
<linearGradient id="paint52_linear" x1="1258.27" y1="772.019" x2="1408.71" y2="727.596" gradientUnits="userSpaceOnUse">
<stop stop-color="#F58321"/>
<stop offset="0.9972" stop-color="#F59C21"/>
</linearGradient>
<linearGradient id="paint53_linear" x1="1327.76" y1="864.275" x2="1411.16" y2="976.563" gradientUnits="userSpaceOnUse">
<stop offset="0.0109375" stop-color="#FED10A"/>
<stop offset="1" stop-color="#FEAB0A"/>
</linearGradient>
<radialGradient id="paint54_radial" cx="0" cy="0" r="1" gradientUnits="userSpaceOnUse" gradientTransform="translate(1180.35 146.274) scale(132.295)">
<stop stop-color="#EF65C3"/>
<stop offset="0.0602436" stop-color="#EC60BD"/>
<stop offset="0.4416" stop-color="#DE439B"/>
<stop offset="0.7573" stop-color="#D53187"/>
<stop offset="0.9665" stop-color="#D22A7F"/>
</radialGradient>
<linearGradient id="paint55_linear" x1="1170.17" y1="135.698" x2="1218.49" y2="200.466" gradientUnits="userSpaceOnUse">
<stop stop-color="#D53DAF"/>
<stop offset="0.2546" stop-color="#DE4CB3"/>
<stop offset="0.7025" stop-color="#EA60B9"/>
<stop offset="1" stop-color="#EE68BB"/>
</linearGradient>
<linearGradient id="paint56_linear" x1="1126.04" y1="126.173" x2="1237.84" y2="126.173" gradientUnits="userSpaceOnUse">
<stop offset="0.0664263" stop-color="#FFA4E1"/>
<stop offset="0.2795" stop-color="#FD9CDD"/>
<stop offset="0.601" stop-color="#F888D4"/>
<stop offset="0.9894" stop-color="#EF66C3"/>
<stop offset="1" stop-color="#EF65C3"/>
</linearGradient>
<linearGradient id="paint57_linear" x1="1128.36" y1="201.923" x2="1290.32" y2="201.923" gradientUnits="userSpaceOnUse">
<stop offset="0.0664263" stop-color="#FFA4E1"/>
<stop offset="0.2795" stop-color="#FD9CDD"/>
<stop offset="0.601" stop-color="#F888D4"/>
<stop offset="0.9894" stop-color="#EF66C3"/>
<stop offset="1" stop-color="#EF65C3"/>
</linearGradient>
<linearGradient id="paint58_linear" x1="1235.58" y1="233.289" x2="1249.4" y2="255.333" gradientUnits="userSpaceOnUse">
<stop stop-color="#EE68BB"/>
<stop offset="0.2975" stop-color="#EA60B9"/>
<stop offset="0.7454" stop-color="#DE4CB3"/>
<stop offset="1" stop-color="#D53DAF"/>
</linearGradient>
<radialGradient id="paint59_radial" cx="0" cy="0" r="1" gradientUnits="userSpaceOnUse" gradientTransform="translate(1209.18 193.605) scale(80.9373)">
<stop stop-color="#EF65C3"/>
<stop offset="0.0602436" stop-color="#EC60BD"/>
<stop offset="0.4416" stop-color="#DE439B"/>
<stop offset="0.7573" stop-color="#D53187"/>
<stop offset="0.9665" stop-color="#D22A7F"/>
</radialGradient>
<linearGradient id="paint60_linear" x1="-97.6109" y1="240.414" x2="98.3236" y2="240.414" gradientUnits="userSpaceOnUse">
<stop stop-color="#D42115"/>
<stop offset="1" stop-color="#FD4922"/>
</linearGradient>
<linearGradient id="paint61_linear" x1="-85.2941" y1="247.743" x2="39.4501" y2="247.743" gradientUnits="userSpaceOnUse">
<stop stop-color="#D42215"/>
<stop offset="1" stop-color="#FD5922"/>
</linearGradient>
<linearGradient id="paint62_linear" x1="-51.7661" y1="161.243" x2="66.3417" y2="161.243" gradientUnits="userSpaceOnUse">
<stop stop-color="#D42215"/>
<stop offset="1" stop-color="#FD5922"/>
</linearGradient>
<linearGradient id="paint63_linear" x1="-58.6923" y1="316.777" x2="73.9434" y2="316.777" gradientUnits="userSpaceOnUse">
<stop stop-color="#D42215"/>
<stop offset="1" stop-color="#FD5922"/>
</linearGradient>
<linearGradient id="paint64_linear" x1="-63.1014" y1="225.957" x2="38.371" y2="327.429" gradientUnits="userSpaceOnUse">
<stop stop-color="#BB070C"/>
<stop offset="0.3032" stop-color="#C80815"/>
<stop offset="0.6422" stop-color="#D42215"/>
<stop offset="1" stop-color="#FD3722"/>
</linearGradient>
<linearGradient id="paint65_linear" x1="29.0295" y1="177.657" x2="111.319" y2="259.947" gradientUnits="userSpaceOnUse">
<stop stop-color="#BB070C"/>
<stop offset="0.3032" stop-color="#C80815"/>
<stop offset="0.6422" stop-color="#D42215"/>
<stop offset="1" stop-color="#FD3722"/>
</linearGradient>
<linearGradient id="paint66_linear" x1="-72.2983" y1="174.537" x2="-2.68481" y2="244.151" gradientUnits="userSpaceOnUse">
<stop stop-color="#BB070C"/>
<stop offset="0.3032" stop-color="#C80815"/>
<stop offset="0.6422" stop-color="#D42215"/>
<stop offset="1" stop-color="#FD3722"/>
</linearGradient>
</defs>
</svg>
